# SSTK version 0.8.0
# 22
mtllib original-22.mtl
o #ID115
v -0.011827 0.008837 0.258271
v -0.017870 0.008837 0.258271
v -0.014848 0.008837 0.258668
v -0.009012 0.008837 0.257105
v -0.020685 0.008837 0.257105
v -0.006594 0.008837 0.255249
v -0.023103 0.008837 0.255249
v -0.004739 0.008837 0.252832
v -0.024958 0.008837 0.252832
v -0.003573 0.008837 0.250016
v -0.026124 0.008837 0.250016
v -0.003175 0.008837 0.246995
v -0.026522 0.008837 0.246995
v -0.003573 0.008837 0.243974
v -0.026124 0.008837 0.243974
v -0.024958 0.008837 0.241159
v -0.004739 0.008837 0.241159
v -0.006594 0.008837 0.238741
v -0.023103 0.008837 0.238741
v -0.009012 0.008837 0.236886
v -0.020685 0.008837 0.236886
v -0.011827 0.008837 0.235720
v -0.017870 0.008837 0.235720
v -0.014848 0.008837 0.235322
v -0.003573 0.008837 0.250016
v -0.004739 0.000082 0.252832
v -0.003573 0.000082 0.250016
v -0.004739 0.008837 0.252832
v -0.003175 0.008837 0.246995
v -0.003175 0.000082 0.246995
v -0.003573 0.008837 0.243974
v -0.003573 0.000082 0.243974
v -0.004739 0.008837 0.241159
v -0.004739 0.000082 0.241159
v -0.006594 0.008837 0.238741
v -0.006594 0.000082 0.238741
v -0.009012 0.000082 0.236886
v -0.009012 0.008837 0.236886
v -0.011827 0.000082 0.235720
v -0.011827 0.008837 0.235720
v -0.014848 0.000082 0.235322
v -0.014848 0.008837 0.235322
v -0.017870 0.000082 0.235720
v -0.017870 0.008837 0.235720
v -0.020685 0.000082 0.236886
v -0.020685 0.008837 0.236886
v -0.023103 0.000082 0.238741
v -0.023103 0.008837 0.238741
v -0.024958 0.008837 0.241159
v -0.024958 0.000082 0.241159
v -0.026124 0.008837 0.243974
v -0.026124 0.000082 0.243974
v -0.026522 0.008837 0.246995
v -0.026522 0.000082 0.246995
v -0.026124 0.008837 0.250016
v -0.026124 0.000082 0.250016
v -0.024958 0.008837 0.252832
v -0.024958 0.000082 0.252832
v -0.023103 0.008837 0.255249
v -0.023103 0.000082 0.255249
v -0.020685 0.000082 0.257105
v -0.020685 0.008837 0.257105
v -0.017870 0.000082 0.258271
v -0.017870 0.008837 0.258271
v -0.014848 0.000082 0.258668
v -0.014848 0.008837 0.258668
v -0.011827 0.000082 0.258271
v -0.011827 0.008837 0.258271
v -0.009012 0.000082 0.257105
v -0.009012 0.008837 0.257105
v -0.006594 0.000082 0.255249
v -0.006594 0.008837 0.255249
vn 0 1 0
vn 0.9659258358036645 0 0.2588190095935616
vn 0.8660254028383291 0 0.5000000016387101
vn 1 0 0
vn 0.9659258358036645 0 -0.2588190095935616
vn 0.8660254028383291 0 -0.5000000016387101
vn 0.7071067811865476 0 -0.7071067811865476
vn 0.5000000016387101 0 -0.8660254028383291
vn 0.2588190095935616 0 -0.9659258358036645
vn 0 0 -1
vn -0.2588190095935616 0 -0.9659258358036645
vn -0.5000000016387101 0 -0.8660254028383291
vn -0.7071067811865476 0 -0.7071067811865476
vn -0.8660254028383291 0 -0.5000000016387101
vn -0.9659258358036645 0 -0.2588190095935616
vn -1 0 0
vn -0.9659258358036645 0 0.2588190095935616
vn -0.8660254028383291 0 0.5000000016387101
vn -0.7071067811865476 0 0.7071067811865476
vn -0.5000000016387101 0 0.8660254028383291
vn -0.2588190095935616 0 0.9659258358036645
vn 0 0 1
vn 0.2588190095935616 0 0.9659258358036645
vn 0.5000000016387101 0 0.8660254028383291
vn 0.7071067811865476 0 0.7071067811865476
usemtl material_0_0
f 1//1 2//1 3//1
f 2//1 1//1 4//1
f 2//1 4//1 5//1
f 5//1 4//1 6//1
f 5//1 6//1 7//1
f 7//1 6//1 8//1
f 7//1 8//1 9//1
f 9//1 8//1 10//1
f 9//1 10//1 11//1
f 11//1 10//1 12//1
f 11//1 12//1 13//1
f 13//1 12//1 14//1
f 13//1 14//1 15//1
f 15//1 14//1 16//1
f 16//1 14//1 17//1
f 16//1 17//1 18//1
f 16//1 18//1 19//1
f 19//1 18//1 20//1
f 19//1 20//1 21//1
f 21//1 20//1 22//1
f 21//1 22//1 23//1
f 23//1 22//1 24//1
f 25//2 26//3 27//2
f 26//3 25//2 28//3
f 29//4 27//2 30//4
f 27//2 29//4 25//2
f 31//5 30//4 32//5
f 30//4 31//5 29//4
f 33//6 32//5 34//6
f 32//5 33//6 31//5
f 35//7 34//6 36//7
f 34//6 35//7 33//6
f 37//8 35//7 36//7
f 35//7 37//8 38//8
f 39//9 38//8 37//8
f 38//8 39//9 40//9
f 41//10 40//9 39//9
f 40//9 41//10 42//10
f 43//11 42//10 41//10
f 42//10 43//11 44//11
f 45//12 44//11 43//11
f 44//11 45//12 46//12
f 47//13 46//12 45//12
f 46//12 47//13 48//13
f 49//14 47//13 50//14
f 47//13 49//14 48//13
f 51//15 50//14 52//15
f 50//14 51//15 49//14
f 53//16 52//15 54//16
f 52//15 53//16 51//15
f 55//17 54//16 56//17
f 54//16 55//17 53//16
f 57//18 56//17 58//18
f 56//17 57//18 55//17
f 59//19 58//18 60//19
f 58//18 59//19 57//18
f 59//19 61//20 62//20
f 61//20 59//19 60//19
f 62//20 63//21 64//21
f 63//21 62//20 61//20
f 64//21 65//22 66//22
f 65//22 64//21 63//21
f 66//22 67//23 68//23
f 67//23 66//22 65//22
f 68//23 69//24 70//24
f 69//24 68//23 67//23
f 70//24 71//25 72//25
f 71//25 70//24 69//24
f 28//3 71//25 26//3
f 71//25 28//3 72//25
