# SSTK version 0.8.0
# 11
mtllib original-11.mtl
o #ID39
v -0.061564 0.000918 -0.822960
v -0.050848 -0.013673 -0.841760
v -0.061564 -0.013673 -0.822960
v -0.050848 0.000918 -0.841760
v -0.070050 0.000918 -0.803053
v -0.070050 -0.013673 -0.803053
v -0.038043 -0.013673 -0.859205
v -0.038043 0.000918 -0.859205
v -0.076193 0.000918 -0.782304
v -0.076193 -0.013673 -0.782304
v -0.023319 -0.013673 -0.875064
v -0.023319 0.000918 -0.875064
v -0.079911 0.000918 -0.760985
v -0.079911 -0.013673 -0.760985
v -0.006871 0.000918 -0.889126
v -0.006871 -0.013673 -0.889126
v 0.011084 0.000918 -0.901205
v 0.011084 -0.013673 -0.901205
v 0.030308 0.000918 -0.911142
v 0.030308 -0.013673 -0.911142
v 0.050546 0.000918 -0.918805
v 0.050546 -0.013673 -0.918805
v 0.072123 0.000918 -0.924242
v 0.072123 -0.013673 -0.924242
vn -0.8958261274018436 0 -0.44440471359360717
vn -0.8388456818847166 0 -0.5443692882440786
vn -0.9409461004299323 0 -0.33855640015469146
vn -0.7707591811887746 0 -0.6371265844502251
vn -0.9736082774491637 0 -0.22822559471381032
vn -0.6924680973444332 0 -0.7214484972332955
vn -0.9851259015891954 0 -0.17183410027720106
vn -0.6050089038391143 0 -0.7962187050524457
vn -0.5095396030684475 0 -0.8604472051816131
vn -0.4073241754401187 0 -0.9132836449329568
vn -0.2997159000711735 0 -0.9540285002265532
vn -0.244332291212119 0 -0.9696915651231769
usemtl material_0_0
f 1//1 2//2 3//1
f 2//2 1//1 4//2
f 5//3 3//1 6//3
f 3//1 5//3 1//1
f 4//2 7//4 2//2
f 7//4 4//2 8//4
f 9//5 6//3 10//5
f 6//3 9//5 5//3
f 8//4 11//6 7//4
f 11//6 8//4 12//6
f 13//7 10//5 14//7
f 10//5 13//7 9//5
f 11//6 15//8 16//8
f 15//8 11//6 12//6
f 16//8 17//9 18//9
f 17//9 16//8 15//8
f 18//9 19//10 20//10
f 19//10 18//9 17//9
f 20//10 21//11 22//11
f 21//11 20//10 19//10
f 22//11 23//12 24//12
f 23//12 22//11 21//11
