# SSTK version 0.8.0
# 21
mtllib original-21.mtl
o #ID109
v -0.073563 0.058448 -0.026758
v 0.057761 0.043857 -0.026758
v 0.057761 0.058448 -0.026758
v 0.035874 0.043857 -0.026758
v -0.073563 0.043857 -0.026758
v -0.073563 0.043857 -0.026758
v -0.073563 0.058448 -0.026758
v 0.035874 0.043857 -0.026758
v 0.057761 0.043857 -0.026758
v 0.057761 0.058448 -0.026758
v 0.057761 0.102223 -0.114308
v -0.073563 0.058448 -0.026758
v 0.057761 0.058448 -0.026758
v -0.073563 0.102223 -0.114308
v -0.073563 0.102223 -0.114308
v 0.057761 0.102223 -0.114308
v -0.073563 0.058448 -0.026758
v 0.057761 0.058448 -0.026758
v -0.073563 0.102223 -0.114308
v -0.073563 0.058448 -0.114308
v -0.073563 0.058448 -0.026758
v -0.073563 0.043857 -0.187266
v -0.073563 0.043857 -0.026758
v -0.073563 0.058448 -0.187266
v -0.073563 0.058448 -0.114308
v -0.073563 0.058448 -0.026758
v -0.073563 0.058448 -0.187266
v -0.073563 0.043857 -0.187266
v -0.073563 0.043857 -0.026758
v -0.073563 0.102223 -0.114308
v 0.057761 0.058448 -0.187266
v -0.073563 0.058448 -0.114308
v 0.057761 0.058448 -0.114308
v -0.073563 0.058448 -0.187266
v -0.073563 0.058448 -0.187266
v 0.057761 0.058448 -0.187266
v -0.073563 0.058448 -0.114308
v 0.057761 0.058448 -0.114308
vn 0 0 1
vn 0 0 -1
vn 0 0.8944271909999159 0.4472135954999579
vn 0 -0.8944271909999159 -0.4472135954999579
vn -1 0 0
vn 1 0 0
vn 0 1 0
vn 0 -1 0
usemtl material_0_0
f 1//1 2//1 3//1
f 2//1 1//1 4//1
f 4//1 1//1 5//1
f 6//2 7//2 8//2
f 8//2 7//2 9//2
f 10//2 9//2 7//2
f 11//3 12//3 13//3
f 12//3 11//3 14//3
f 15//4 16//4 17//4
f 18//4 17//4 16//4
f 19//5 20//5 21//5
f 21//5 22//5 23//5
f 22//5 21//5 24//5
f 24//5 21//5 20//5
f 25//6 26//6 27//6
f 27//6 26//6 28//6
f 29//6 28//6 26//6
f 26//6 25//6 30//6
f 31//7 32//7 33//7
f 32//7 31//7 34//7
f 35//8 36//8 37//8
f 38//8 37//8 36//8
