# SSTK version 0.8.0
# 20
mtllib original-20.mtl
o #ID103
v -0.073563 0.043857 0.177524
v 0.057761 0.043857 0.265074
v -0.073563 0.043857 0.265074
v 0.057761 0.043857 0.177524
v 0.035874 0.043857 0.177524
v 0.057761 0.058448 0.046200
v 0.057761 0.043857 0.177524
v 0.057761 0.043857 0.046200
v 0.057761 0.043857 0.265074
v 0.057761 0.058448 0.265074
v 0.057761 0.102223 0.152633
v -0.073563 0.058448 0.265074
v 0.057761 0.043857 0.265074
v 0.057761 0.058448 0.265074
v -0.073563 0.043857 0.265074
v -0.073563 0.058448 0.265074
v -0.073563 0.043857 0.177524
v -0.073563 0.043857 0.265074
v -0.073563 0.043857 0.046200
v -0.073563 0.058448 0.046200
v -0.073563 0.102223 0.152633
v 0.035874 0.043857 0.177524
v -0.051676 0.043255 0.177524
v 0.035874 0.000082 0.177524
v -0.073563 0.043857 0.177524
v -0.073563 0.043255 0.177524
v -0.051676 0.000082 0.177524
v -0.073563 0.043857 0.046200
v 0.035874 0.043857 0.046200
v -0.051676 0.043857 0.046200
v 0.057761 0.043857 0.046200
v 0.035874 0.043857 0.046200
v 0.057761 0.058448 0.046200
v 0.057761 0.043857 0.046200
v -0.073563 0.058448 0.046200
v -0.051676 0.043857 0.046200
v -0.073563 0.043857 0.046200
v 0.057761 0.058448 0.046200
v -0.073563 0.102223 0.152633
v 0.057761 0.102223 0.152633
v -0.073563 0.058448 0.046200
v 0.057761 0.102223 0.152633
v -0.073563 0.058448 0.265074
v 0.057761 0.058448 0.265074
v -0.073563 0.102223 0.152633
v -0.051676 0.000082 0.177524
v -0.051676 -0.029101 -0.187266
v -0.051676 -0.029101 0.177524
v -0.051676 0.043255 -0.187266
v -0.051676 0.043255 0.177524
v -0.051676 0.043255 0.046200
v -0.051676 0.043255 -0.026758
v -0.051676 0.043255 -0.124522
v 0.057761 0.000082 0.323440
v -0.006594 0.000082 0.255249
v -0.073563 0.000082 0.323440
v 0.057761 0.000082 0.177524
v -0.009012 0.000082 0.257105
v -0.011827 0.000082 0.258271
v -0.014848 0.000082 0.258668
v -0.004739 0.000082 0.252832
v -0.003573 0.000082 0.250016
v -0.003175 0.000082 0.246995
v -0.003573 0.000082 0.243974
v -0.004739 0.000082 0.241159
v -0.006594 0.000082 0.238741
v -0.009012 0.000082 0.236886
v -0.011827 0.000082 0.235720
v -0.014848 0.000082 0.235322
v -0.051676 0.000082 0.177524
v 0.035874 0.000082 0.177524
v -0.024958 0.000082 0.252832
v -0.073563 0.000082 0.177524
v -0.023103 0.000082 0.255249
v -0.020685 0.000082 0.257105
v -0.017870 0.000082 0.258271
v -0.026124 0.000082 0.250016
v -0.026522 0.000082 0.246995
v -0.026124 0.000082 0.243974
v -0.024958 0.000082 0.241159
v -0.023103 0.000082 0.238741
v -0.020685 0.000082 0.236886
v -0.017870 0.000082 0.235720
v 0.035874 0.043857 -0.187266
v 0.035874 -0.029101 0.177524
v 0.035874 -0.029101 -0.187266
v 0.035874 0.000082 0.177524
v 0.035874 0.043857 0.177524
v 0.035874 0.043857 -0.026758
v 0.035874 0.043857 0.046200
v -0.051676 0.043255 -0.026758
v -0.051676 0.043857 0.046200
v 0.035874 0.043857 0.046200
v -0.051676 -0.029101 -0.187266
v 0.035874 0.043857 -0.187266
v 0.035874 -0.029101 -0.187266
v 0.057761 0.058448 -0.187266
v 0.057761 0.043857 -0.187266
v -0.073563 0.058448 -0.187266
v -0.051676 0.043255 -0.187266
v -0.073563 0.043255 -0.187266
v -0.073563 0.043857 -0.187266
v -0.051676 -0.029101 -0.187266
v 0.035874 -0.029101 0.177524
v -0.051676 -0.029101 0.177524
v 0.035874 -0.029101 -0.187266
v -0.073563 -0.029101 0.177524
v 0.057761 -0.029101 0.323440
v -0.073563 -0.029101 0.323440
v 0.057761 -0.029101 0.177524
v -0.073563 -0.029101 0.177524
v -0.051676 0.000082 0.177524
v -0.051676 -0.029101 0.177524
v -0.073563 0.000082 0.177524
v 0.057761 0.000082 0.177524
v 0.057761 -0.029101 0.323440
v 0.057761 -0.029101 0.177524
v 0.057761 0.000082 0.323440
v 0.035874 -0.029101 0.177524
v 0.057761 0.000082 0.177524
v 0.057761 -0.029101 0.177524
v 0.035874 0.000082 0.177524
v -0.073563 0.000082 0.323440
v -0.073563 -0.029101 0.177524
v -0.073563 -0.029101 0.323440
v -0.073563 0.000082 0.177524
v -0.073563 0.000082 0.323440
v 0.057761 -0.029101 0.323440
v 0.057761 0.000082 0.323440
v -0.073563 -0.029101 0.323440
v 0.035874 0.043857 -0.187266
v 0.057761 0.043857 -0.026758
v 0.035874 0.043857 -0.026758
v 0.057761 0.043857 -0.187266
v -0.051676 0.043255 -0.026758
v 0.035874 0.043857 0.046200
v 0.035874 0.043857 -0.026758
v -0.073563 0.043490 -0.124522
v -0.073563 0.043857 -0.187266
v -0.073563 0.043255 -0.187266
v -0.073563 0.043857 -0.026758
v 0.057761 0.058448 -0.187266
v 0.057761 0.043857 -0.026758
v 0.057761 0.043857 -0.187266
v 0.057761 0.058448 -0.026758
v 0.057761 0.058448 -0.114308
v 0.057761 0.102223 -0.114308
v -0.073563 0.058448 -0.114308
v 0.057761 0.102223 -0.114308
v 0.057761 0.058448 -0.114308
v -0.073563 0.102223 -0.114308
vn 0 -1 0
vn 1 0 0
vn 0 0 1
vn -1 0 0
vn 0 0 -1
vn 0 0.924832674560198 -0.3803741895368705
vn 0 0.931870966367375 0.3627898869063672
vn 0 1 0
vn 0 0.9999660131274474 -0.008244549108233563
vn -0.006870528983765972 0.999976397637206 0
usemtl material_0_0
f 1//1 2//1 3//1
f 2//1 1//1 4//1
f 4//1 1//1 5//1
f 6//2 7//2 8//2
f 7//2 6//2 9//2
f 9//2 6//2 10//2
f 10//2 6//2 11//2
f 12//3 13//3 14//3
f 13//3 12//3 15//3
f 16//4 17//4 18//4
f 17//4 16//4 19//4
f 19//4 16//4 20//4
f 20//4 16//4 21//4
f 22//3 23//3 24//3
f 23//3 22//3 25//3
f 23//3 25//3 26//3
f 27//3 24//3 23//3
f 28//1 5//1 1//1
f 5//1 28//1 29//1
f 29//1 28//1 30//1
f 29//1 4//1 5//1
f 4//1 29//1 31//1
f 32//5 33//5 34//5
f 33//5 32//5 35//5
f 35//5 32//5 36//5
f 35//5 36//5 37//5
f 38//6 39//6 40//6
f 39//6 38//6 41//6
f 42//7 43//7 44//7
f 43//7 42//7 45//7
f 46//4 47//4 48//4
f 47//4 46//4 49//4
f 49//4 46//4 50//4
f 49//4 50//4 51//4
f 49//4 51//4 52//4
f 49//4 52//4 53//4
f 54//8 55//8 56//8
f 55//8 54//8 57//8
f 56//8 55//8 58//8
f 56//8 58//8 59//8
f 56//8 59//8 60//8
f 55//8 57//8 61//8
f 61//8 57//8 62//8
f 62//8 57//8 63//8
f 63//8 57//8 64//8
f 64//8 57//8 65//8
f 65//8 57//8 66//8
f 66//8 57//8 67//8
f 67//8 57//8 68//8
f 68//8 57//8 69//8
f 69//8 57//8 70//8
f 70//8 57//8 71//8
f 56//8 72//8 73//8
f 72//8 56//8 74//8
f 74//8 56//8 75//8
f 75//8 56//8 76//8
f 76//8 56//8 60//8
f 73//8 72//8 77//8
f 73//8 77//8 78//8
f 73//8 78//8 79//8
f 73//8 79//8 80//8
f 73//8 80//8 81//8
f 73//8 81//8 82//8
f 73//8 82//8 83//8
f 73//8 83//8 69//8
f 73//8 69//8 70//8
f 84//2 85//2 86//2
f 85//2 84//2 87//2
f 87//2 84//2 88//2
f 88//2 84//2 89//2
f 88//2 89//2 90//2
f 91//9 92//9 93//9
f 94//5 95//5 96//5
f 95//5 97//5 98//5
f 97//5 95//5 99//5
f 99//5 95//5 100//5
f 100//5 95//5 94//5
f 99//5 100//5 101//5
f 99//5 101//5 102//5
f 103//1 104//1 105//1
f 104//1 103//1 106//1
f 107//1 108//1 109//1
f 108//1 107//1 105//1
f 108//1 105//1 110//1
f 110//1 105//1 104//1
f 111//5 112//5 113//5
f 112//5 111//5 114//5
f 115//2 116//2 117//2
f 116//2 115//2 118//2
f 119//5 120//5 121//5
f 120//5 119//5 122//5
f 123//4 124//4 125//4
f 124//4 123//4 126//4
f 127//3 128//3 129//3
f 128//3 127//3 130//3
f 131//1 132//1 133//1
f 132//1 131//1 134//1
f 135//10 136//10 137//10
f 138//4 139//4 140//4
f 139//4 138//4 141//4
f 142//2 143//2 144//2
f 143//2 142//2 145//2
f 145//2 142//2 146//2
f 145//2 146//2 147//2
f 148//5 149//5 150//5
f 149//5 148//5 151//5
