# SSTK version 0.8.0
# 34
mtllib original-34.mtl
o #ID185
v 0.057761 0.043255 0.820524
v 0.021473 0.043255 0.766777
v -0.073563 0.043255 0.820524
v 0.024605 0.043255 0.764684
v 0.027438 0.043255 0.762200
v 0.029922 0.043255 0.759368
v 0.032015 0.043255 0.756235
v 0.033682 0.043255 0.752856
v 0.034893 0.043255 0.749288
v 0.035628 0.043255 0.745593
v 0.057761 0.043255 0.594354
v 0.018094 0.043255 0.768444
v 0.014526 0.043255 0.769655
v 0.010831 0.043255 0.770390
v 0.007071 0.043255 0.770636
v 0.035874 0.043255 0.741834
v 0.035874 0.043255 -0.736939
v 0.057761 0.043255 -0.186711
v 0.057854 0.043255 -0.194895
v 0.058139 0.043255 -0.203322
v 0.058615 0.043255 -0.211740
v 0.059281 0.043255 -0.220145
v 0.060136 0.043255 -0.228533
v 0.061180 0.043255 -0.236900
v 0.062413 0.043255 -0.245241
v 0.063834 0.043255 -0.253552
v 0.065442 0.043255 -0.261828
v 0.067237 0.043255 -0.270067
v 0.069217 0.043255 -0.278262
v 0.071319 0.043255 -0.286172
v 0.125375 0.043255 -0.480774
v 0.126115 0.043255 -0.483645
v 0.126662 0.043255 -0.486144
v 0.127115 0.043255 -0.488662
v 0.127474 0.043255 -0.491195
v 0.127740 0.043255 -0.493739
v 0.127910 0.043255 -0.496292
v 0.127986 0.043255 -0.498849
v 0.127966 0.043255 -0.501407
v 0.127852 0.043255 -0.503962
v 0.127643 0.043255 -0.506512
v 0.127339 0.043255 -0.509052
v 0.126878 0.043255 -0.511981
v 0.087611 0.043255 -0.734497
v -0.051429 0.043255 0.745593
v -0.073563 0.043255 0.594354
v -0.050694 0.043255 0.749288
v -0.049483 0.043255 0.752856
v -0.047817 0.043255 0.756235
v -0.045724 0.043255 0.759368
v -0.043239 0.043255 0.762200
v -0.040407 0.043255 0.764684
v -0.037274 0.043255 0.766777
v -0.033895 0.043255 0.768444
v -0.030328 0.043255 0.769655
v -0.026632 0.043255 0.770390
v -0.022873 0.043255 0.770636
v -0.007901 0.043255 0.770636
v -0.051675 0.043255 0.741834
v -0.051675 0.043255 -0.741072
v -0.073563 0.043255 -0.742105
v -0.073563 0.043255 -0.742105
v -0.051675 0.043255 -0.741072
v -0.073563 0.043255 0.594354
v -0.051675 0.043255 0.741834
v -0.051429 0.043255 0.745593
v -0.007901 0.043255 0.770636
v 0.007071 0.043255 0.770636
v -0.022873 0.043255 0.770636
v -0.073563 0.043255 0.820524
v -0.026632 0.043255 0.770390
v -0.030328 0.043255 0.769655
v -0.033895 0.043255 0.768444
v -0.037274 0.043255 0.766777
v -0.040407 0.043255 0.764684
v -0.043239 0.043255 0.762200
v -0.045724 0.043255 0.759368
v -0.047817 0.043255 0.756235
v -0.049483 0.043255 0.752856
v -0.050694 0.043255 0.749288
v 0.087611 0.043255 -0.734497
v 0.126878 0.043255 -0.511981
v 0.035874 0.043255 -0.736939
v 0.127339 0.043255 -0.509052
v 0.127643 0.043255 -0.506512
v 0.127852 0.043255 -0.503962
v 0.127966 0.043255 -0.501407
v 0.127986 0.043255 -0.498849
v 0.127910 0.043255 -0.496292
v 0.127740 0.043255 -0.493739
v 0.127474 0.043255 -0.491195
v 0.127115 0.043255 -0.488662
v 0.126662 0.043255 -0.486144
v 0.126115 0.043255 -0.483645
v 0.125375 0.043255 -0.480774
v 0.071319 0.043255 -0.286172
v 0.069217 0.043255 -0.278262
v 0.067237 0.043255 -0.270067
v 0.065442 0.043255 -0.261828
v 0.063834 0.043255 -0.253552
v 0.062413 0.043255 -0.245241
v 0.061180 0.043255 -0.236900
v 0.060136 0.043255 -0.228533
v 0.059281 0.043255 -0.220145
v 0.058615 0.043255 -0.211740
v 0.058139 0.043255 -0.203322
v 0.057854 0.043255 -0.194895
v 0.057761 0.043255 -0.186711
v 0.057761 0.043255 0.594354
v 0.035874 0.043255 0.741834
v 0.035628 0.043255 0.745593
v 0.010831 0.043255 0.770390
v 0.014526 0.043255 0.769655
v 0.018094 0.043255 0.768444
v 0.021473 0.043255 0.766777
v 0.057761 0.043255 0.820524
v 0.034893 0.043255 0.749288
v 0.033682 0.043255 0.752856
v 0.032015 0.043255 0.756235
v 0.029922 0.043255 0.759368
v 0.027438 0.043255 0.762200
v 0.024605 0.043255 0.764684
vn 0 1 0
vn 0 -1 0
usemtl material_0_0
f 1//1 2//1 3//1
f 2//1 1//1 4//1
f 4//1 1//1 5//1
f 5//1 1//1 6//1
f 6//1 1//1 7//1
f 7//1 1//1 8//1
f 8//1 1//1 9//1
f 9//1 1//1 10//1
f 10//1 1//1 11//1
f 3//1 2//1 12//1
f 3//1 12//1 13//1
f 3//1 13//1 14//1
f 3//1 14//1 15//1
f 10//1 11//1 16//1
f 16//1 11//1 17//1
f 17//1 11//1 18//1
f 17//1 18//1 19//1
f 17//1 19//1 20//1
f 17//1 20//1 21//1
f 17//1 21//1 22//1
f 17//1 22//1 23//1
f 17//1 23//1 24//1
f 17//1 24//1 25//1
f 17//1 25//1 26//1
f 17//1 26//1 27//1
f 17//1 27//1 28//1
f 17//1 28//1 29//1
f 17//1 29//1 30//1
f 17//1 30//1 31//1
f 17//1 31//1 32//1
f 17//1 32//1 33//1
f 17//1 33//1 34//1
f 17//1 34//1 35//1
f 17//1 35//1 36//1
f 17//1 36//1 37//1
f 17//1 37//1 38//1
f 17//1 38//1 39//1
f 17//1 39//1 40//1
f 17//1 40//1 41//1
f 17//1 41//1 42//1
f 17//1 42//1 43//1
f 17//1 43//1 44//1
f 3//1 45//1 46//1
f 45//1 3//1 47//1
f 47//1 3//1 48//1
f 48//1 3//1 49//1
f 49//1 3//1 50//1
f 50//1 3//1 51//1
f 51//1 3//1 52//1
f 52//1 3//1 53//1
f 53//1 3//1 54//1
f 54//1 3//1 55//1
f 55//1 3//1 56//1
f 56//1 3//1 57//1
f 57//1 3//1 15//1
f 57//1 15//1 58//1
f 46//1 45//1 59//1
f 46//1 59//1 60//1
f 46//1 60//1 61//1
f 62//2 63//2 64//2
f 63//2 65//2 64//2
f 65//2 66//2 64//2
f 67//2 68//2 69//2
f 68//2 70//2 69//2
f 69//2 70//2 71//2
f 71//2 70//2 72//2
f 72//2 70//2 73//2
f 73//2 70//2 74//2
f 74//2 70//2 75//2
f 75//2 70//2 76//2
f 76//2 70//2 77//2
f 77//2 70//2 78//2
f 78//2 70//2 79//2
f 79//2 70//2 80//2
f 80//2 70//2 66//2
f 64//2 66//2 70//2
f 81//2 82//2 83//2
f 82//2 84//2 83//2
f 84//2 85//2 83//2
f 85//2 86//2 83//2
f 86//2 87//2 83//2
f 87//2 88//2 83//2
f 88//2 89//2 83//2
f 89//2 90//2 83//2
f 90//2 91//2 83//2
f 91//2 92//2 83//2
f 92//2 93//2 83//2
f 93//2 94//2 83//2
f 94//2 95//2 83//2
f 95//2 96//2 83//2
f 96//2 97//2 83//2
f 97//2 98//2 83//2
f 98//2 99//2 83//2
f 99//2 100//2 83//2
f 100//2 101//2 83//2
f 101//2 102//2 83//2
f 102//2 103//2 83//2
f 103//2 104//2 83//2
f 104//2 105//2 83//2
f 105//2 106//2 83//2
f 106//2 107//2 83//2
f 107//2 108//2 83//2
f 108//2 109//2 83//2
f 83//2 109//2 110//2
f 110//2 109//2 111//2
f 68//2 112//2 70//2
f 112//2 113//2 70//2
f 113//2 114//2 70//2
f 114//2 115//2 70//2
f 109//2 116//2 111//2
f 111//2 116//2 117//2
f 117//2 116//2 118//2
f 118//2 116//2 119//2
f 119//2 116//2 120//2
f 120//2 116//2 121//2
f 121//2 116//2 122//2
f 122//2 116//2 115//2
f 70//2 115//2 116//2
