# SSTK version 0.8.0
# 17
mtllib original-17.mtl
o #ID89
v -0.080859 -0.004918 1.003581
v 0.035874 0.000918 1.068433
v 0.050466 -0.004918 1.076539
v -0.080859 0.000918 1.003581
v -0.080859 0.000918 1.003581
v 0.035874 0.000918 1.001664
v 0.035874 0.000918 1.068433
v -0.080859 0.000918 0.936812
v 0.050466 -0.004918 0.201043
v 0.035874 0.000918 1.068433
v 0.050466 -0.004918 1.076539
v 0.035874 0.000918 1.001664
v 0.035874 0.000918 0.999995
v 0.035874 0.000918 0.933226
v 0.035874 0.000918 0.931557
v 0.035874 0.000918 0.864788
v 0.035874 0.000918 0.863119
v 0.035874 0.000918 0.796350
v 0.035874 0.000918 0.794681
v 0.035874 0.000918 0.727912
v 0.035874 0.000918 0.726243
v 0.035874 0.000918 0.659474
v 0.035874 0.000918 0.657805
v 0.035874 0.000918 0.591036
v 0.035874 0.000918 0.589367
v 0.035874 0.000918 0.522598
v 0.035874 0.000918 0.520929
v 0.035874 0.000918 0.454160
v 0.035874 0.000918 0.452491
v 0.035874 0.000918 0.385723
v 0.035874 0.000918 0.384053
v 0.035874 0.000918 0.317284
v 0.035874 0.000918 0.315615
v 0.035874 0.000918 0.201043
v -0.080859 -0.004918 1.003581
v -0.018724 -0.004918 0.259738
v -0.014948 -0.004918 0.260235
v -0.022243 -0.004918 0.258280
v -0.025265 -0.004918 0.255962
v -0.080859 -0.004918 0.201043
v -0.027584 -0.004918 0.252940
v -0.029042 -0.004918 0.249420
v -0.029539 -0.004918 0.245644
v -0.029042 -0.004918 0.241867
v -0.027584 -0.004918 0.238348
v -0.025265 -0.004918 0.235326
v -0.022243 -0.004918 0.233007
v -0.018724 -0.004918 0.231549
v -0.014948 -0.004918 0.231052
v 0.050466 -0.004918 0.201043
v 0.050466 -0.004918 1.076539
v -0.004630 -0.004918 0.255962
v -0.007652 -0.004918 0.258280
v -0.011171 -0.004918 0.259738
v -0.002311 -0.004918 0.252940
v -0.000853 -0.004918 0.249420
v -0.000356 -0.004918 0.245644
v -0.000853 -0.004918 0.241867
v -0.002311 -0.004918 0.238348
v -0.004630 -0.004918 0.235326
v -0.007652 -0.004918 0.233007
v -0.011171 -0.004918 0.231549
v -0.080859 -0.004918 0.201043
v -0.080859 -0.000541 0.250764
v -0.080859 -0.004918 1.003581
v -0.080859 0.000918 0.201043
v -0.080859 -0.000541 0.252433
v -0.080859 -0.000541 0.935143
v -0.080859 -0.000541 0.868375
v -0.080859 0.000918 0.250764
v -0.080859 -0.000541 0.866705
v -0.080859 -0.000541 0.320871
v -0.080859 -0.000541 0.389309
v -0.080859 -0.000541 0.457747
v -0.080859 -0.000541 0.456077
v -0.080859 0.000918 0.389309
v -0.080859 0.000918 0.456077
v -0.080859 -0.000541 0.526185
v -0.080859 -0.000541 0.799937
v -0.080859 -0.000541 0.524515
v -0.080859 0.000918 0.457747
v -0.080859 0.000918 0.524515
v -0.080859 -0.000541 0.592954
v -0.080859 -0.000541 0.594623
v -0.080859 0.000918 0.526185
v -0.080859 0.000918 0.592954
v -0.080859 -0.000541 0.661392
v -0.080859 -0.000541 0.663060
v -0.080859 0.000918 0.594623
v -0.080859 0.000918 0.661392
v -0.080859 -0.000541 0.729829
v -0.080859 -0.000541 0.731499
v -0.080859 0.000918 0.663060
v -0.080859 0.000918 0.729829
v -0.080859 -0.000541 0.798267
v -0.080859 0.000918 0.731499
v -0.080859 0.000918 0.798267
v -0.080859 0.000918 0.866705
v -0.080859 0.000918 0.799937
v -0.080859 -0.000541 0.319202
v -0.080859 0.000918 0.252433
v -0.080859 0.000918 0.319202
v -0.080859 -0.000541 0.387640
v -0.080859 0.000918 0.320871
v -0.080859 0.000918 0.387640
v -0.080859 0.000918 0.935143
v -0.080859 0.000918 0.868375
v -0.080859 -0.000541 0.936812
v -0.080859 0.000918 1.003581
v -0.080859 0.000918 0.936812
v -0.080859 0.000918 0.936812
v 0.035874 -0.000541 1.001664
v 0.035874 0.000918 1.001664
v -0.080859 -0.000541 0.936812
v 0.035874 0.000918 0.201043
v -0.080859 -0.004918 0.201043
v 0.050466 -0.004918 0.201043
v -0.080859 0.000918 0.201043
v 0.035874 0.000918 0.315615
v -0.018724 0.000918 0.259738
v -0.014948 0.000918 0.260235
v -0.080859 0.000918 0.250764
v -0.022243 0.000918 0.258280
v -0.025265 0.000918 0.255962
v -0.027584 0.000918 0.252940
v -0.029042 0.000918 0.249420
v -0.080859 0.000918 0.201043
v -0.029539 0.000918 0.245644
v -0.029042 0.000918 0.241867
v -0.027584 0.000918 0.238348
v -0.025265 0.000918 0.235326
v -0.022243 0.000918 0.233007
v -0.018724 0.000918 0.231549
v -0.014948 0.000918 0.231052
v -0.002311 0.000918 0.252940
v 0.035874 0.000918 0.201043
v -0.004630 0.000918 0.255962
v -0.007652 0.000918 0.258280
v -0.011171 0.000918 0.259738
v -0.000853 0.000918 0.249420
v -0.000356 0.000918 0.245644
v -0.000853 0.000918 0.241867
v -0.002311 0.000918 0.238348
v -0.004630 0.000918 0.235326
v -0.007652 0.000918 0.233007
v -0.011171 0.000918 0.231549
v 0.035874 -0.000541 0.315615
v 0.035874 0.000918 0.317284
v 0.035874 -0.000541 0.317284
v 0.035874 0.000918 0.315615
v -0.080859 0.000918 0.319202
v 0.035874 0.000918 0.317284
v 0.035874 0.000918 0.384053
v -0.080859 0.000918 0.252433
v 0.035874 -0.000541 0.384053
v 0.035874 0.000918 0.385723
v 0.035874 -0.000541 0.385723
v 0.035874 0.000918 0.384053
v -0.080859 0.000918 0.387640
v 0.035874 0.000918 0.385723
v 0.035874 0.000918 0.452491
v -0.080859 0.000918 0.320871
v 0.035874 -0.000541 0.452491
v 0.035874 0.000918 0.454160
v 0.035874 -0.000541 0.454160
v 0.035874 0.000918 0.452491
v -0.080859 0.000918 0.456077
v 0.035874 0.000918 0.454160
v 0.035874 0.000918 0.520929
v -0.080859 0.000918 0.389309
v 0.035874 -0.000541 0.520929
v 0.035874 0.000918 0.522598
v 0.035874 -0.000541 0.522598
v 0.035874 0.000918 0.520929
v -0.080859 0.000918 0.524515
v 0.035874 0.000918 0.522598
v 0.035874 0.000918 0.589367
v -0.080859 0.000918 0.457747
v 0.035874 -0.000541 0.589367
v 0.035874 0.000918 0.591036
v 0.035874 -0.000541 0.591036
v 0.035874 0.000918 0.589367
v -0.080859 0.000918 0.592954
v 0.035874 0.000918 0.591036
v 0.035874 0.000918 0.657805
v -0.080859 0.000918 0.526185
v 0.035874 -0.000541 0.657805
v 0.035874 0.000918 0.659474
v 0.035874 -0.000541 0.659474
v 0.035874 0.000918 0.657805
v -0.080859 0.000918 0.661392
v 0.035874 0.000918 0.659474
v 0.035874 0.000918 0.726243
v -0.080859 0.000918 0.594623
v 0.035874 -0.000541 0.726243
v 0.035874 0.000918 0.727912
v 0.035874 -0.000541 0.727912
v 0.035874 0.000918 0.726243
v -0.080859 0.000918 0.729829
v 0.035874 0.000918 0.727912
v 0.035874 0.000918 0.794681
v -0.080859 0.000918 0.663060
v 0.035874 -0.000541 0.794681
v 0.035874 0.000918 0.796350
v 0.035874 -0.000541 0.796350
v 0.035874 0.000918 0.794681
v -0.080859 0.000918 0.798267
v 0.035874 0.000918 0.796350
v 0.035874 0.000918 0.863119
v -0.080859 0.000918 0.731499
v 0.035874 -0.000541 0.863119
v 0.035874 0.000918 0.864788
v 0.035874 -0.000541 0.864788
v 0.035874 0.000918 0.863119
v -0.080859 0.000918 0.866705
v 0.035874 0.000918 0.864788
v 0.035874 0.000918 0.931557
v -0.080859 0.000918 0.799937
v 0.035874 -0.000541 0.931557
v 0.035874 0.000918 0.933226
v 0.035874 -0.000541 0.933226
v 0.035874 0.000918 0.931557
v -0.080859 0.000918 0.935143
v 0.035874 0.000918 0.933226
v 0.035874 0.000918 0.999995
v -0.080859 0.000918 0.868375
v 0.035874 0.000918 0.999995
v 0.035874 -0.000541 1.001664
v 0.035874 -0.000541 0.999995
v 0.035874 0.000918 1.001664
v -0.080859 -0.000541 0.250764
v 0.035874 0.000918 0.315615
v 0.035874 -0.000541 0.315615
v -0.080859 0.000918 0.250764
v -0.080859 -0.000541 0.252433
v 0.035874 -0.000541 0.315615
v 0.035874 -0.000541 0.317284
v -0.080859 -0.000541 0.250764
v -0.080859 0.000918 0.252433
v 0.035874 -0.000541 0.317284
v 0.035874 0.000918 0.317284
v -0.080859 -0.000541 0.252433
v -0.080859 -0.000541 0.319202
v 0.035874 0.000918 0.384053
v 0.035874 -0.000541 0.384053
v -0.080859 0.000918 0.319202
v -0.080859 -0.000541 0.320871
v 0.035874 -0.000541 0.384053
v 0.035874 -0.000541 0.385723
v -0.080859 -0.000541 0.319202
v -0.080859 0.000918 0.320871
v 0.035874 -0.000541 0.385723
v 0.035874 0.000918 0.385723
v -0.080859 -0.000541 0.320871
v -0.080859 -0.000541 0.387640
v 0.035874 0.000918 0.452491
v 0.035874 -0.000541 0.452491
v -0.080859 0.000918 0.387640
v -0.080859 -0.000541 0.389309
v 0.035874 -0.000541 0.452491
v 0.035874 -0.000541 0.454160
v -0.080859 -0.000541 0.387640
v -0.080859 0.000918 0.389309
v 0.035874 -0.000541 0.454160
v 0.035874 0.000918 0.454160
v -0.080859 -0.000541 0.389309
v -0.080859 -0.000541 0.456077
v 0.035874 0.000918 0.520929
v 0.035874 -0.000541 0.520929
v -0.080859 0.000918 0.456077
v -0.080859 -0.000541 0.457747
v 0.035874 -0.000541 0.520929
v 0.035874 -0.000541 0.522598
v -0.080859 -0.000541 0.456077
v -0.080859 0.000918 0.457747
v 0.035874 -0.000541 0.522598
v 0.035874 0.000918 0.522598
v -0.080859 -0.000541 0.457747
v -0.080859 -0.000541 0.524515
v 0.035874 0.000918 0.589367
v 0.035874 -0.000541 0.589367
v -0.080859 0.000918 0.524515
v -0.080859 -0.000541 0.526185
v 0.035874 -0.000541 0.589367
v 0.035874 -0.000541 0.591036
v -0.080859 -0.000541 0.524515
v -0.080859 0.000918 0.526185
v 0.035874 -0.000541 0.591036
v 0.035874 0.000918 0.591036
v -0.080859 -0.000541 0.526185
v -0.080859 -0.000541 0.592954
v 0.035874 0.000918 0.657805
v 0.035874 -0.000541 0.657805
v -0.080859 0.000918 0.592954
v -0.080859 -0.000541 0.594623
v 0.035874 -0.000541 0.657805
v 0.035874 -0.000541 0.659474
v -0.080859 -0.000541 0.592954
v -0.080859 0.000918 0.594623
v 0.035874 -0.000541 0.659474
v 0.035874 0.000918 0.659474
v -0.080859 -0.000541 0.594623
v -0.080859 -0.000541 0.661392
v 0.035874 0.000918 0.726243
v 0.035874 -0.000541 0.726243
v -0.080859 0.000918 0.661392
v -0.080859 -0.000541 0.663060
v 0.035874 -0.000541 0.726243
v 0.035874 -0.000541 0.727912
v -0.080859 -0.000541 0.661392
v -0.080859 0.000918 0.663060
v 0.035874 -0.000541 0.727912
v 0.035874 0.000918 0.727912
v -0.080859 -0.000541 0.663060
v -0.080859 -0.000541 0.729829
v 0.035874 0.000918 0.794681
v 0.035874 -0.000541 0.794681
v -0.080859 0.000918 0.729829
v -0.080859 -0.000541 0.731499
v 0.035874 -0.000541 0.794681
v 0.035874 -0.000541 0.796350
v -0.080859 -0.000541 0.729829
v -0.080859 0.000918 0.731499
v 0.035874 -0.000541 0.796350
v 0.035874 0.000918 0.796350
v -0.080859 -0.000541 0.731499
v -0.080859 -0.000541 0.798267
v 0.035874 0.000918 0.863119
v 0.035874 -0.000541 0.863119
v -0.080859 0.000918 0.798267
v -0.080859 -0.000541 0.799937
v 0.035874 -0.000541 0.863119
v 0.035874 -0.000541 0.864788
v -0.080859 -0.000541 0.798267
v -0.080859 0.000918 0.799937
v 0.035874 -0.000541 0.864788
v 0.035874 0.000918 0.864788
v -0.080859 -0.000541 0.799937
v -0.080859 -0.000541 0.866705
v 0.035874 0.000918 0.931557
v 0.035874 -0.000541 0.931557
v -0.080859 0.000918 0.866705
v -0.080859 -0.000541 0.868375
v 0.035874 -0.000541 0.931557
v 0.035874 -0.000541 0.933226
v -0.080859 -0.000541 0.866705
v -0.080859 0.000918 0.868375
v 0.035874 -0.000541 0.933226
v 0.035874 0.000918 0.933226
v -0.080859 -0.000541 0.868375
v -0.080859 -0.000541 0.935143
v 0.035874 0.000918 0.999995
v 0.035874 -0.000541 0.999995
v -0.080859 0.000918 0.935143
v -0.080859 -0.000541 0.936812
v 0.035874 -0.000541 0.999995
v 0.035874 -0.000541 1.001664
v -0.080859 -0.000541 0.935143
vn 0.48564289721636783 0 -0.8741572949894616
vn 0 -1 0
vn 0.37139069359548266 0.9284766839887075 0
vn 1 0 0
vn -0.48564289721636783 0 0.8741572949894616
vn 0 0 1
usemtl material_0_0
f 1//1 2//1 3//1
f 2//1 1//1 4//1
f 5//2 6//2 7//2
f 6//2 5//2 8//2
f 9//3 10//3 11//3
f 10//3 9//3 12//3
f 12//3 9//3 13//3
f 13//3 9//3 14//3
f 14//3 9//3 15//3
f 15//3 9//3 16//3
f 16//3 9//3 17//3
f 17//3 9//3 18//3
f 18//3 9//3 19//3
f 19//3 9//3 20//3
f 20//3 9//3 21//3
f 21//3 9//3 22//3
f 22//3 9//3 23//3
f 23//3 9//3 24//3
f 24//3 9//3 25//3
f 25//3 9//3 26//3
f 26//3 9//3 27//3
f 27//3 9//3 28//3
f 28//3 9//3 29//3
f 29//3 9//3 30//3
f 30//3 9//3 31//3
f 31//3 9//3 32//3
f 32//3 9//3 33//3
f 33//3 9//3 34//3
f 35//2 36//2 37//2
f 36//2 35//2 38//2
f 38//2 35//2 39//2
f 39//2 35//2 40//2
f 39//2 40//2 41//2
f 41//2 40//2 42//2
f 42//2 40//2 43//2
f 43//2 40//2 44//2
f 44//2 40//2 45//2
f 45//2 40//2 46//2
f 46//2 40//2 47//2
f 47//2 40//2 48//2
f 48//2 40//2 49//2
f 35//2 50//2 51//2
f 50//2 35//2 52//2
f 52//2 35//2 53//2
f 53//2 35//2 54//2
f 54//2 35//2 37//2
f 50//2 52//2 55//2
f 50//2 55//2 56//2
f 50//2 56//2 57//2
f 50//2 57//2 58//2
f 50//2 58//2 59//2
f 50//2 59//2 60//2
f 50//2 60//2 61//2
f 50//2 61//2 62//2
f 50//2 62//2 49//2
f 50//2 49//2 40//2
f 63//4 64//4 65//4
f 64//4 63//4 66//4
f 65//4 64//4 67//4
f 65//4 67//4 68//4
f 68//4 67//4 69//4
f 64//4 66//4 70//4
f 67//4 71//4 69//4
f 71//4 67//4 72//4
f 71//4 72//4 73//4
f 71//4 73//4 74//4
f 74//4 73//4 75//4
f 75//4 73//4 76//4
f 75//4 76//4 77//4
f 74//4 78//4 79//4
f 78//4 74//4 80//4
f 80//4 74//4 81//4
f 80//4 81//4 82//4
f 78//4 83//4 84//4
f 83//4 78//4 85//4
f 83//4 85//4 86//4
f 84//4 87//4 88//4
f 87//4 84//4 89//4
f 87//4 89//4 90//4
f 88//4 91//4 92//4
f 91//4 88//4 93//4
f 91//4 93//4 94//4
f 79//4 92//4 95//4
f 92//4 79//4 78//4
f 92//4 78//4 84//4
f 92//4 84//4 88//4
f 95//4 92//4 96//4
f 95//4 96//4 97//4
f 71//4 79//4 98//4
f 79//4 71//4 74//4
f 98//4 79//4 99//4
f 67//4 100//4 72//4
f 100//4 67//4 101//4
f 100//4 101//4 102//4
f 72//4 103//4 73//4
f 103//4 72//4 104//4
f 103//4 104//4 105//4
f 69//4 106//4 68//4
f 106//4 69//4 107//4
f 65//4 108//4 109//4
f 108//4 65//4 68//4
f 109//4 108//4 110//4
f 111//5 112//5 113//5
f 112//5 111//5 114//5
f 115//6 116//6 117//6
f 116//6 115//6 118//6
f 119//2 120//2 121//2
f 120//2 119//2 122//2
f 120//2 122//2 123//2
f 123//2 122//2 124//2
f 124//2 122//2 125//2
f 125//2 122//2 126//2
f 126//2 122//2 127//2
f 126//2 127//2 128//2
f 128//2 127//2 129//2
f 129//2 127//2 130//2
f 130//2 127//2 131//2
f 131//2 127//2 132//2
f 132//2 127//2 133//2
f 133//2 127//2 134//2
f 119//2 135//2 136//2
f 135//2 119//2 137//2
f 137//2 119//2 138//2
f 138//2 119//2 139//2
f 139//2 119//2 121//2
f 136//2 135//2 140//2
f 136//2 140//2 141//2
f 136//2 141//2 142//2
f 136//2 142//2 143//2
f 136//2 143//2 144//2
f 136//2 144//2 145//2
f 136//2 145//2 146//2
f 136//2 146//2 134//2
f 136//2 134//2 127//2
f 147//4 148//4 149//4
f 148//4 147//4 150//4
f 151//2 152//2 153//2
f 152//2 151//2 154//2
f 155//4 156//4 157//4
f 156//4 155//4 158//4
f 159//2 160//2 161//2
f 160//2 159//2 162//2
f 163//4 164//4 165//4
f 164//4 163//4 166//4
f 167//2 168//2 169//2
f 168//2 167//2 170//2
f 171//4 172//4 173//4
f 172//4 171//4 174//4
f 175//2 176//2 177//2
f 176//2 175//2 178//2
f 179//4 180//4 181//4
f 180//4 179//4 182//4
f 183//2 184//2 185//2
f 184//2 183//2 186//2
f 187//4 188//4 189//4
f 188//4 187//4 190//4
f 191//2 192//2 193//2
f 192//2 191//2 194//2
f 195//4 196//4 197//4
f 196//4 195//4 198//4
f 199//2 200//2 201//2
f 200//2 199//2 202//2
f 203//4 204//4 205//4
f 204//4 203//4 206//4
f 207//2 208//2 209//2
f 208//2 207//2 210//2
f 211//4 212//4 213//4
f 212//4 211//4 214//4
f 215//2 216//2 217//2
f 216//2 215//2 218//2
f 219//4 220//4 221//4
f 220//4 219//4 222//4
f 223//2 224//2 225//2
f 224//2 223//2 226//2
f 227//4 228//4 229//4
f 228//4 227//4 230//4
f 231//1 232//1 233//1
f 232//1 231//1 234//1
f 235//2 236//2 237//2
f 236//2 235//2 238//2
f 239//5 240//5 241//5
f 240//5 239//5 242//5
f 243//1 244//1 245//1
f 244//1 243//1 246//1
f 247//2 248//2 249//2
f 248//2 247//2 250//2
f 251//5 252//5 253//5
f 252//5 251//5 254//5
f 255//1 256//1 257//1
f 256//1 255//1 258//1
f 259//2 260//2 261//2
f 260//2 259//2 262//2
f 263//5 264//5 265//5
f 264//5 263//5 266//5
f 267//1 268//1 269//1
f 268//1 267//1 270//1
f 271//2 272//2 273//2
f 272//2 271//2 274//2
f 275//5 276//5 277//5
f 276//5 275//5 278//5
f 279//1 280//1 281//1
f 280//1 279//1 282//1
f 283//2 284//2 285//2
f 284//2 283//2 286//2
f 287//5 288//5 289//5
f 288//5 287//5 290//5
f 291//1 292//1 293//1
f 292//1 291//1 294//1
f 295//2 296//2 297//2
f 296//2 295//2 298//2
f 299//5 300//5 301//5
f 300//5 299//5 302//5
f 303//1 304//1 305//1
f 304//1 303//1 306//1
f 307//2 308//2 309//2
f 308//2 307//2 310//2
f 311//5 312//5 313//5
f 312//5 311//5 314//5
f 315//1 316//1 317//1
f 316//1 315//1 318//1
f 319//2 320//2 321//2
f 320//2 319//2 322//2
f 323//5 324//5 325//5
f 324//5 323//5 326//5
f 327//1 328//1 329//1
f 328//1 327//1 330//1
f 331//2 332//2 333//2
f 332//2 331//2 334//2
f 335//5 336//5 337//5
f 336//5 335//5 338//5
f 339//1 340//1 341//1
f 340//1 339//1 342//1
f 343//2 344//2 345//2
f 344//2 343//2 346//2
f 347//5 348//5 349//5
f 348//5 347//5 350//5
f 351//1 352//1 353//1
f 352//1 351//1 354//1
f 355//2 356//2 357//2
f 356//2 355//2 358//2
