# SSTK version 0.8.0
# 6
mtllib original-6.mtl
o #ID5
v 0.090106 0.043255 -0.737380
v 0.090106 0.043255 -0.736939
v 0.087611 0.043255 -0.736939
v 0.070221 0.043255 -0.736942
v 0.090106 -0.029703 -0.736939
v 0.090106 -0.040808 -0.736939
v 0.090106 -0.013673 -0.736939
v 0.090106 0.000918 -0.736939
v 0.090106 0.043255 -0.736939
v 0.087611 0.043255 -0.736939
v 0.090106 0.043255 -0.904114
v 0.090106 0.000918 -0.736939
v 0.090106 0.000918 -0.904114
v 0.090106 0.043255 -0.736939
v 0.090106 0.043255 -0.737380
v 0.090106 -0.013673 -0.904114
v 0.090106 -0.029703 -0.894582
v 0.090106 -0.029703 -0.904114
v 0.090106 -0.029703 -0.736939
v 0.090106 -0.013673 -0.736939
v 0.089849 0.043255 -0.907508
v 0.089849 0.000918 -0.907508
v 0.089849 -0.013673 -0.907508
v 0.089849 -0.029703 -0.907508
v 0.102322 -0.029703 -0.904575
v 0.090106 -0.029703 -0.894582
v 0.102322 -0.029703 -0.894582
v 0.090106 -0.029703 -0.904114
v 0.089849 -0.029703 -0.907508
v 0.101961 -0.029703 -0.909353
v 0.089442 -0.029703 -0.909274
v 0.088773 -0.029703 -0.910959
v 0.101138 -0.029703 -0.912921
v 0.087859 -0.029703 -0.912524
v 0.086719 -0.029703 -0.913933
v 0.099787 -0.029703 -0.916324
v 0.085381 -0.029703 -0.915155
v 0.083873 -0.029703 -0.916161
v 0.082232 -0.029703 -0.916929
v 0.097940 -0.029703 -0.919486
v 0.080493 -0.029703 -0.917441
v 0.078697 -0.029703 -0.917686
v 0.082195 -0.029703 -0.929675
v 0.082157 -0.029703 -0.929544
v 0.083058 -0.029703 -0.929421
v 0.073620 -0.029703 -0.917107
v 0.051418 -0.029703 -0.915315
v 0.052732 -0.029703 -0.911844
v 0.048406 -0.029703 -0.923269
v 0.076885 -0.029703 -0.917657
v 0.095637 -0.029703 -0.922333
v 0.092933 -0.029703 -0.924801
v 0.049065 -0.029703 -0.923518
v 0.071109 -0.029703 -0.929073
v 0.089887 -0.029703 -0.926835
v 0.086570 -0.029703 -0.928386
v 0.075768 -0.029703 -0.929857
v 0.079430 -0.029703 -0.929915
v 0.089442 0.043255 -0.909274
v 0.089442 0.000918 -0.909274
v 0.089442 -0.013673 -0.909274
v 0.089442 -0.029703 -0.909274
v 0.052732 -0.029703 -0.911844
v 0.073620 -0.013673 -0.917107
v 0.073620 -0.029703 -0.917107
v 0.052732 -0.013673 -0.911844
v 0.073620 -0.029703 -0.917107
v 0.076885 -0.013673 -0.917657
v 0.076885 -0.029703 -0.917657
v 0.073620 -0.013673 -0.917107
v 0.078697 -0.013673 -0.917686
v 0.078697 -0.029703 -0.917686
v 0.080493 -0.013673 -0.917441
v 0.080493 -0.029703 -0.917441
v 0.080493 -0.029703 -0.917441
v 0.082232 -0.013673 -0.916929
v 0.082232 -0.029703 -0.916929
v 0.080493 -0.013673 -0.917441
v 0.078744 -0.029703 -0.917957
v 0.078744 -0.013673 -0.917957
v 0.083873 -0.013673 -0.916161
v 0.083873 -0.029703 -0.916161
v 0.085381 -0.013673 -0.915155
v 0.085381 -0.029703 -0.915155
v 0.086719 -0.013673 -0.913933
v 0.086719 -0.029703 -0.913933
v 0.087859 -0.029703 -0.912524
v 0.087859 -0.013673 -0.912524
v 0.088773 -0.029703 -0.910959
v 0.088773 -0.013673 -0.910959
v 0.079430 -0.029703 -0.929915
v 0.082157 -0.029703 -0.929544
v 0.082195 -0.029703 -0.929675
v 0.070221 -0.058886 -0.894582
v 0.082157 -0.029703 -0.929544
v 0.079430 -0.029703 -0.929915
v 0.083058 -0.029703 -0.929421
v 0.088773 0.043255 -0.910959
v 0.088773 0.000918 -0.910959
v 0.033280 -0.029703 -0.904479
v 0.033280 -0.013673 -0.904479
v 0.087859 0.043255 -0.912524
v 0.087859 0.000918 -0.912524
v 0.014802 -0.029703 -0.894927
v 0.014802 -0.013673 -0.894927
v 0.086719 0.043255 -0.913933
v 0.086719 0.000918 -0.913933
v -0.002457 -0.029703 -0.883317
v -0.002457 -0.013673 -0.883317
v 0.085381 0.000918 -0.915155
v 0.085381 0.043255 -0.915155
v -0.018267 -0.029703 -0.869800
v -0.018267 -0.013673 -0.869800
v 0.083873 0.000918 -0.916161
v 0.083873 0.043255 -0.916161
v -0.032420 -0.013673 -0.854557
v -0.032420 -0.029703 -0.854557
v 0.082232 0.000918 -0.916929
v 0.082232 0.043255 -0.916929
v -0.044728 -0.013673 -0.837789
v -0.044728 -0.029703 -0.837789
v 0.080493 0.000918 -0.917441
v 0.080493 0.043255 -0.917441
v 0.078744 0.000918 -0.917957
v 0.078744 0.043255 -0.917957
v -0.055029 -0.013673 -0.819718
v -0.055029 -0.029703 -0.819718
v -0.063185 -0.013673 -0.800583
v -0.063185 -0.029703 -0.800583
v -0.069090 -0.013673 -0.780638
v -0.069090 -0.029703 -0.780638
v -0.072664 -0.013673 -0.760147
v -0.072664 -0.029703 -0.760147
v -0.073563 -0.013673 -0.744547
v -0.073563 -0.029703 -0.744547
v -0.073904 -0.013673 -0.738630
v -0.073959 -0.029703 -0.737667
v -0.074000 -0.029703 -0.736964
v -0.073563 -0.029703 -0.744547
v -0.073563 -0.013673 -0.744547
v -0.073662 -0.013673 -0.742832
v -0.073959 -0.029703 -0.737667
v -0.086196 -0.029703 -0.737667
v -0.074000 -0.029703 -0.736964
v -0.077676 -0.029703 -0.737667
v -0.073904 -0.013673 -0.738630
v -0.074000 -0.029703 -0.736964
v -0.074000 -0.013673 -0.736964
v -0.073563 -0.029703 -0.744547
v -0.077676 -0.029703 -0.737667
v -0.073959 -0.029703 -0.737667
v -0.086196 -0.029703 -0.737667
v -0.077268 -0.029703 -0.744760
v -0.085759 -0.029703 -0.745250
v -0.086196 -0.029703 -0.737667
v -0.074000 -0.013673 -0.736964
v -0.074000 -0.029703 -0.736964
v -0.074000 0.000918 -0.736964
v -0.074000 0.043255 -0.736964
v -0.086196 0.043255 -0.737667
v -0.095153 -0.027344 -0.738183
v -0.095153 0.040896 -0.738183
v -0.104329 -0.021715 -0.738712
v -0.104329 0.035267 -0.738712
v -0.111503 -0.013673 -0.739126
v -0.111503 0.027226 -0.739126
v -0.116065 -0.003901 -0.739388
v -0.116065 0.017453 -0.739388
v -0.117630 0.006776 -0.739479
v -0.086196 -0.029703 -0.737667
v -0.074000 -0.029703 -0.736964
v -0.050278 -0.058886 -0.739381
v -0.074000 -0.029703 -0.736964
v -0.074000 0.043255 -0.736964
v -0.050278 -0.058886 -0.739381
v -0.074000 -0.013673 -0.736964
v -0.074000 0.000918 -0.736964
v -0.074000 0.000918 -0.736964
v -0.073563 0.043255 -0.744547
v -0.073816 0.000918 -0.740147
v -0.074000 0.043255 -0.736964
v -0.086196 -0.029703 -0.737667
v -0.050278 -0.058886 -0.739381
v -0.053763 -0.058886 -0.739381
v -0.074000 0.043255 -0.736964
v -0.050278 0.043255 -0.736961
v -0.050278 -0.058886 -0.739381
v -0.073816 0.000918 -0.740147
v -0.073563 0.000918 -0.744547
v -0.073662 0.000918 -0.742832
v -0.073563 0.043255 -0.744547
v -0.050278 0.043255 -0.736961
v -0.050278 -0.058886 -0.739381
v -0.050278 0.043255 -0.739381
v -0.073563 0.043255 -0.744547
v -0.072664 0.000918 -0.760147
v -0.073563 0.000918 -0.744547
v -0.072664 0.043255 -0.760147
v -0.050278 0.043255 -0.739381
v 0.035874 -0.058886 -0.739381
v 0.035874 0.043255 -0.739381
v 0.023399 -0.058886 -0.739381
v -0.050278 -0.058886 -0.739381
v -0.069090 0.000918 -0.780638
v -0.069090 0.043255 -0.780638
v 0.035874 -0.029703 -0.738221
v 0.035874 -0.058886 -0.739381
v 0.035874 -0.058886 -0.738731
v 0.035874 0.043255 -0.739381
v 0.035874 0.043255 -0.736948
v -0.063185 0.000918 -0.800583
v -0.063185 0.043255 -0.800583
v -0.055029 0.000918 -0.819718
v -0.055029 0.043255 -0.819718
v -0.044728 0.000918 -0.837789
v -0.044728 0.043255 -0.837789
v -0.032420 0.000918 -0.854557
v -0.032420 0.043255 -0.854557
v -0.018267 0.000918 -0.869800
v -0.018267 0.043255 -0.869800
v -0.002457 0.043255 -0.883317
v -0.002457 0.000918 -0.883317
v 0.014802 0.043255 -0.894927
v 0.014802 0.000918 -0.894927
v 0.033280 0.043255 -0.904479
v 0.033280 0.000918 -0.904479
v 0.052732 0.043255 -0.911844
v 0.052732 0.000918 -0.911844
v 0.073620 0.043255 -0.917107
v 0.073620 0.000918 -0.917107
v 0.073620 0.000918 -0.917107
v 0.076885 0.043255 -0.917657
v 0.076885 0.000918 -0.917657
v 0.073620 0.043255 -0.917107
v 0.078697 0.043255 -0.917686
v 0.078697 0.000918 -0.917686
v 0.080493 0.043255 -0.917441
v 0.080493 0.000918 -0.917441
vn 0 -1 0
vn 0.00014615649843855954 0.0000022293049761835633 -0.999999989316654
vn 0.9992866150510468 0 -0.03776587056882167
vn 1 0 0
vn 0.9886061879348277 0 -0.15052509816295784
vn 0 1 0
vn 0.954684386860025 0 -0.2976200959036508
vn -0.2997159000711735 0 -0.9540285002265532
vn -0.244332291212119 0 -0.9696915651231769
vn -0.1660739016027709 0 -0.9861133095169303
vn -0.09117048986447827 0 -0.9958352985197257
vn 0.059766509066705914 0 -0.9982123844122448
vn 0.1349390010210693 0 -0.9908539074976875
vn 0.2825499004807912 0 -0.9592526016322787
vn 0.35414619041814105 0 -0.9351900746972872
vn 0.49088077622986476 0 -0.8712267578122045
vn 0.6164292807536665 0 -0.7874102754152484
vn 0.7279308018675065 0 -0.6856506017590366
vn 0.822844500059323 0 -0.5682666000409692
vn 0.8990075708122048 0 -0.4379330857817647
vn -0.08461632909564272 0.7789619916746572 0.6213358933593239
vn -0.4073241754401187 0 -0.9132836449329568
vn -0.5095396030684475 0 -0.8604472051816131
vn -0.6050089038391143 0 -0.7962187050524457
vn -0.6924680973444332 0 -0.7214484972332955
vn -0.7707591811887746 0 -0.6371265844502251
vn -0.8388456818847166 0 -0.5443692882440786
vn -0.8958261274018436 0 -0.44440471359360717
vn -0.9409461004299323 0 -0.33855640015469146
vn -0.9736082774491637 0 -0.22822559471381032
vn -0.993380151917953 0 -0.11487329443984952
vn -0.9983436674796663 0 -0.05753191812593876
vn 0.05753191812593876 0 -0.9983436674796663
vn 0.05705587883942455 0.12837569738870583 -0.9900829798606905
vn -0.10136360465840175 0 -0.9948494457206352
vn 0 0.05863569279674272 -0.998279447614868
vn 0.00015254990085714873 0.023691490133117953 -0.9997193056172318
vn 0 0 1
vn -1 0 0
usemtl material_0_0
f 1//1 2//1 3//1
f 4//2 5//2 6//2
f 5//2 4//2 7//2
f 7//2 4//2 8//2
f 8//2 4//2 9//2
f 9//2 4//2 10//2
f 11//3 12//4 13//3
f 12//4 11//3 14//4
f 14//4 11//3 15//4
f 16//3 17//4 18//3
f 17//4 16//3 19//4
f 19//4 16//3 20//4
f 21//5 13//3 22//5
f 13//3 21//5 11//3
f 23//5 18//3 24//5
f 18//3 23//5 16//3
f 25//6 26//6 27//6
f 26//6 25//6 28//6
f 28//6 25//6 29//6
f 29//6 25//6 30//6
f 29//6 30//6 31//6
f 31//6 30//6 32//6
f 32//6 30//6 33//6
f 32//6 33//6 34//6
f 34//6 33//6 35//6
f 35//6 33//6 36//6
f 35//6 36//6 37//6
f 37//6 36//6 38//6
f 38//6 36//6 39//6
f 39//6 36//6 40//6
f 39//6 40//6 41//6
f 41//6 40//6 42//6
f 43//6 44//6 45//6
f 46//6 47//6 48//6
f 47//6 46//6 49//6
f 49//6 46//6 50//6
f 49//6 50//6 42//6
f 49//6 42//6 40//6
f 49//6 40//6 51//6
f 49//6 51//6 52//6
f 49//6 52//6 53//6
f 53//6 52//6 54//6
f 54//6 52//6 55//6
f 54//6 55//6 56//6
f 54//6 56//6 45//6
f 54//6 45//6 57//6
f 57//6 45//6 44//6
f 57//6 44//6 58//6
f 59//7 22//5 60//7
f 22//5 59//7 21//5
f 61//7 24//5 62//7
f 24//5 61//7 23//5
f 63//8 64//9 65//9
f 64//9 63//8 66//8
f 67//10 68//11 69//11
f 68//11 67//10 70//10
f 69//11 71//12 72//12
f 71//12 69//11 68//11
f 72//12 73//13 74//13
f 73//13 72//12 71//12
f 75//14 76//15 77//15
f 76//15 75//14 78//14
f 78//14 75//14 79//14
f 78//14 79//14 80//14
f 77//15 81//16 82//16
f 81//16 77//15 76//15
f 82//16 83//17 84//17
f 83//17 82//16 81//16
f 84//17 85//18 86//18
f 85//18 84//17 83//17
f 85//18 87//19 86//18
f 87//19 85//18 88//19
f 88//19 89//20 87//19
f 89//20 88//19 90//20
f 90//20 62//7 89//20
f 62//7 90//20 61//7
f 91//6 92//6 93//6
f 94//21 95//21 96//21
f 95//21 94//21 97//21
f 98//20 60//7 99//20
f 60//7 98//20 59//7
f 100//22 66//8 63//8
f 66//8 100//22 101//22
f 102//19 99//20 103//19
f 99//20 102//19 98//20
f 104//23 101//22 100//22
f 101//22 104//23 105//23
f 106//18 103//19 107//18
f 103//19 106//18 102//19
f 108//24 105//23 104//23
f 105//23 108//24 109//24
f 110//17 106//18 107//18
f 106//18 110//17 111//17
f 112//25 109//24 108//24
f 109//24 112//25 113//25
f 114//16 111//17 110//17
f 111//17 114//16 115//16
f 116//26 112//25 117//26
f 112//25 116//26 113//25
f 118//15 115//16 114//16
f 115//16 118//15 119//15
f 120//27 117//26 121//27
f 117//26 120//27 116//26
f 122//14 119//15 118//15
f 119//15 122//14 123//14
f 123//14 122//14 124//14
f 123//14 124//14 125//14
f 126//28 121//27 127//28
f 121//27 126//28 120//27
f 128//29 127//28 129//29
f 127//28 128//29 126//28
f 130//30 129//29 131//30
f 129//29 130//30 128//29
f 132//31 131//30 133//31
f 131//30 132//31 130//30
f 134//32 133//31 135//32
f 133//31 134//32 132//31
f 136//32 137//32 138//32
f 137//32 136//32 139//32
f 139//32 136//32 140//32
f 140//32 136//32 141//32
f 142//6 143//6 144//6
f 143//6 142//6 145//6
f 146//32 147//32 148//32
f 149//6 150//6 151//6
f 150//6 149//6 152//6
f 152//6 149//6 153//6
f 152//6 153//6 154//6
f 155//33 156//33 157//33
f 156//33 155//33 158//33
f 158//33 155//33 159//33
f 159//33 155//33 160//33
f 160//33 155//33 161//33
f 160//33 161//33 162//33
f 162//33 161//33 163//33
f 162//33 163//33 164//33
f 164//33 163//33 165//33
f 164//33 165//33 166//33
f 166//33 165//33 167//33
f 166//33 167//33 168//33
f 168//33 167//33 169//33
f 170//34 171//34 172//34
f 173//35 174//35 175//35
f 174//35 173//35 176//35
f 174//35 176//35 177//35
f 178//32 179//32 180//32
f 179//32 178//32 181//32
f 182//36 183//36 184//36
f 185//37 186//37 187//37
f 188//32 189//32 190//32
f 189//32 188//32 191//32
f 192//4 193//4 194//4
f 195//32 196//31 197//32
f 196//31 195//32 198//31
f 199//38 200//38 201//38
f 200//38 199//38 202//38
f 202//38 199//38 203//38
f 198//31 204//30 196//31
f 204//30 198//31 205//30
f 206//39 207//39 208//39
f 207//39 206//39 209//39
f 209//39 206//39 210//39
f 205//30 211//29 204//30
f 211//29 205//30 212//29
f 212//29 213//28 211//29
f 213//28 212//29 214//28
f 214//28 215//27 213//28
f 215//27 214//28 216//27
f 216//27 217//26 215//27
f 217//26 216//27 218//26
f 218//26 219//25 217//26
f 219//25 218//26 220//25
f 219//25 221//24 222//24
f 221//24 219//25 220//25
f 222//24 223//23 224//23
f 223//23 222//24 221//24
f 224//23 225//22 226//22
f 225//22 224//23 223//23
f 226//22 227//8 228//8
f 227//8 226//22 225//22
f 228//8 229//9 230//9
f 229//9 228//8 227//8
f 231//10 232//11 233//11
f 232//11 231//10 234//10
f 233//11 235//12 236//12
f 235//12 233//11 232//11
f 236//12 237//13 238//13
f 237//13 236//12 235//12
