# SSTK version 0.8.0
# 30
mtllib original-30.mtl
o #ID161
v 0.063834 0.000918 -0.253552
v 0.064956 -0.013673 -0.259324
v 0.063834 -0.013673 -0.253552
v 0.065057 -0.013673 -0.259846
v 0.065057 0.000918 -0.259846
v 0.062413 0.000918 -0.245241
v 0.062413 -0.013673 -0.245241
v 0.061180 0.000918 -0.236900
v 0.061180 -0.013673 -0.236900
v 0.060136 0.000918 -0.228533
v 0.060136 -0.013673 -0.228533
v 0.059281 0.000918 -0.220145
v 0.059281 -0.013673 -0.220145
v 0.058615 0.000918 -0.211740
v 0.058615 -0.013673 -0.211740
v 0.058139 0.000918 -0.203322
v 0.058139 -0.013673 -0.203322
v 0.057854 0.000918 -0.194895
v 0.057854 -0.013673 -0.194895
v 0.057761 0.000918 -0.186711
v 0.057761 -0.013673 -0.186711
vn -0.9837304829270576 0 -0.17965059688210913
vn -0.9816396797810794 0 -0.19074469607121433
vn -0.9875357117129141 0 -0.15739510186682396
vn -0.9908375035003266 0 -0.13505940047712364
vn -0.9936341752070142 0 -0.11265489718905475
vn -0.9959243164660231 0 -0.09019288149119571
vn -0.9977067454086305 0 -0.0676849330805446
vn -0.9989805596056168 0 -0.0451424581746374
vn -0.999745107272411 0 -0.022576990164231012
vn -0.9999362748415467 0 -0.011289209715962843
usemtl material_0_0
f 1//1 2//2 3//1
f 2//2 1//1 4//2
f 4//2 1//1 5//2
f 6//3 3//1 7//3
f 3//1 6//3 1//1
f 8//4 7//3 9//4
f 7//3 8//4 6//3
f 10//5 9//4 11//5
f 9//4 10//5 8//4
f 12//6 11//5 13//6
f 11//5 12//6 10//5
f 14//7 13//6 15//7
f 13//6 14//7 12//6
f 16//8 15//7 17//8
f 15//7 16//8 14//7
f 18//9 17//8 19//9
f 17//8 18//9 16//8
f 20//10 19//9 21//10
f 19//9 20//10 18//9
