# SSTK version 0.8.0
# 12
mtllib original-12.mtl
o #ID45
v -0.053763 -0.029703 -0.743406
v -0.052930 -0.058886 -0.757865
v -0.053763 -0.058886 -0.743406
v -0.052930 -0.029703 -0.757865
v -0.052930 -0.029703 -0.757865
v -0.049749 -0.058886 -0.776105
v -0.052930 -0.058886 -0.757865
v -0.049749 -0.029703 -0.776105
v -0.049749 -0.029703 -0.776105
v -0.044493 -0.058886 -0.793858
v -0.049749 -0.058886 -0.776105
v -0.044493 -0.029703 -0.793858
v -0.044493 -0.029703 -0.793858
v -0.037233 -0.058886 -0.810890
v -0.044493 -0.058886 -0.793858
v -0.037233 -0.029703 -0.810890
v -0.037233 -0.029703 -0.810890
v -0.028064 -0.058886 -0.826975
v -0.037233 -0.058886 -0.810890
v -0.028064 -0.029703 -0.826975
v -0.028064 -0.029703 -0.826975
v -0.017109 -0.058886 -0.841900
v -0.028064 -0.058886 -0.826975
v -0.017109 -0.029703 -0.841900
v -0.017109 -0.029703 -0.841900
v -0.004511 -0.058886 -0.855468
v -0.017109 -0.058886 -0.841900
v -0.004511 -0.029703 -0.855468
v -0.004511 -0.058886 -0.855468
v 0.009562 -0.029703 -0.867499
v 0.009562 -0.058886 -0.867499
v -0.004511 -0.029703 -0.855468
v 0.009562 -0.058886 -0.867499
v 0.024924 -0.029703 -0.877834
v 0.024924 -0.058886 -0.877834
v 0.009562 -0.029703 -0.867499
v 0.024924 -0.058886 -0.877834
v 0.041371 -0.029703 -0.886336
v 0.041371 -0.058886 -0.886336
v 0.024924 -0.029703 -0.877834
v 0.041371 -0.058886 -0.886336
v 0.059755 -0.029703 -0.893297
v 0.059755 -0.058886 -0.893297
v 0.041371 -0.029703 -0.886336
vn -0.9983436674796663 0 -0.05753191812593876
vn -0.9851259015891954 0 -0.17183410027720106
vn -0.9588653826528789 0 -0.283861194864582
vn -0.919909810562386 0 -0.3921300045024289
vn -0.8687749009548488 0 -0.4952072005442699
vn -0.8061376930086539 0 -0.5917279948681531
vn -0.7328274403051404 0 -0.6804145374224569
vn -0.6498147886692447 0 -0.7600925867463417
vn -0.5581988172892931 0 -0.8297072256988209
vn -0.45919241596795735 0 -0.8883368308910254
vn -0.35410650134414223 0 -0.935205103549917
usemtl material_0_0
f 1//1 2//1 3//1
f 2//1 1//1 4//1
f 5//2 6//2 7//2
f 6//2 5//2 8//2
f 9//3 10//3 11//3
f 10//3 9//3 12//3
f 13//4 14//4 15//4
f 14//4 13//4 16//4
f 17//5 18//5 19//5
f 18//5 17//5 20//5
f 21//6 22//6 23//6
f 22//6 21//6 24//6
f 25//7 26//7 27//7
f 26//7 25//7 28//7
f 29//8 30//8 31//8
f 30//8 29//8 32//8
f 33//9 34//9 35//9
f 34//9 33//9 36//9
f 37//10 38//10 39//10
f 38//10 37//10 40//10
f 41//11 42//11 43//11
f 42//11 41//11 44//11
