mtllib new-4.mtl
v 0.345221 0.636869 0.373591
v 0.345221 0.611392 -0.297739
v 0.345221 0.636869 -0.297739
v 0.345221 -0.668058 -0.297739
v 0.245397 0.636869 -0.297739
v 0.345221 0.612055 -0.300879
v 0.345221 0.636869 -0.323216
v 0.345221 -0.668058 -0.194531
v -0.353048 0.611392 -0.297739
v 0.245397 0.611392 -0.297739
v 0.345221 0.613043 -0.303932
v 0.345221 0.633729 -0.322553
v 0.345221 -0.677128 -0.160337
v 0.306052 -0.668058 -0.297739
v -0.253225 0.611392 -0.297739
v 0.245397 0.612055 -0.300879
v -0.253225 0.636869 -0.297739
v 0.245397 0.636869 -0.323216
v 0.345221 0.614346 -0.306865
v -0.441993 0.636869 -0.348693
v 0.345221 0.630676 -0.321565
v 0.345221 -0.693141 -0.128791
v -0.353048 -0.668058 -0.297739
v -0.353048 0.636869 -0.297739
v -0.253225 0.612055 -0.300879
v 0.245397 0.613043 -0.303932
v 0.245397 0.633729 -0.322553
v 0.345221 0.615948 -0.309645
v 0.345221 0.627743 -0.320262
v 0.345221 -0.715390 -0.101287
v -0.353048 -0.668058 -0.194531
v -0.353048 -0.677128 -0.160337
v -0.353048 0.612055 -0.300879
v 0.245397 0.614346 -0.306865
v -0.253225 0.636869 -0.323216
v 0.245397 0.630676 -0.321565
v 0.345221 0.617834 -0.312242
v -0.353048 0.636869 0.373591
v 0.345221 0.624963 -0.318659
v 0.345221 -0.742895 -0.079037
v -0.353048 -0.693141 -0.128791
v -0.353048 0.613043 -0.303932
v -0.253225 0.613043 -0.303932
v 0.245397 0.615948 -0.309645
v -0.253225 0.633729 -0.322553
v 0.245397 0.627743 -0.320262
v -0.353048 0.636869 -0.323216
v 0.345221 0.619981 -0.314627
v -0.353048 -0.911843 0.223416
v 0.345221 0.622366 -0.316774
v 0.345221 -0.774440 -0.063024
v 0.334320 -0.742892 -0.079033
v -0.353048 0.614346 -0.306865
v -0.253225 0.614346 -0.306865
v 0.245397 0.617834 -0.312242
v -0.253225 0.630676 -0.321565
v 0.245397 0.624963 -0.318659
v 0.345221 -0.911843 0.223416
v -0.353048 -0.808635 -0.053954
v 0.345221 -0.808635 -0.053954
v 0.306052 -0.759159 -0.070781
v 0.343568 -0.742895 -0.079037
v -0.331104 -0.715405 -0.101299
v -0.353048 -0.715390 -0.101287
v -0.353048 0.633729 -0.322553
v -0.353048 0.615948 -0.309645
v -0.253225 0.615948 -0.309645
v 0.245397 0.619981 -0.314627
v -0.253225 0.627743 -0.320262
v 0.245397 0.622366 -0.316774
v 0.306052 -0.911843 0.223416
v 0.345221 -0.854560 -0.053954
v -0.353048 -0.774440 -0.063024
v -0.353048 -0.854560 -0.053954
v 0.306052 -0.774440 -0.063024
v 0.306052 -0.742895 -0.079037
v -0.353048 -0.742895 -0.079037
v -0.353048 0.630676 -0.321565
v -0.353048 0.617834 -0.312242
v -0.253225 0.617834 -0.312242
v -0.253225 0.624963 -0.318659
v 0.306052 -0.911843 -0.070781
v 0.345221 -0.911843 -0.070781
v 0.345221 -0.878886 -0.057920
v -0.353048 -0.759159 -0.070781
v 0.306052 -0.808635 -0.053954
v -0.353048 -0.878886 -0.057920
v 0.306052 -0.854560 -0.053954
v -0.324780 -0.742892 -0.079033
v -0.353048 0.627743 -0.320262
v -0.353048 0.619981 -0.314627
v -0.253225 0.619981 -0.314627
v -0.253225 0.622366 -0.316774
v -0.353048 -0.911843 -0.070781
v 0.306052 -0.878886 -0.057920
v -0.353048 0.624963 -0.318659
v -0.353048 0.622366 -0.316774
vn 1.000000 0.000000 0.000000
vn 0.000000 -1.000000 0.000000
vn 0.000000 0.000000 -1.000000
vn -1.000000 0.000000 0.000000
vn 0.000000 0.000000 1.000000
vn 0.000005 -0.839159 -0.543886
vn 0.000000 -0.096515 0.995332
vn 0.000000 -0.543867 -0.839172
vn 0.000009 -0.707147 -0.707067
vn 0.000005 -0.356466 -0.934308
vn 0.000010 -0.452609 -0.891709
vn 0.000000 -0.256381 -0.966576
vn 0.000002 -0.543904 -0.839147
vn 0.000000 0.263691 -0.964607
vn 0.000000 0.160919 -0.986968
vn 0.000000 1.000000 0.000000
vn 0.000000 0.363545 -0.931577
vn 0.000000 0.978426 0.206596
vn 0.000000 0.966242 0.257638
vn 0.000000 0.933930 0.357455
vn 0.000000 0.206596 0.978426
vn 0.000000 0.257638 0.966242
vn 0.000000 0.891339 0.453337
vn 0.000000 0.357455 0.933930
vn 0.000000 0.838937 0.544229
vn 0.000000 0.453337 0.891339
vn -0.000005 0.839159 0.543886
vn 0.000000 0.777300 0.629130
vn 0.000000 0.096515 -0.995332
vn 0.000000 0.544229 0.838937
vn 0.000000 0.543867 0.839172
vn -0.000009 0.707147 0.707067
vn 0.000000 0.707107 0.707107
vn 0.000000 0.629130 0.777300
vn -0.000010 0.452609 0.891709
vn -0.000005 0.356466 0.934308
vn 0.000000 0.256381 0.966576
vn -0.000002 0.543904 0.839147
vn 0.000000 -0.160919 0.986968
vn 0.000000 -0.263691 0.964607
vn 0.000000 -0.363545 0.931577
vn 0.000000 -0.978426 -0.206596
vn 0.000000 -0.966242 -0.257638
vn 0.000000 -0.933930 -0.357455
vn 0.000000 -0.257638 -0.966242
vn 0.000000 -0.206596 -0.978426
vn 0.000000 -0.891339 -0.453337
vn 0.000000 -0.357455 -0.933930
vn 0.000000 -0.838937 -0.544229
vn 0.000000 -0.453337 -0.891339
vn 0.000000 -0.777300 -0.629130
vn 0.000000 -0.544229 -0.838937
vn 0.000000 -0.707107 -0.707107
vn 0.000000 -0.629130 -0.777300
vt -3.600972 0.991614
vt -3.194772 0.975302
vt -3.194772 0.991614
vt -3.194772 0.156092
vt -3.011062 3.364399
vt -3.011062 3.810553
vt -3.011062 3.380712
vt -3.257220 0.156092
vt 3.011062 0.156092
vt 3.433562 0.975302
vt 3.011062 0.975302
vt -3.277910 0.150284
vt 3.034762 0.156092
vt 3.373162 0.975302
vt 3.071462 0.975302
vt 3.373162 0.991614
vt 3.071462 0.991614
vt -3.487380 3.348087
vt -3.296997 0.140031
vt 3.433562 0.156092
vt -3.373162 3.380712
vt -3.071462 3.364399
vt -3.071462 3.380712
vt -3.313640 0.125785
vt 3.257220 0.156092
vt 3.194772 0.975302
vt 3.194772 0.156092
vt 3.194772 0.991614
vt -3.373162 3.364399
vt -3.327102 0.108175
vt 3.600972 0.991614
vt -3.433562 0.358494
vt -3.011062 1.354759
vt -3.433562 1.354759
vt -3.336791 0.087976
vt 3.011108 -2.130764
vt 3.017704 -2.130764
vt 3.433506 -2.623946
vt 3.277910 0.150284
vt 3.296997 0.140031
vt -3.011062 0.358494
vt 3.342279 0.066082
vt 3.510107 0.000000
vt -3.342279 0.066082
vt 3.011024 -1.519728
vt 3.034724 -1.508755
vt 3.011024 -1.497077
vt 3.012108 -2.130764
vt 3.420228 -2.646597
vt 3.313640 0.125785
vt -3.034762 0.358494
vt -3.342279 0.036677
vt -3.510107 0.000000
vt 3.336791 0.087976
vt 3.342279 0.036677
vt 3.011062 -0.842895
vt 3.034762 -0.820243
vt 3.011062 -0.820243
vt 3.034724 -1.519728
vt 3.034724 -1.497077
vt 3.012024 -1.497077
vt 3.433506 -2.646597
vt 3.327102 0.108175
vt -3.339879 0.021102
vt 3.332097 0.097761
vt 3.034762 -0.842895
vt 3.339879 0.021102
vt 3.034762 0.036677
vt 3.011062 0.036677
vt 3.034762 0.066082
vt 3.011062 0.066082
vt 3.433535 -2.108502
vt 3.416431 -2.131154
vt 3.433535 -2.131154
vt -3.332097 0.000000
vt 0.014954 0.000000
vt 0.000000 0.025079
vt 0.000000 0.000000
vt 3.332097 0.000000
vt 0.036399 0.000000
vt 0.014954 0.025079
vt 0.036399 0.025079
vt -1.596436 0.614707
vt -1.597386 0.624717
vt -1.597386 0.614440
vt -1.595513 0.615106
vt 0.011656 0.040267
vt 0.010684 0.000000
vt 0.011656 0.000000
vt -1.589879 0.623450
vt -1.589679 0.624717
vt 1.597386 0.624717
vt 1.596436 0.614707
vt 1.597386 0.614440
vt -1.594625 0.615632
vt 0.010684 0.040267
vt 0.009713 0.000000
vt -1.590178 0.622219
vt 0.000971 0.000000
vt 0.000000 0.040267
vt 1.595513 0.615106
vt 1.589879 0.623450
vt 1.589679 0.624717
vt -1.593784 0.616278
vt 0.009713 0.040267
vt 0.008742 0.000000
vt -1.590572 0.621036
vt 0.001943 0.000000
vt 0.000971 0.040267
vt 1.594625 0.615632
vt 1.590178 0.622219
vt -1.592999 0.617039
vt 0.008742 0.040267
vt 0.007770 0.000000
vt -1.591057 0.619914
vt 0.002914 0.000000
vt 0.001943 0.040267
vt 1.593784 0.616278
vt 1.590572 0.621036
vt -1.592277 0.617905
vt 0.007770 0.040267
vt 0.006799 0.000000
vt -1.591628 0.618867
vt 0.003885 0.000000
vt 0.002914 0.040267
vt 1.592999 0.617039
vt 1.591057 0.619914
vt 0.006799 0.040267
vt 0.005828 0.000000
vt 0.004857 0.000000
vt 0.003885 0.040267
vt 1.592277 0.617905
vt 1.591628 0.618867
vt 0.004857 0.040267
vt 0.005828 0.040267
usemtl material-0
f 1/1/1 2/2/1 3/3/1
f 2/2/1 1/1/1 4/4/1
f 7/5/2 1/6/2 3/7/2
f 4/4/1 1/1/1 8/8/1
f 4/9/3 9/10/3 2/11/3
f 8/8/1 1/1/1 13/12/1
f 14/13/3 9/10/3 4/9/3
f 2/11/3 9/10/3 15/14/3
f 2/11/3 15/14/3 10/15/3
f 10/15/3 17/16/3 5/17/3
f 13/12/1 1/1/1 22/19/1
f 9/10/3 14/13/3 23/20/3
f 17/16/3 10/15/3 15/14/3
f 17/21/2 18/22/2 5/23/2
f 20/18/2 7/5/2 18/22/2
f 22/19/1 1/1/1 30/24/1
f 31/25/4 9/26/4 23/27/4
f 9/26/4 31/25/4 24/28/4
f 35/29/2 18/22/2 17/21/2
f 30/24/1 1/1/1 40/30/1
f 24/28/4 31/25/4 38/31/4
f 49/32/7 1/33/7 38/34/7
f 40/30/1 1/1/1 51/35/1
f 38/31/4 31/25/4 32/39/4
f 38/31/4 32/39/4 41/40/4
f 49/32/7 58/41/7 1/33/7
f 38/31/4 59/42/4 49/43/4
f 51/35/1 1/1/1 60/44/1
f 51/45/10 61/46/11 40/47/8
f 52/37/8 40/36/8 62/48/8
f 38/31/4 41/40/4 64/50/4
f 58/41/7 49/32/7 71/51/7
f 72/52/1 1/1/1 58/53/1
f 38/31/4 73/54/4 59/42/4
f 74/55/4 49/43/4 59/42/4
f 60/44/1 1/1/1 72/52/1
f 60/56/12 75/57/10 51/58/10
f 61/46/11 51/45/10 75/59/10
f 40/47/8 76/60/8 62/61/8
f 41/38/6 63/49/9 64/62/9
f 38/31/4 64/50/4 77/63/4
f 58/53/1 84/64/1 72/52/1
f 38/31/4 85/65/4 73/54/4
f 87/67/4 49/43/4 74/55/4
f 72/69/3 86/70/3 60/71/3
f 75/57/10 60/56/12 86/66/12
f 64/72/9 89/73/13 77/74/13
f 38/31/4 77/63/4 85/65/4
f 84/64/1 58/53/1 83/75/1
f 84/76/14 88/77/15 72/78/15
f 49/43/4 87/67/4 94/79/4
f 86/70/3 72/69/3 88/68/3
f 95/81/14 83/80/17 82/82/17
f 83/80/17 95/81/14 84/76/14
f 88/77/15 84/76/14 95/81/14
usemtl material-1
f 3//4 2//4 1//4
f 4//4 1//4 2//4
f 2//3 5//3 3//3
f 3//5 5//5 2//5
f 2//4 3//4 6//4
f 3//16 1//16 7//16
f 8//4 1//4 4//4
f 2//5 9//5 4//5
f 5//3 2//3 10//3
f 10//5 2//5 5//5
f 5//2 7//2 3//2
f 3//16 7//16 5//16
f 6//4 3//4 11//4
f 2//18 6//19 10//18
f 7//4 12//4 3//4
f 13//4 1//4 8//4
f 4//5 9//5 14//5
f 15//5 9//5 2//5
f 10//5 15//5 2//5
f 10//1 16//1 5//1
f 5//5 17//5 10//5
f 7//2 5//2 18//2
f 18//16 5//16 7//16
f 11//4 3//4 19//4
f 6//19 11//20 16//19
f 16//19 10//18 6//19
f 21//4 3//4 12//4
f 7//21 18//21 12//22
f 22//4 1//4 13//4
f 23//5 14//5 9//5
f 24//3 15//3 9//3
f 9//5 15//5 24//5
f 15//18 25//19 9//18
f 15//5 10//5 17//5
f 16//1 26//1 5//1
f 5//16 18//16 17//16
f 18//1 5//1 27//1
f 18//16 7//16 20//16
f 19//4 3//4 28//4
f 11//20 19//23 26//20
f 26//20 16//19 11//20
f 29//4 3//4 21//4
f 12//22 27//22 21//24
f 27//22 12//22 18//21
f 30//4 1//4 22//4
f 23//1 9//1 31//1
f 15//3 24//3 17//3
f 17//5 24//5 15//5
f 24//1 31//1 9//1
f 9//1 33//1 24//1
f 33//19 9//18 25//19
f 15//4 17//4 25//4
f 26//1 34//1 5//1
f 17//16 18//16 35//16
f 36//1 27//1 5//1
f 28//4 3//4 37//4
f 19//23 28//25 34//23
f 34//23 26//20 19//23
f 39//4 3//4 29//4
f 21//24 36//24 29//26
f 36//24 21//24 27//22
f 40//4 1//4 30//4
f 24//2 35//2 17//2
f 17//16 35//16 24//16
f 38//1 31//1 24//1
f 33//1 42//1 24//1
f 25//19 43//20 33//19
f 25//4 17//4 43//4
f 34//1 44//1 5//1
f 35//4 45//4 17//4
f 46//1 36//1 5//1
f 37//4 3//4 48//4
f 28//25 37//28 44//25
f 44//25 34//23 28//25
f 38//29 1//29 49//29
f 50//4 3//4 39//4
f 29//26 46//26 39//30
f 46//26 29//26 36//24
f 51//4 1//4 40//4
f 32//1 31//1 38//1
f 41//1 32//1 38//1
f 42//1 53//1 24//1
f 42//20 33//19 43//20
f 43//4 17//4 54//4
f 44//1 55//1 5//1
f 56//4 17//4 45//4
f 57//1 46//1 5//1
f 48//4 3//4 50//4
f 37//28 48//33 55//28
f 55//28 44//25 37//28
f 1//29 58//29 49//29
f 49//1 59//1 38//1
f 39//30 57//30 50//34
f 57//30 39//30 46//26
f 60//4 1//4 51//4
f 40//31 61//35 51//36
f 62//31 40//31 52//31
f 64//1 41//1 38//1
f 47//1 24//1 65//1
f 53//1 66//1 24//1
f 53//23 42//20 54//23
f 43//20 54//23 42//20
f 54//4 17//4 67//4
f 55//1 68//1 5//1
f 69//4 17//4 56//4
f 70//1 57//1 5//1
f 50//34 70//34 48//33
f 68//33 55//28 48//33
f 71//29 49//29 58//29
f 58//4 1//4 72//4
f 59//1 73//1 38//1
f 59//1 49//1 74//1
f 70//34 50//34 57//30
f 72//4 1//4 60//4
f 51//36 75//36 60//37
f 75//36 51//36 61//35
f 62//31 76//31 40//31
f 64//32 63//32 41//27
f 77//1 64//1 38//1
f 78//1 65//1 24//1
f 66//1 79//1 24//1
f 66//25 53//23 67//25
f 54//23 67//25 53//23
f 67//4 17//4 80//4
f 68//1 70//1 5//1
f 81//4 17//4 69//4
f 68//33 48//33 70//34
f 71//2 83//2 58//2
f 58//16 83//16 71//16
f 72//4 84//4 58//4
f 73//1 85//1 38//1
f 74//1 49//1 87//1
f 60//5 86//5 72//5
f 86//37 60//37 75//36
f 77//38 89//38 64//32
f 85//1 77//1 38//1
f 90//1 78//1 24//1
f 79//1 91//1 24//1
f 79//28 66//25 80//28
f 67//25 80//28 66//25
f 80//4 17//4 92//4
f 93//4 17//4 81//4
f 69//26 90//26 81//30
f 83//4 58//4 84//4
f 72//39 88//39 84//40
f 94//1 87//1 49//1
f 88//5 72//5 86//5
f 96//1 90//1 24//1
f 91//1 97//1 24//1
f 91//33 79//28 92//33
f 80//28 92//33 79//28
f 92//4 17//4 93//4
f 81//30 96//30 93//34
f 96//30 81//30 90//26
f 82//41 83//41 95//40
f 84//40 95//40 83//41
f 95//40 84//40 88//39
f 97//1 96//1 24//1
f 91//33 92//33 97//34
f 93//34 97//34 92//33
f 97//34 93//34 96//30
usemtl material-2
f 6/83/1 3/84/1 2/85/1
f 11/86/1 3/84/1 6/83/1
f 10/87/42 6/88/43 2/89/42
f 3/84/1 12/90/1 7/91/1
f 5/92/4 16/93/4 10/94/4
f 19/95/1 3/84/1 11/86/1
f 16/96/43 11/97/44 6/88/43
f 6/88/43 10/87/42 16/96/43
f 12/90/1 3/84/1 21/98/1
f 12/99/45 18/100/46 7/78/46
f 9/87/42 25/88/43 15/89/42
f 5/92/4 26/101/4 16/93/4
f 27/102/4 5/92/4 18/103/4
f 28/104/1 3/84/1 19/95/1
f 26/105/44 19/106/47 11/97/44
f 11/97/44 16/96/43 26/105/44
f 21/98/1 3/84/1 29/107/1
f 21/108/48 27/109/45 12/99/45
f 18/100/46 12/99/45 27/109/45
f 24/92/4 33/93/4 9/94/4
f 25/88/43 9/87/42 33/96/43
f 25/83/1 17/84/1 15/85/1
f 5/92/4 34/110/4 26/101/4
f 5/92/4 27/102/4 36/111/4
f 37/112/1 3/84/1 28/104/1
f 34/113/47 28/114/49 19/106/47
f 19/106/47 26/105/44 34/113/47
f 29/107/1 3/84/1 39/115/1
f 29/116/50 36/117/48 21/108/48
f 27/109/45 21/108/48 36/117/48
f 24/92/4 42/101/4 33/93/4
f 33/96/43 43/97/44 25/88/43
f 43/86/1 17/84/1 25/83/1
f 5/92/4 44/118/4 34/110/4
f 17/84/1 45/90/1 35/91/1
f 5/92/4 36/111/4 46/119/4
f 48/120/1 3/84/1 37/112/1
f 44/121/49 37/122/51 28/114/49
f 28/114/49 34/113/47 44/121/49
f 39/115/1 3/84/1 50/123/1
f 39/124/52 46/125/50 29/116/50
f 36/117/48 29/116/50 46/125/50
f 24/92/4 53/110/4 42/101/4
f 43/97/44 33/96/43 42/105/44
f 54/95/1 17/84/1 43/86/1
f 5/92/4 55/126/4 44/118/4
f 45/90/1 17/84/1 56/98/1
f 5/92/4 46/119/4 57/127/4
f 50/123/1 3/84/1 48/120/1
f 55/128/51 48/129/53 37/122/51
f 37/122/51 44/121/49 55/128/51
f 50/130/54 57/131/52 39/124/52
f 46/125/50 39/124/52 57/131/52
f 65/102/4 24/92/4 47/103/4
f 24/92/4 66/118/4 53/110/4
f 54/106/47 42/105/44 53/113/47
f 42/105/44 54/106/47 43/97/44
f 67/104/1 17/84/1 54/95/1
f 5/92/4 68/132/4 55/126/4
f 56/98/1 17/84/1 69/107/1
f 5/92/4 57/127/4 70/133/4
f 48/129/53 70/134/54 50/130/54
f 48/129/53 55/128/51 68/135/53
f 57/131/52 50/130/54 70/134/54
f 24/92/4 65/102/4 78/111/4
f 24/92/4 79/126/4 66/118/4
f 67/114/49 53/113/47 66/121/49
f 53/113/47 67/114/49 54/106/47
f 80/112/1 17/84/1 67/104/1
f 5/92/4 70/133/4 68/132/4
f 69/107/1 17/84/1 81/115/1
f 70/134/54 48/129/53 68/135/53
f 24/92/4 78/111/4 90/119/4
f 24/92/4 91/132/4 79/126/4
f 80/122/51 66/121/49 79/128/51
f 66/121/49 80/122/51 67/114/49
f 92/120/1 17/84/1 80/112/1
f 81/115/1 17/84/1 93/123/1
f 81/124/52 90/125/50 69/116/50
f 24/92/4 90/119/4 96/127/4
f 24/92/4 97/133/4 91/132/4
f 92/129/53 79/128/51 91/135/53
f 79/128/51 92/129/53 80/122/51
f 93/123/1 17/84/1 92/120/1
f 93/130/54 96/131/52 81/124/52
f 90/125/50 81/124/52 96/131/52
f 24/92/4 96/127/4 97/133/4
f 97/134/54 92/129/53 91/135/53
f 92/129/53 97/134/54 93/130/54
f 96/131/52 93/130/54 97/134/54