mtllib new-3.mtl
v 0.345221 -0.668058 -0.297739
v 0.345221 -0.668058 -0.194531
v 0.345221 -0.677128 -0.160337
v 0.306052 -0.668058 -0.194531
v 0.306052 -0.668058 -0.297739
v 0.345221 -0.693141 -0.128791
v 0.306052 -0.677128 -0.160337
v -0.353048 -0.668058 -0.297739
v 0.345221 -0.715390 -0.101287
v 0.306052 -0.693141 -0.128791
v -0.353048 -0.668058 -0.194531
v -0.353048 -0.677128 -0.160337
v 0.345221 -0.742895 -0.079037
v 0.327996 -0.715405 -0.101299
v -0.353048 -0.693141 -0.128791
v -0.353048 -0.911843 0.223416
v 0.334320 -0.742892 -0.079033
v 0.306052 -0.715390 -0.101287
v -0.305579 -0.715405 -0.101299
v -0.353048 -0.808635 -0.053954
v 0.306052 -0.759159 -0.070781
v 0.343568 -0.742895 -0.079037
v -0.331104 -0.715405 -0.101299
v -0.353048 -0.715390 -0.101287
v 0.306052 -0.911843 0.223416
v -0.353048 -0.774440 -0.063024
v -0.353048 -0.854560 -0.053954
v 0.306052 -0.774440 -0.063024
v 0.306052 -0.742895 -0.079037
v -0.311903 -0.742892 -0.079033
v -0.353048 -0.742895 -0.079037
v 0.306052 -0.911843 -0.070781
v 0.345221 -0.911843 -0.070781
v -0.353048 -0.759159 -0.070781
v 0.306052 -0.808635 -0.053954
v -0.353048 -0.878886 -0.057920
v 0.306052 -0.854560 -0.053954
v -0.324780 -0.742892 -0.079033
v -0.353048 -0.911843 -0.070781
v 0.306052 -0.878886 -0.057920
vn 0.000000 -1.000000 0.000000
vn 0.000000 0.000000 -1.000000
vn 0.000000 -0.934302 -0.356483
vn 0.000000 -0.966576 -0.256381
vn -0.000010 -0.839171 -0.543867
vn 0.000000 0.000000 1.000000
vn -0.000015 -0.707119 -0.707094
vn 0.000005 -0.839159 -0.543886
vn 0.000000 -0.543867 -0.839172
vn 0.000009 -0.707147 -0.707067
vn 0.000010 -0.452609 -0.891709
vn 0.000000 -0.256381 -0.966576
vn 0.000002 -0.543904 -0.839147
vn -0.000001 -0.356450 -0.934314
vn -0.000002 -0.452579 -0.891724
vn 0.000000 0.263691 -0.964607
vn 0.000000 0.160919 -0.986968
vn 0.000000 1.000000 0.000000
vn 0.000000 0.363545 -0.931577
vn 0.000000 0.934302 0.356483
vn 0.000000 0.966576 0.256381
vn 0.000010 0.839171 0.543867
vn 0.000015 0.707119 0.707094
vn -0.000005 0.839159 0.543886
vn 0.000000 0.543867 0.839172
vn -0.000009 0.707147 0.707067
vn -0.000010 0.452609 0.891709
vn 0.000000 0.256381 0.966576
vn -0.000002 0.543904 0.839147
vn 0.000001 0.356450 0.934314
vn 0.000002 0.452579 0.891724
vn 0.000000 -0.160919 0.986968
vn 0.000000 -0.263691 0.964607
vn 0.000000 -0.363545 0.931577
vt 3.034762 -3.314220
vt 3.011062 -3.291569
vt 3.011062 -3.314220
vt 3.034762 -3.291569
vt 3.034762 -3.047631
vt 3.011062 -3.024980
vt 3.011062 -3.047631
vt 3.034762 -3.024980
vt 3.433562 -3.314220
vt 3.021587 -2.646576
vt 3.011164 -2.623925
vt 3.011165 -2.646576
vt 3.034864 -2.623924
vt 3.433562 -3.047631
vt 3.433562 -3.291569
vt 3.433562 -3.024980
vt 3.011108 -2.130764
vt 3.017704 -2.130764
vt 3.011108 -2.108112
vt 3.021530 -2.108115
vt 3.034865 -2.646576
vt 3.034706 -2.623940
vt 3.404784 -2.646597
vt 3.433506 -2.623946
vt 3.034724 -1.508755
vt 3.011024 -1.497077
vt 3.034808 -2.108112
vt 3.034706 -2.646591
vt 3.420228 -2.646597
vt 3.034762 -0.820243
vt 3.034724 -1.497077
vt 3.012024 -1.497077
vt 3.017620 -1.497076
vt 3.034808 -2.130764
vt 3.034735 -2.108500
vt 3.408639 -2.131154
vt 3.404813 -2.108505
vt 3.420257 -2.108505
vt 3.433562 -0.820243
vt 3.034762 -0.842895
vt 3.433562 -0.842895
vt 3.433562 0.066082
vt 3.034762 0.036677
vt 3.433562 0.036677
vt 3.034762 0.066082
vt 3.034771 -1.519600
vt 3.433571 -1.508626
vt 3.034771 -1.508627
vt 3.433571 -1.496948
vt 3.034771 -1.496948
vt 3.034735 -2.131152
vt 3.433535 -2.108502
vt 3.416431 -2.131154
vt 0.014954 0.000000
vt 0.000000 0.000000
vt 3.433571 -1.519599
vt 0.000000 0.422011
vt 0.014954 0.422011
vt 3.416467 -1.496947
vt 3.408675 -1.496947
vt 0.036399 0.422011
vt 0.036399 0.000000
usemtl material-0
f 7/1/3 2/2/4 3/3/3
f 2/2/4 7/1/3 4/4/4
f 10/5/5 3/6/3 6/7/5
f 3/6/3 10/5/5 7/8/3
f 12/9/3 4/4/4 7/1/3
f 14/10/7 6/11/5 9/12/7
f 6/11/5 14/10/7 10/13/5
f 15/14/8 7/8/3 10/5/8
f 4/4/4 12/9/3 11/15/4
f 7/8/3 15/14/8 12/16/3
f 13/17/9 17/18/9 9/19/7
f 9/19/7 17/18/9 14/20/7
f 10/13/5 14/10/7 18/21/7
f 10/22/8 19/23/10 15/24/8
f 17/18/9 18/27/7 14/20/7
f 19/23/10 10/22/8 18/28/10
f 15/24/8 19/23/10 23/29/10
f 13/26/9 21/25/11 29/31/9
f 17/33/9 22/32/9 29/31/9
f 18/27/7 17/18/9 29/34/9
f 18/35/10 30/36/13 19/37/10
f 19/37/10 30/36/13 23/38/10
f 26/39/14 35/40/12 20/41/12
f 20/42/2 37/43/2 27/44/2
f 28/46/14 34/47/15 21/48/15
f 21/48/15 31/49/13 29/50/13
f 30/36/13 18/35/10 29/51/13
f 30/36/13 24/52/10 23/38/10
f 34/47/15 28/46/14 26/56/14
f 35/40/12 26/39/14 28/30/14
f 37/43/2 20/42/2 35/45/2
f 27/57/17 40/54/16 36/58/16
f 40/54/16 27/57/17 37/55/17
f 21/48/15 34/47/15 31/49/13
f 29/50/13 31/49/13 38/59/13
f 29/50/13 38/59/13 30/60/13
f 38/53/13 24/52/10 30/36/13
f 39/61/19 40/54/16 32/62/19
f 40/54/16 39/61/19 36/58/16
usemtl material-1
f 4//1 1//1 2//1
f 2//18 1//18 4//18
f 3//20 2//21 7//20
f 1//1 4//1 5//1
f 5//18 4//18 1//18
f 4//21 7//20 2//21
f 6//22 3//20 10//22
f 7//20 10//22 3//20
f 11//1 5//1 4//1
f 4//18 5//18 11//18
f 7//20 4//21 12//20
f 5//1 11//1 8//1
f 8//18 11//18 5//18
f 9//23 6//22 14//23
f 10//22 14//23 6//22
f 10//24 7//20 15//24
f 11//21 12//20 4//21
f 12//20 15//24 7//20
f 9//23 17//25 13//25
f 14//23 17//25 9//23
f 18//23 14//23 10//22
f 15//24 19//26 10//24
f 14//23 18//23 17//25
f 18//26 10//24 19//26
f 23//26 19//26 15//24
f 29//25 21//27 13//25
f 29//25 22//25 17//25
f 29//25 17//25 18//23
f 19//26 30//29 18//26
f 23//26 30//29 19//26
f 16//1 32//1 25//1
f 25//18 32//18 16//18
f 20//28 35//28 26//30
f 27//6 37//6 20//6
f 21//31 34//31 28//30
f 29//29 31//29 21//31
f 29//29 18//26 30//29
f 23//26 24//26 30//29
f 32//1 16//1 39//1
f 39//18 16//18 32//18
f 33//1 25//1 32//1
f 32//18 25//18 33//18
f 26//30 28//30 34//31
f 28//30 26//30 35//28
f 35//6 20//6 37//6
f 36//33 40//33 27//32
f 37//32 27//32 40//33
f 31//29 34//31 21//31
f 38//29 31//29 29//29
f 30//29 38//29 29//29
f 30//29 24//26 38//29
f 32//34 40//33 39//34
f 36//33 39//34 40//33