# SSTK version 0.8.0
# 25
mtllib original-25.mtl
o #ID129
v -0.053645 -0.030084 0.795133
v -0.033895 -0.058886 0.768444
v -0.046425 -0.030084 0.798694
v -0.037274 -0.058886 0.766777
v -0.037274 -0.058886 0.766777
v -0.053645 -0.030084 0.795133
v -0.033895 -0.058886 0.768444
v -0.046425 -0.030084 0.798694
v -0.060339 -0.030084 0.790661
v -0.040407 -0.058886 0.764684
v -0.040407 -0.058886 0.764684
v -0.060339 -0.030084 0.790661
v -0.026632 -0.058886 0.770390
v -0.007901 -0.058886 0.770636
v -0.022873 -0.058886 0.770636
v 0.007071 -0.058886 0.770636
v 0.010831 -0.058886 0.770390
v -0.030328 -0.058886 0.769655
v 0.014526 -0.058886 0.769655
v -0.033895 -0.058886 0.768444
v 0.018094 -0.058886 0.768444
v -0.037274 -0.058886 0.766777
v 0.021473 -0.058886 0.766777
v -0.040407 -0.058886 0.764684
v 0.024605 -0.058886 0.764684
v -0.043239 -0.058886 0.762200
v 0.027438 -0.058886 0.762200
v -0.045724 -0.058886 0.759368
v 0.029922 -0.058886 0.759368
v -0.047817 -0.058886 0.756235
v 0.032015 -0.058886 0.756235
v -0.049483 -0.058886 0.752856
v 0.033682 -0.058886 0.752856
v -0.050694 -0.058886 0.749288
v 0.034893 -0.058886 0.749288
v -0.051429 -0.058886 0.745593
v 0.035628 -0.058886 0.745593
v -0.051675 -0.058886 0.741834
v 0.035874 -0.058886 0.741834
v -0.051675 -0.058886 0.594354
v 0.035874 -0.058886 0.594354
v -0.051675 -0.058886 -0.741072
v 0.035874 -0.058886 -0.736939
v 0.035874 -0.058886 -0.736939
v -0.051675 -0.058886 -0.741072
v 0.035874 -0.058886 0.594354
v -0.051675 -0.058886 0.594354
v 0.035874 -0.058886 0.741834
v -0.051675 -0.058886 0.741834
v 0.035628 -0.058886 0.745593
v -0.051429 -0.058886 0.745593
v 0.034893 -0.058886 0.749288
v -0.050694 -0.058886 0.749288
v 0.033682 -0.058886 0.752856
v -0.049483 -0.058886 0.752856
v 0.032015 -0.058886 0.756235
v -0.047817 -0.058886 0.756235
v 0.029922 -0.058886 0.759368
v -0.045724 -0.058886 0.759368
v 0.027438 -0.058886 0.762200
v -0.043239 -0.058886 0.762200
v 0.024605 -0.058886 0.764684
v -0.040407 -0.058886 0.764684
v 0.021473 -0.058886 0.766777
v -0.037274 -0.058886 0.766777
v 0.018094 -0.058886 0.768444
v -0.033895 -0.058886 0.768444
v 0.014526 -0.058886 0.769655
v -0.030328 -0.058886 0.769655
v 0.010831 -0.058886 0.770390
v -0.026632 -0.058886 0.770390
v 0.007071 -0.058886 0.770636
v -0.007901 -0.058886 0.770636
v -0.022873 -0.058886 0.770636
v -0.030328 -0.058886 0.769655
v -0.038802 -0.030084 0.801282
v -0.030328 -0.058886 0.769655
v -0.038802 -0.030084 0.801282
v -0.066392 -0.030084 0.785353
v -0.043239 -0.058886 0.762200
v -0.043239 -0.058886 0.762200
v -0.066392 -0.030084 0.785353
v 0.035874 -0.058886 0.741834
v 0.068546 -0.030084 0.594354
v 0.068546 -0.030084 0.742903
v 0.035874 -0.058886 0.594354
v 0.035874 -0.058886 -0.736939
v 0.068546 -0.030084 -0.736939
v 0.068546 -0.030084 -0.736939
v 0.035874 -0.058886 -0.736939
v 0.068546 -0.030084 0.594354
v 0.035874 -0.058886 0.594354
v 0.035874 -0.058886 0.741834
v 0.068546 -0.030084 0.742903
v 0.035628 -0.058886 0.745593
v 0.068090 -0.030084 0.749867
v 0.035628 -0.058886 0.745593
v 0.068090 -0.030084 0.749867
v 0.034893 -0.058886 0.749288
v 0.066519 -0.030084 0.757763
v 0.034893 -0.058886 0.749288
v 0.066519 -0.030084 0.757763
v 0.033682 -0.058886 0.752856
v 0.063932 -0.030084 0.765386
v 0.033682 -0.058886 0.752856
v 0.063932 -0.030084 0.765386
v 0.032015 -0.058886 0.756235
v 0.060371 -0.030084 0.772606
v 0.032015 -0.058886 0.756235
v 0.060371 -0.030084 0.772606
v 0.029922 -0.058886 0.759368
v 0.055898 -0.030084 0.779300
v 0.029922 -0.058886 0.759368
v 0.055898 -0.030084 0.779300
v 0.027438 -0.058886 0.762200
v 0.050590 -0.030084 0.785353
v 0.027438 -0.058886 0.762200
v 0.050590 -0.030084 0.785353
v 0.024605 -0.058886 0.764684
v 0.044538 -0.030084 0.790661
v 0.024605 -0.058886 0.764684
v 0.044538 -0.030084 0.790661
v 0.021473 -0.058886 0.766777
v 0.037844 -0.030084 0.795133
v 0.021473 -0.058886 0.766777
v 0.037844 -0.030084 0.795133
v 0.018094 -0.058886 0.768444
v 0.030624 -0.030084 0.798694
v 0.018094 -0.058886 0.768444
v 0.030624 -0.030084 0.798694
v 0.014526 -0.058886 0.769655
v 0.023000 -0.030084 0.801282
v 0.014526 -0.058886 0.769655
v 0.023000 -0.030084 0.801282
v 0.010831 -0.058886 0.770390
v 0.015105 -0.030084 0.802852
v 0.010831 -0.058886 0.770390
v 0.015105 -0.030084 0.802852
v 0.007071 -0.058886 0.770636
v 0.008141 -0.030084 0.803309
v 0.007071 -0.058886 0.770636
v 0.008141 -0.030084 0.803309
v -0.022873 -0.058886 0.770636
v -0.007901 -0.030084 0.803309
v -0.023942 -0.030084 0.803309
v -0.007901 -0.058886 0.770636
v -0.007901 -0.058886 0.770636
v -0.022873 -0.058886 0.770636
v -0.007901 -0.030084 0.803309
v -0.023942 -0.030084 0.803309
v -0.030906 -0.030084 0.802852
v -0.026632 -0.058886 0.770390
v -0.026632 -0.058886 0.770390
v -0.030906 -0.030084 0.802852
v -0.071700 -0.030084 0.779300
v -0.045724 -0.058886 0.759368
v -0.045724 -0.058886 0.759368
v -0.071700 -0.030084 0.779300
v -0.076172 -0.030084 0.772606
v -0.047817 -0.058886 0.756235
v -0.047817 -0.058886 0.756235
v -0.076172 -0.030084 0.772606
v -0.079733 -0.030084 0.765386
v -0.049483 -0.058886 0.752856
v -0.049483 -0.058886 0.752856
v -0.079733 -0.030084 0.765386
v -0.082321 -0.030084 0.757763
v -0.050694 -0.058886 0.749288
v -0.050694 -0.058886 0.749288
v -0.082321 -0.030084 0.757763
v -0.083891 -0.030084 0.749867
v -0.051429 -0.058886 0.745593
v -0.051429 -0.058886 0.745593
v -0.083891 -0.030084 0.749867
v -0.084348 -0.030084 0.742903
v -0.051675 -0.058886 0.741834
v -0.051675 -0.058886 0.741834
v -0.084348 -0.030084 0.742903
v -0.084348 -0.030084 0.594354
v -0.051675 -0.058886 0.594354
v -0.084348 -0.030084 -0.741072
v -0.051675 -0.058886 -0.741072
v -0.051675 -0.058886 -0.741072
v -0.084348 -0.030084 -0.741072
v -0.051675 -0.058886 0.594354
v -0.084348 -0.030084 0.594354
v -0.051675 -0.058886 -0.741072
v 0.035874 -0.030084 -0.736939
v 0.035874 -0.058886 -0.736939
v 0.035874 -0.029703 -0.736939
v -0.051675 -0.030084 -0.741072
v -0.051675 -0.030084 -0.741072
v -0.051675 -0.058886 -0.741072
v 0.035874 -0.029703 -0.736939
v 0.035874 -0.030084 -0.736939
v 0.035874 -0.058886 -0.736939
v 0.035874 -0.030084 -0.736939
v 0.068546 -0.030084 -0.736939
v 0.035874 -0.058886 -0.736939
v 0.035874 -0.058886 -0.736939
v 0.068546 -0.030084 -0.736939
v 0.035874 -0.030084 -0.736939
v -0.084348 -0.030084 -0.741072
v -0.051675 -0.030084 -0.741072
v -0.051675 -0.058886 -0.741072
v -0.051675 -0.058886 -0.741072
v -0.051675 -0.030084 -0.741072
v -0.084348 -0.030084 -0.741072
vn -0.3302420092552273 -0.7508401210427378 0.5719959160305232
vn -0.252756310356 -0.7508401307636252 0.610207625001592
vn 0.3302420092552273 0.7508401210427378 -0.5719959160305232
vn 0.252756310356 0.7508401307636252 -0.610207625001592
vn -0.4020772007768755 -0.7508401014507395 0.5239972010124438
vn 0.4020772007768755 0.7508401014507395 -0.5239972010124438
vn 0 -1 0
vn 0 1 0
vn -0.17094580950733096 -0.7508401417587641 0.6379785354818471
vn 0.17094580950733096 0.7508401417587641 -0.6379785354818471
vn -0.46703271365916826 -0.7508401219595999 0.46703271365916826
vn 0.46703271365916826 0.7508401219595999 -0.46703271365916826
vn 0.6607285310082912 -0.7503132352125423 0.02163001101510628
vn 0.6612817874538315 -0.7501375857680147 0
vn -0.6612817874538315 0.7501375857680147 0
vn -0.6607285310082912 0.7503132352125423 -0.02163001101510628
vn 0.6548334389832241 -0.7508401446986485 0.08621046513223926
vn -0.6548334389832241 0.7508401446986485 -0.08621046513223926
vn 0.6379785354818471 -0.7508401417587641 0.17094580950733096
vn -0.6379785354818471 0.7508401417587641 -0.17094580950733096
vn 0.6102076250015921 -0.7508401307636253 0.25275631035600005
vn -0.6102076250015921 0.7508401307636253 -0.25275631035600005
vn 0.5719959160305232 -0.7508401210427378 0.3302420092552273
vn -0.5719959160305232 0.7508401210427378 -0.3302420092552273
vn 0.5239972010124438 -0.7508401014507395 0.4020772007768755
vn -0.5239972010124438 0.7508401014507395 -0.4020772007768755
vn 0.46703271365916826 -0.7508401219595999 0.46703271365916826
vn -0.46703271365916826 0.7508401219595999 -0.46703271365916826
vn 0.4020772007768755 -0.7508401014507395 0.5239972010124438
vn -0.4020772007768755 0.7508401014507395 -0.5239972010124438
vn 0.3302420092552273 -0.7508401210427378 0.5719959160305232
vn -0.3302420092552273 0.7508401210427378 -0.5719959160305232
vn 0.252756310356 -0.7508401307636252 0.610207625001592
vn -0.252756310356 0.7508401307636252 -0.610207625001592
vn 0.17094580950733096 -0.7508401417587641 0.6379785354818471
vn -0.17094580950733096 0.7508401417587641 -0.6379785354818471
vn 0.08621046513223926 -0.7508401446986485 0.6548334389832241
vn -0.08621046513223926 0.7508401446986485 -0.6548334389832241
vn 0.02163001101510628 -0.7503132352125423 0.6607285310082912
vn -0.02163001101510628 0.7503132352125423 -0.6607285310082912
vn -0.02163001101510628 -0.7503132352125423 0.6607285310082912
vn 0 -0.7501375857680147 0.6612817874538315
vn 0 0.7501375857680147 -0.6612817874538315
vn 0.02163001101510628 0.7503132352125423 -0.6607285310082912
vn -0.08621046513223926 -0.7508401446986485 0.6548334389832241
vn 0.08621046513223926 0.7508401446986485 -0.6548334389832241
vn -0.5239972010124438 -0.7508401014507395 0.4020772007768755
vn 0.5239972010124438 0.7508401014507395 -0.4020772007768755
vn -0.5719959160305232 -0.7508401210427378 0.3302420092552273
vn 0.5719959160305232 0.7508401210427378 -0.3302420092552273
vn -0.6102076250015921 -0.7508401307636253 0.25275631035600005
vn 0.6102076250015921 0.7508401307636253 -0.25275631035600005
vn -0.6379785354818471 -0.7508401417587641 0.17094580950733096
vn 0.6379785354818471 0.7508401417587641 -0.17094580950733096
vn -0.6548334389832241 -0.7508401446986485 0.08621046513223926
vn 0.6548334389832241 0.7508401446986485 -0.08621046513223926
vn -0.6607285310082912 -0.7503132352125423 0.02163001101510628
vn 0.6607285310082912 0.7503132352125423 -0.02163001101510628
vn -0.6612817874538315 -0.7501375857680147 0
vn 0.6612817874538315 0.7501375857680147 0
vn 0.047147631513886276 0 -0.9988879320737792
vn -0.047147631513886276 0 0.9988879320737792
vn 0 0 -1
vn 0 0 1
usemtl material_0_0
f 1//1 2//2 3//2
f 2//2 1//1 4//1
f 5//3 6//3 7//4
f 8//4 7//4 6//3
f 9//5 4//1 1//1
f 4//1 9//5 10//5
f 11//6 12//6 5//3
f 6//3 5//3 12//6
f 13//7 14//7 15//7
f 14//7 13//7 16//7
f 16//7 13//7 17//7
f 17//7 13//7 18//7
f 17//7 18//7 19//7
f 19//7 18//7 20//7
f 19//7 20//7 21//7
f 21//7 20//7 22//7
f 21//7 22//7 23//7
f 23//7 22//7 24//7
f 23//7 24//7 25//7
f 25//7 24//7 26//7
f 25//7 26//7 27//7
f 27//7 26//7 28//7
f 27//7 28//7 29//7
f 29//7 28//7 30//7
f 29//7 30//7 31//7
f 31//7 30//7 32//7
f 31//7 32//7 33//7
f 33//7 32//7 34//7
f 33//7 34//7 35//7
f 35//7 34//7 36//7
f 35//7 36//7 37//7
f 37//7 36//7 38//7
f 37//7 38//7 39//7
f 39//7 38//7 40//7
f 39//7 40//7 41//7
f 41//7 40//7 42//7
f 41//7 42//7 43//7
f 44//8 45//8 46//8
f 45//8 47//8 46//8
f 46//8 47//8 48//8
f 47//8 49//8 48//8
f 48//8 49//8 50//8
f 49//8 51//8 50//8
f 50//8 51//8 52//8
f 51//8 53//8 52//8
f 52//8 53//8 54//8
f 53//8 55//8 54//8
f 54//8 55//8 56//8
f 55//8 57//8 56//8
f 56//8 57//8 58//8
f 57//8 59//8 58//8
f 58//8 59//8 60//8
f 59//8 61//8 60//8
f 60//8 61//8 62//8
f 61//8 63//8 62//8
f 62//8 63//8 64//8
f 63//8 65//8 64//8
f 64//8 65//8 66//8
f 65//8 67//8 66//8
f 66//8 67//8 68//8
f 67//8 69//8 68//8
f 68//8 69//8 70//8
f 69//8 71//8 70//8
f 70//8 71//8 72//8
f 72//8 71//8 73//8
f 74//8 73//8 71//8
f 3//2 75//9 76//9
f 75//9 3//2 2//2
f 7//4 8//4 77//10
f 78//10 77//10 8//4
f 79//11 10//5 9//5
f 10//5 79//11 80//11
f 81//12 82//12 11//6
f 12//6 11//6 82//12
f 83//13 84//14 85//13
f 84//14 83//13 86//14
f 84//14 86//14 87//14
f 84//14 87//14 88//14
f 89//15 90//15 91//15
f 90//15 92//15 91//15
f 92//15 93//16 91//15
f 94//16 91//15 93//16
f 95//17 85//13 96//17
f 85//13 95//17 83//13
f 93//16 97//18 94//16
f 98//18 94//16 97//18
f 99//19 96//17 100//19
f 96//17 99//19 95//17
f 97//18 101//20 98//18
f 102//20 98//18 101//20
f 103//21 100//19 104//21
f 100//19 103//21 99//19
f 101//20 105//22 102//20
f 106//22 102//20 105//22
f 107//23 104//21 108//23
f 104//21 107//23 103//21
f 105//22 109//24 106//22
f 110//24 106//22 109//24
f 111//25 108//23 112//25
f 108//23 111//25 107//23
f 109//24 113//26 110//24
f 114//26 110//24 113//26
f 115//27 112//25 116//27
f 112//25 115//27 111//25
f 113//26 117//28 114//26
f 118//28 114//26 117//28
f 119//29 116//27 120//29
f 116//27 119//29 115//27
f 117//28 121//30 118//28
f 122//30 118//28 121//30
f 123//31 120//29 124//31
f 120//29 123//31 119//29
f 121//30 125//32 122//30
f 126//32 122//30 125//32
f 127//33 124//31 128//33
f 124//31 127//33 123//31
f 125//32 129//34 126//32
f 130//34 126//32 129//34
f 131//35 128//33 132//35
f 128//33 131//35 127//33
f 129//34 133//36 130//34
f 134//36 130//34 133//36
f 135//37 132//35 136//37
f 132//35 135//37 131//35
f 133//36 137//38 134//36
f 138//38 134//36 137//38
f 139//39 136//37 140//39
f 136//37 139//39 135//37
f 137//38 141//40 138//38
f 142//40 138//38 141//40
f 143//41 144//42 145//41
f 144//42 143//41 140//39
f 140//39 143//41 139//39
f 139//39 143//41 146//42
f 147//43 148//44 141//40
f 141//40 148//44 142//40
f 142//40 148//44 149//43
f 150//44 149//43 148//44
f 151//45 143//41 145//41
f 143//41 151//45 152//45
f 153//46 154//46 148//44
f 150//44 148//44 154//46
f 76//9 152//45 151//45
f 152//45 76//9 75//9
f 77//10 78//10 153//46
f 154//46 153//46 78//10
f 155//47 80//11 79//11
f 80//11 155//47 156//47
f 157//48 158//48 81//12
f 82//12 81//12 158//48
f 159//49 156//47 155//47
f 156//47 159//49 160//49
f 161//50 162//50 157//48
f 158//48 157//48 162//50
f 163//51 160//49 159//49
f 160//49 163//51 164//51
f 165//52 166//52 161//50
f 162//50 161//50 166//52
f 167//53 164//51 163//51
f 164//51 167//53 168//53
f 169//54 170//54 165//52
f 166//52 165//52 170//54
f 171//55 168//53 167//53
f 168//53 171//55 172//55
f 173//56 174//56 169//54
f 170//54 169//54 174//56
f 175//57 172//55 171//55
f 172//55 175//57 176//57
f 177//58 178//58 173//56
f 174//56 173//56 178//58
f 179//59 176//57 175//57
f 176//57 179//59 180//59
f 180//59 179//59 181//59
f 180//59 181//59 182//59
f 183//60 184//60 185//60
f 184//60 186//60 185//60
f 185//60 186//60 177//58
f 178//58 177//58 186//60
f 187//61 188//61 189//61
f 188//61 187//61 190//61
f 190//61 187//61 191//61
f 192//62 193//62 194//62
f 194//62 193//62 195//62
f 196//62 195//62 193//62
f 197//63 198//63 199//63
f 200//64 201//64 202//64
f 203//63 204//63 205//63
f 206//64 207//64 208//64
