# SSTK version 0.8.0
# 35
mtllib original-35.mtl
o #ID191
v -0.073563 -0.029703 0.854016
v -0.026632 -0.029703 0.770390
v -0.022873 -0.029703 0.770636
v -0.030328 -0.029703 0.769655
v -0.033895 -0.029703 0.768444
v -0.037274 -0.029703 0.766777
v -0.040407 -0.029703 0.764684
v -0.043239 -0.029703 0.762200
v -0.045724 -0.029703 0.759368
v -0.047817 -0.029703 0.756235
v -0.049483 -0.029703 0.752856
v -0.050694 -0.029703 0.749288
v -0.051429 -0.029703 0.745593
v -0.073563 -0.029703 0.594354
v -0.051675 -0.029703 0.741834
v -0.051675 -0.029703 0.628019
v -0.051675 -0.029703 0.594354
v -0.065670 -0.029703 0.865674
v 0.049869 -0.029703 0.865674
v -0.007901 -0.029703 0.888782
v -0.067640 -0.029703 0.864770
v 0.051839 -0.029703 0.864770
v -0.068573 -0.029703 0.864225
v 0.052771 -0.029703 0.864225
v -0.069447 -0.029703 0.863589
v 0.053646 -0.029703 0.863589
v -0.070254 -0.029703 0.862871
v 0.054453 -0.029703 0.862871
v -0.070986 -0.029703 0.862075
v 0.055184 -0.029703 0.862075
v -0.071635 -0.029703 0.861212
v 0.055834 -0.029703 0.861212
v 0.056394 -0.029703 0.860288
v -0.072196 -0.029703 0.860288
v -0.072662 -0.029703 0.859313
v 0.056861 -0.029703 0.859313
v -0.073030 -0.029703 0.858297
v 0.057229 -0.029703 0.858297
v 0.057494 -0.029703 0.857250
v -0.073295 -0.029703 0.857250
v -0.073455 -0.029703 0.856181
v 0.057654 -0.029703 0.856181
v 0.057761 -0.029703 0.854016
v 0.027438 -0.029703 0.762200
v 0.029922 -0.029703 0.759368
v 0.032015 -0.029703 0.756235
v 0.033682 -0.029703 0.752856
v 0.034893 -0.029703 0.749288
v 0.035628 -0.029703 0.745593
v 0.057761 -0.029703 0.594354
v 0.024605 -0.029703 0.764684
v 0.021473 -0.029703 0.766777
v 0.018094 -0.029703 0.768444
v 0.014526 -0.029703 0.769655
v 0.010831 -0.029703 0.770390
v 0.007071 -0.029703 0.770636
v -0.007901 -0.029703 0.770636
v 0.035874 -0.029703 0.741834
v 0.035874 -0.029703 0.594354
v 0.035874 -0.029703 0.594354
v 0.035874 -0.029703 0.741834
v 0.057761 -0.029703 0.594354
v 0.035628 -0.029703 0.745593
v -0.007901 -0.029703 0.770636
v -0.022873 -0.029703 0.770636
v 0.007071 -0.029703 0.770636
v -0.073563 -0.029703 0.854016
v 0.010831 -0.029703 0.770390
v 0.014526 -0.029703 0.769655
v 0.018094 -0.029703 0.768444
v 0.021473 -0.029703 0.766777
v 0.024605 -0.029703 0.764684
v 0.027438 -0.029703 0.762200
v 0.057761 -0.029703 0.854016
v 0.034893 -0.029703 0.749288
v 0.033682 -0.029703 0.752856
v 0.032015 -0.029703 0.756235
v 0.029922 -0.029703 0.759368
v -0.073455 -0.029703 0.856181
v 0.057654 -0.029703 0.856181
v 0.057494 -0.029703 0.857250
v -0.073295 -0.029703 0.857250
v -0.073030 -0.029703 0.858297
v 0.057229 -0.029703 0.858297
v 0.056861 -0.029703 0.859313
v -0.072662 -0.029703 0.859313
v 0.056394 -0.029703 0.860288
v -0.072196 -0.029703 0.860288
v -0.071635 -0.029703 0.861212
v 0.055834 -0.029703 0.861212
v 0.055184 -0.029703 0.862075
v -0.070986 -0.029703 0.862075
v 0.054453 -0.029703 0.862871
v -0.070254 -0.029703 0.862871
v 0.053646 -0.029703 0.863589
v -0.069447 -0.029703 0.863589
v 0.052771 -0.029703 0.864225
v -0.068573 -0.029703 0.864225
v 0.051839 -0.029703 0.864770
v -0.067640 -0.029703 0.864770
v 0.049869 -0.029703 0.865674
v -0.065670 -0.029703 0.865674
v -0.007901 -0.029703 0.888782
v -0.051675 -0.029703 0.594354
v -0.073563 -0.029703 0.594354
v -0.051675 -0.029703 0.628019
v -0.051675 -0.029703 0.741834
v -0.051429 -0.029703 0.745593
v -0.050694 -0.029703 0.749288
v -0.049483 -0.029703 0.752856
v -0.047817 -0.029703 0.756235
v -0.045724 -0.029703 0.759368
v -0.043239 -0.029703 0.762200
v -0.040407 -0.029703 0.764684
v -0.037274 -0.029703 0.766777
v -0.033895 -0.029703 0.768444
v -0.030328 -0.029703 0.769655
v -0.026632 -0.029703 0.770390
vn 0 -1 0
vn 0 1 0
usemtl material_0_0
f 1//1 2//1 3//1
f 2//1 1//1 4//1
f 4//1 1//1 5//1
f 5//1 1//1 6//1
f 6//1 1//1 7//1
f 7//1 1//1 8//1
f 8//1 1//1 9//1
f 9//1 1//1 10//1
f 10//1 1//1 11//1
f 11//1 1//1 12//1
f 12//1 1//1 13//1
f 13//1 1//1 14//1
f 13//1 14//1 15//1
f 15//1 14//1 16//1
f 16//1 14//1 17//1
f 18//1 19//1 20//1
f 19//1 18//1 21//1
f 19//1 21//1 22//1
f 22//1 21//1 23//1
f 22//1 23//1 24//1
f 24//1 23//1 25//1
f 24//1 25//1 26//1
f 26//1 25//1 27//1
f 26//1 27//1 28//1
f 28//1 27//1 29//1
f 28//1 29//1 30//1
f 30//1 29//1 31//1
f 30//1 31//1 32//1
f 32//1 31//1 33//1
f 33//1 31//1 34//1
f 33//1 34//1 35//1
f 33//1 35//1 36//1
f 36//1 35//1 37//1
f 36//1 37//1 38//1
f 38//1 37//1 39//1
f 39//1 37//1 40//1
f 39//1 40//1 41//1
f 39//1 41//1 42//1
f 42//1 41//1 43//1
f 43//1 41//1 1//1
f 43//1 1//1 44//1
f 43//1 44//1 45//1
f 43//1 45//1 46//1
f 43//1 46//1 47//1
f 43//1 47//1 48//1
f 43//1 48//1 49//1
f 43//1 49//1 50//1
f 44//1 1//1 51//1
f 51//1 1//1 52//1
f 52//1 1//1 53//1
f 53//1 1//1 54//1
f 54//1 1//1 55//1
f 55//1 1//1 56//1
f 56//1 1//1 3//1
f 56//1 3//1 57//1
f 50//1 49//1 58//1
f 50//1 58//1 59//1
f 60//2 61//2 62//2
f 61//2 63//2 62//2
f 64//2 65//2 66//2
f 65//2 67//2 66//2
f 66//2 67//2 68//2
f 68//2 67//2 69//2
f 69//2 67//2 70//2
f 70//2 67//2 71//2
f 71//2 67//2 72//2
f 72//2 67//2 73//2
f 62//2 63//2 74//2
f 63//2 75//2 74//2
f 75//2 76//2 74//2
f 76//2 77//2 74//2
f 77//2 78//2 74//2
f 78//2 73//2 74//2
f 73//2 67//2 74//2
f 67//2 79//2 74//2
f 74//2 79//2 80//2
f 80//2 79//2 81//2
f 79//2 82//2 81//2
f 82//2 83//2 81//2
f 81//2 83//2 84//2
f 84//2 83//2 85//2
f 83//2 86//2 85//2
f 85//2 86//2 87//2
f 86//2 88//2 87//2
f 88//2 89//2 87//2
f 87//2 89//2 90//2
f 90//2 89//2 91//2
f 89//2 92//2 91//2
f 91//2 92//2 93//2
f 92//2 94//2 93//2
f 93//2 94//2 95//2
f 94//2 96//2 95//2
f 95//2 96//2 97//2
f 96//2 98//2 97//2
f 97//2 98//2 99//2
f 98//2 100//2 99//2
f 99//2 100//2 101//2
f 100//2 102//2 101//2
f 103//2 101//2 102//2
f 104//2 105//2 106//2
f 106//2 105//2 107//2
f 107//2 105//2 108//2
f 105//2 67//2 108//2
f 108//2 67//2 109//2
f 109//2 67//2 110//2
f 110//2 67//2 111//2
f 111//2 67//2 112//2
f 112//2 67//2 113//2
f 113//2 67//2 114//2
f 114//2 67//2 115//2
f 115//2 67//2 116//2
f 116//2 67//2 117//2
f 117//2 67//2 118//2
f 65//2 118//2 67//2
