# SSTK version 0.8.0
# 18
mtllib original-18.mtl
o #ID95
v -0.011171 0.000918 0.259738
v -0.007652 -0.004918 0.258280
v -0.007652 0.000918 0.258280
v -0.011171 -0.004918 0.259738
v -0.014948 0.000918 0.260235
v -0.014948 -0.004918 0.260235
v -0.004630 -0.004918 0.255962
v -0.004630 0.000918 0.255962
v -0.018724 0.000918 0.259738
v -0.018724 -0.004918 0.259738
v -0.002311 0.000918 0.252940
v -0.002311 -0.004918 0.252940
v -0.022243 0.000918 0.258280
v -0.022243 -0.004918 0.258280
v -0.000853 0.000918 0.249420
v -0.000853 -0.004918 0.249420
v -0.025265 0.000918 0.255962
v -0.025265 -0.004918 0.255962
v -0.000356 0.000918 0.245644
v -0.000356 -0.004918 0.245644
v -0.027584 -0.004918 0.252940
v -0.027584 0.000918 0.252940
v -0.000853 0.000918 0.241867
v -0.000853 -0.004918 0.241867
v -0.029042 -0.004918 0.249420
v -0.029042 0.000918 0.249420
v -0.002311 0.000918 0.238348
v -0.002311 -0.004918 0.238348
v -0.029539 -0.004918 0.245644
v -0.029539 0.000918 0.245644
v -0.004630 0.000918 0.235326
v -0.004630 -0.004918 0.235326
v -0.029042 0.000918 0.241867
v -0.029042 -0.004918 0.241867
v -0.007652 -0.004918 0.233007
v -0.007652 0.000918 0.233007
v -0.027584 0.000918 0.238348
v -0.027584 -0.004918 0.238348
v -0.011171 -0.004918 0.231549
v -0.011171 0.000918 0.231549
v -0.025265 -0.004918 0.235326
v -0.025265 0.000918 0.235326
v -0.014948 -0.004918 0.231052
v -0.014948 0.000918 0.231052
v -0.022243 0.000918 0.233007
v -0.022243 -0.004918 0.233007
v -0.018724 -0.004918 0.231549
v -0.018724 0.000918 0.231549
vn 0.2588190095935616 0 0.9659258358036645
vn 0.5000000016387101 0 0.8660254028383291
vn 0 0 1
vn 0.7071067811865476 0 0.7071067811865476
vn -0.2588190095935616 0 0.9659258358036645
vn 0.8660254028383291 0 0.5000000016387101
vn -0.5000000016387101 0 0.8660254028383291
vn 0.9659258358036645 0 0.2588190095935616
vn -0.7071067811865476 0 0.7071067811865476
vn 1 0 0
vn -0.8660254028383291 0 0.5000000016387101
vn 0.9659258358036645 0 -0.2588190095935616
vn -0.9659258358036645 0 0.2588190095935616
vn 0.8660254028383291 0 -0.5000000016387101
vn -1 0 0
vn 0.7071067811865476 0 -0.7071067811865476
vn -0.9659258358036645 0 -0.2588190095935616
vn 0.5000000016387101 0 -0.8660254028383291
vn -0.8660254028383291 0 -0.5000000016387101
vn 0.2588190095935616 0 -0.9659258358036645
vn -0.7071067811865476 0 -0.7071067811865476
vn 0 0 -1
vn -0.5000000016387101 0 -0.8660254028383291
vn -0.2588190095935616 0 -0.9659258358036645
usemtl material_0_0
f 1//1 2//2 3//2
f 2//2 1//1 4//1
f 5//3 4//1 1//1
f 4//1 5//3 6//3
f 3//2 7//4 8//4
f 7//4 3//2 2//2
f 9//5 6//3 5//3
f 6//3 9//5 10//5
f 11//6 7//4 12//6
f 7//4 11//6 8//4
f 13//7 10//5 9//5
f 10//5 13//7 14//7
f 15//8 12//6 16//8
f 12//6 15//8 11//6
f 17//9 14//7 13//7
f 14//7 17//9 18//9
f 19//10 16//8 20//10
f 16//8 19//10 15//8
f 17//9 21//11 18//9
f 21//11 17//9 22//11
f 23//12 20//10 24//12
f 20//10 23//12 19//10
f 22//11 25//13 21//11
f 25//13 22//11 26//13
f 27//14 24//12 28//14
f 24//12 27//14 23//12
f 26//13 29//15 25//13
f 29//15 26//13 30//15
f 31//16 28//14 32//16
f 28//14 31//16 27//14
f 29//15 33//17 34//17
f 33//17 29//15 30//15
f 35//18 31//16 32//16
f 31//16 35//18 36//18
f 34//17 37//19 38//19
f 37//19 34//17 33//17
f 39//20 36//18 35//18
f 36//18 39//20 40//20
f 37//19 41//21 38//19
f 41//21 37//19 42//21
f 43//22 40//20 39//20
f 40//20 43//22 44//22
f 41//21 45//23 46//23
f 45//23 41//21 42//21
f 47//24 44//22 43//22
f 44//22 47//24 48//24
f 46//23 48//24 47//24
f 48//24 46//23 45//23
