# SSTK version 0.8.0
# 8
mtllib original-8.mtl
o #ID21
v 0.096415 0.000918 -0.911448
v 0.097070 -0.013673 -0.908608
v 0.096415 -0.013673 -0.911448
v 0.097070 0.000918 -0.908608
v 0.095340 0.000918 -0.914158
v 0.095340 -0.013673 -0.914158
v 0.097390 -0.013673 -0.904389
v 0.097390 0.000918 -0.904389
v 0.093870 0.000918 -0.916675
v 0.093870 -0.013673 -0.916675
v 0.092037 0.000918 -0.918942
v 0.092037 -0.013673 -0.918942
v 0.089883 -0.013673 -0.920907
v 0.089883 0.000918 -0.920907
v 0.087459 -0.013673 -0.922525
v 0.087459 0.000918 -0.922525
v 0.084819 -0.013673 -0.923760
v 0.084819 0.000918 -0.923760
v 0.082022 -0.013673 -0.924584
v 0.082022 0.000918 -0.924584
v 0.080802 -0.013673 -0.924944
v 0.080802 0.000918 -0.924944
vn 0.954684386860025 0 -0.2976200959036508
vn 0.9886061879348277 0 -0.15052509816295784
vn 0.8990075708122048 0 -0.4379330857817647
vn 0.9971474780096926 0 -0.07547785833547059
vn 0.822844500059323 0 -0.5682666000409692
vn 0.7279308018675065 0 -0.6856506017590366
vn 0.6164292807536665 0 -0.7874102754152484
vn 0.49088077622986476 0 -0.8712267578122045
vn 0.35414619041814105 0 -0.9351900746972872
vn 0.2825499004807912 0 -0.9592526016322787
usemtl material_0_0
f 1//1 2//2 3//1
f 2//2 1//1 4//2
f 5//3 3//1 6//3
f 3//1 5//3 1//1
f 4//2 7//4 2//2
f 7//4 4//2 8//4
f 9//5 6//3 10//5
f 6//3 9//5 5//3
f 11//6 10//5 12//6
f 10//5 11//6 9//5
f 13//7 11//6 12//6
f 11//6 13//7 14//7
f 15//8 14//7 13//7
f 14//7 15//8 16//8
f 17//9 16//8 15//8
f 16//8 17//9 18//9
f 19//10 18//9 17//9
f 18//9 19//10 20//10
f 20//10 19//10 21//10
f 20//10 21//10 22//10
