# SSTK version 0.8.0
# 27
mtllib original-27.mtl
o DF_12_BR1/DF_12_BR/mesh20/mesh20-geometry#mesh20-geometry
v 0.405569 0.448206 0.515222
v 0.339609 0.450924 0.517583
v 0.339609 0.448206 0.515222
v 0.402851 0.450924 0.517583
v 0.408729 0.445046 0.513494
v 0.405569 0.475278 0.515222
v 0.339609 0.453077 0.520470
v 0.339609 0.445046 0.513494
v 0.408729 0.475278 0.513494
v 0.402851 0.475278 0.517583
v 0.400698 0.453077 0.520470
v 0.410407 0.443368 0.512296
v 0.410407 0.475278 0.512296
v 0.400698 0.475278 0.520470
v 0.339609 0.454195 0.521055
v 0.339609 0.443368 0.512296
v 0.399580 0.454195 0.521055
v 0.411628 0.442147 0.510633
v 0.399580 0.475278 0.521055
v 0.339609 0.475278 0.521055
v 0.339609 0.442147 0.510633
v 0.411628 0.475278 0.510633
v 0.412267 0.441508 0.508673
v 0.339609 0.441508 0.508673
v 0.412267 0.475278 0.508673
v 0.412339 0.441436 0.507785
v 0.339609 0.441436 0.507785
v 0.412339 0.475278 0.507785
v 0.411984 0.441791 0.506453
v 0.339609 0.441791 0.506453
v 0.411984 0.475278 0.506453
v 0.409073 0.444702 0.502722
v 0.339609 0.444702 0.502722
v 0.409073 0.475278 0.502722
v 0.406925 0.446850 0.498506
v 0.339609 0.446850 0.498506
v 0.406925 0.475278 0.498506
v 0.405618 0.448157 0.493958
v 0.339609 0.448157 0.493958
v 0.405618 0.475278 0.493958
v 0.405199 0.448576 0.489245
v 0.339609 0.448576 0.489245
v 0.405199 0.475278 0.489245
v 0.339609 0.475278 0.489245
vt 0.449713 0.072259
vt 0.451049 0.104659
vt 0.449713 0.104659
vt 0.451049 0.073594
vt 0.448162 0.070707
vt 0.463012 0.072259
vt 0.452107 0.104659
vt 0.448162 0.104659
vt 0.463012 0.070707
vt 0.463012 0.073594
vt 0.452107 0.074652
vt 0.447337 0.069883
vt 0.463012 0.069883
vt 0.463012 0.074652
vt 0.452655 0.104659
vt 0.447337 0.104659
vt 0.452655 0.075201
vt 0.446738 0.069283
vt 0.463012 0.075201
vt 0.463012 0.104659
vt 0.446738 0.104659
vt 0.463012 0.069283
vt 0.446423 0.068969
vt 0.446423 0.104659
vt 0.463012 0.068969
vt 0.446388 0.068934
vt 0.446388 0.104659
vt 0.463012 0.068934
vt 0.446563 0.069108
vt 0.446563 0.104659
vt 0.463012 0.069108
vt 0.447992 0.070538
vt 0.447992 0.104659
vt 0.463012 0.070538
vt 0.449048 0.071593
vt 0.449048 0.104659
vt 0.463012 0.071593
vt 0.44969 0.072235
vt 0.44969 0.104659
vt 0.463012 0.072235
vt 0.449895 0.072441
vt 0.449895 0.104659
vt 0.463012 0.072441
vn 0 -0.5711658010112958 0.8208347140290332
vn 0 -0.732889577414526 0.6803476077103218
vn 0 -0.5313189263206815 0.8471718825205652
vn 0.5711658010112957 0 0.8208347140290334
vn 0.7328895774145258 0 0.6803476077103218
vn 0 -0.6488183093654029 0.7609433628281544
vn 0.5313189263206812 0 0.8471718825205653
vn 0 -0.7023040802224442 0.7118770813159438
vn 0.7023040802224441 0 0.711877081315944
vn 0.6488183093654026 0 0.7609433628281546
vn 0 -0.46371595898154316 0.8859839216294095
vn 0.46371595898154294 0 0.8859839216294096
vn 0 -0.8896042683758562 0.45673213778697186
vn 0.8896042683758563 0 0.4567321377869722
vn 0 0 1
vn 0 -0.98048760402771 0.1965809206103196
vn 0.98048760402771 0 0.19658092061031981
vn 0 -0.995966394559635 -0.08972703554604533
vn 0.9959663945596352 0 -0.08972703554604514
vn 0 -0.8954564118487053 -0.44514920473818875
vn 0.8954564118487054 0 -0.44514920473818853
vn 0 -0.8435401602912035 -0.5370661020543849
vn 0.8435401602912036 0 -0.5370661020543847
vn 0 -0.9302947376597117 -0.3668128965598784
vn 0.9302947376597118 0 -0.3668128965598782
vn 0 -0.9830819988792865 -0.18316599979119097
vn 0.9830819988792867 0 -0.18316599979119078
vn 0 -0.9960847920005838 -0.08840298153995675
vn 0.9960847920005838 0 -0.08840298153995653
vn 0 0 -1
vn 0 0.5711658010112958 -0.8208347140290332
vn 0 0.732889577414526 -0.6803476077103218
vn 0 0.5313189263206815 -0.8471718825205652
vn -0.5711658010112957 0 -0.8208347140290334
vn -0.7328895774145258 0 -0.6803476077103218
vn 0 0.6488183093654029 -0.7609433628281544
vn -0.5313189263206812 0 -0.8471718825205653
vn 0 0.7023040802224442 -0.7118770813159438
vn -0.7023040802224441 0 -0.711877081315944
vn -0.6488183093654026 0 -0.7609433628281546
vn 0 0.46371595898154316 -0.8859839216294095
vn -0.46371595898154294 0 -0.8859839216294096
vn 0 0.8896042683758562 -0.45673213778697186
vn -0.8896042683758563 0 -0.4567321377869722
vn 0 0.98048760402771 -0.1965809206103196
vn -0.98048760402771 0 -0.19658092061031981
vn 0 0.995966394559635 0.08972703554604533
vn -0.9959663945596352 0 0.08972703554604514
vn 0 0.8954564118487053 0.44514920473818875
vn -0.8954564118487054 0 0.44514920473818853
vn 0 0.8435401602912035 0.5370661020543849
vn -0.8435401602912036 0 0.5370661020543847
vn 0 0.9302947376597117 0.3668128965598784
vn -0.9302947376597118 0 0.3668128965598782
vn 0 0.9830819988792865 0.18316599979119097
vn -0.9830819988792867 0 0.18316599979119078
vn 0 0.9960847920005838 0.08840298153995675
vn -0.9960847920005838 0 0.08840298153995653
usemtl material_0_0
f 1/1/1 2/2/2 3/3/1
f 2/2/2 1/1/1 4/4/2
f 3/3/1 5/5/3 1/1/1
f 6/6/4 4/4/5 1/1/4
f 4/4/2 7/7/6 2/2/2
f 5/5/3 3/3/1 8/8/3
f 9/9/7 1/1/4 5/5/7
f 4/4/5 6/6/4 10/10/5
f 1/1/4 9/9/7 6/6/4
f 7/7/6 4/4/2 11/11/6
f 8/8/3 12/12/8 5/5/3
f 5/5/7 13/13/9 9/9/7
f 14/14/10 4/4/5 10/10/5
f 4/4/5 14/14/10 11/11/10
f 11/11/6 15/15/11 7/7/6
f 12/12/8 8/8/3 16/16/8
f 13/13/9 5/5/7 12/12/9
f 14/14/10 17/17/12 11/11/10
f 15/15/11 11/11/6 17/17/11
f 16/16/8 18/18/13 12/12/8
f 18/18/14 13/13/9 12/12/9
f 17/17/12 14/14/10 19/19/12
f 17/17/15 20/20/15 15/15/15
f 18/18/13 16/16/8 21/21/13
f 13/13/9 18/18/14 22/22/14
f 20/20/15 17/17/15 19/19/15
f 21/21/13 23/23/16 18/18/13
f 23/23/17 22/22/14 18/18/14
f 23/23/16 21/21/13 24/24/16
f 22/22/14 23/23/17 25/25/17
f 24/24/16 26/26/18 23/23/16
f 26/26/19 25/25/17 23/23/17
f 26/26/18 24/24/16 27/27/18
f 25/25/17 26/26/19 28/28/19
f 27/27/18 29/29/20 26/26/18
f 29/29/21 28/28/19 26/26/19
f 29/29/20 27/27/18 30/30/20
f 28/28/19 29/29/21 31/31/21
f 30/30/20 32/32/22 29/29/20
f 32/32/23 31/31/21 29/29/21
f 32/32/22 30/30/20 33/33/22
f 31/31/21 32/32/23 34/34/23
f 33/33/22 35/35/24 32/32/22
f 35/35/25 34/34/23 32/32/23
f 35/35/24 33/33/22 36/36/24
f 34/34/23 35/35/25 37/37/25
f 36/36/24 38/38/26 35/35/24
f 38/38/27 37/37/25 35/35/25
f 38/38/26 36/36/24 39/39/26
f 37/37/25 38/38/27 40/40/27
f 39/39/26 41/41/28 38/38/26
f 41/41/29 40/40/27 38/38/27
f 41/41/28 39/39/26 42/42/28
f 40/40/27 41/41/29 43/43/29
f 44/20/30 41/41/30 42/42/30
f 41/41/30 44/20/30 43/43/30
usemtl material_1_0
f 3//31 2//32 1//31
f 4//32 1//31 2//32
f 1//31 5//33 3//31
f 1//34 4//35 6//34
f 2//32 7//36 4//32
f 8//33 3//31 5//33
f 5//37 1//34 9//37
f 10//35 6//34 4//35
f 6//34 9//37 1//34
f 11//36 4//32 7//36
f 5//33 12//38 8//33
f 9//37 13//39 5//37
f 10//35 4//35 14//40
f 11//40 14//40 4//35
f 7//36 15//41 11//36
f 16//38 8//33 12//38
f 12//39 5//37 13//39
f 11//40 17//42 14//40
f 17//41 11//36 15//41
f 12//38 18//43 16//38
f 12//39 13//39 18//44
f 19//42 14//40 17//42
f 15//30 20//30 17//30
f 21//43 16//38 18//43
f 22//44 18//44 13//39
f 19//30 17//30 20//30
f 18//43 23//45 21//43
f 18//44 22//44 23//46
f 24//45 21//43 23//45
f 25//46 23//46 22//44
f 23//45 26//47 24//45
f 23//46 25//46 26//48
f 27//47 24//45 26//47
f 28//48 26//48 25//46
f 26//47 29//49 27//47
f 26//48 28//48 29//50
f 30//49 27//47 29//49
f 31//50 29//50 28//48
f 29//49 32//51 30//49
f 29//50 31//50 32//52
f 33//51 30//49 32//51
f 34//52 32//52 31//50
f 32//51 35//53 33//51
f 32//52 34//52 35//54
f 36//53 33//51 35//53
f 37//54 35//54 34//52
f 35//53 38//55 36//53
f 35//54 37//54 38//56
f 39//55 36//53 38//55
f 40//56 38//56 37//54
f 38//55 41//57 39//55
f 38//56 40//56 41//58
f 42//57 39//55 41//57
f 43//58 41//58 40//56
f 42//15 41//15 44//15
f 43//15 44//15 41//15
