# SSTK version 0.8.0
# 29
mtllib original-29.mtl
o DF_12_TC1/DF_12_TC/mesh22/mesh22-geometry#mesh22-geometry
v 0.339609 0.693982 0.512296
v -0.331381 0.692304 0.513494
v 0.339609 0.692304 0.513494
v -0.331381 0.693982 0.512296
v -0.331381 0.689145 0.515222
v -0.331381 0.695203 0.510633
v 0.339609 0.689145 0.515222
v 0.339609 0.695203 0.510633
v -0.331381 0.686426 0.517583
v -0.331381 0.695842 0.508673
v 0.339609 0.686426 0.517583
v 0.339609 0.695842 0.508673
v 0.339609 0.684273 0.520470
v -0.331381 0.695914 0.507785
v -0.331381 0.684273 0.520470
v 0.339609 0.695914 0.507785
v -0.331381 0.683155 0.521055
v -0.331381 0.695559 0.506453
v 0.339609 0.683155 0.521055
v 0.339609 0.695559 0.506453
v -0.331381 0.662072 0.521055
v -0.331381 0.692648 0.502722
v 0.339609 0.662072 0.521055
v 0.339609 0.692648 0.502722
v -0.331381 0.690500 0.498506
v 0.339609 0.690500 0.498506
v -0.331381 0.689193 0.493958
v 0.339609 0.689193 0.493958
v -0.331381 0.688774 0.489245
v 0.339609 0.688774 0.489245
v 0.339609 0.662072 0.489245
v -0.331381 0.662072 0.489245
vt 0.573044 0.104659
vt 0.572219 0.650396
vt 0.572219 0.104659
vt 0.573044 0.650396
vt 0.570667 0.650396
vt 0.573643 0.650396
vt 0.570667 0.104659
vt 0.573643 0.104659
vt 0.569332 0.650396
vt 0.573957 0.650396
vt 0.569332 0.104659
vt 0.573957 0.104659
vt 0.568274 0.104659
vt 0.573993 0.650396
vt 0.568274 0.650396
vt 0.573993 0.104659
vt 0.567726 0.650396
vt 0.573818 0.650396
vt 0.567725 0.104659
vt 0.573818 0.104659
vt 0.557369 0.650396
vt 0.572389 0.650396
vt 0.557369 0.104659
vt 0.572388 0.104659
vt 0.571333 0.650396
vt 0.571333 0.104659
vt 0.570691 0.650396
vt 0.570691 0.104659
vt 0.570486 0.650396
vt 0.570486 0.104659
vn 0 0.7023040802224437 0.711877081315944
vn 0 0.531318926320681 0.8471718825205654
vn 0 0.5711658010112954 0.8208347140290335
vn 0 0.8896042683758559 0.4567321377869723
vn 0 0.7328895774145258 0.680347607710322
vn 0 0.9804876040277097 0.19658092061031998
vn 0 0.6488183093654025 0.7609433628281548
vn 0 0.9959663945596352 -0.08972703554604491
vn 0 0.4637159589815427 0.8859839216294098
vn 0 0.8954564118487055 -0.4451492047381883
vn 0 0 1
vn 0 0.8435401602912037 -0.5370661020543844
vn 0 0.9302947376597119 -0.366812896559878
vn 0 0.9830819988792867 -0.18316599979119055
vn 0 0.9960847920005838 -0.08840298153995631
vn 0 0 -1
vn 0 -0.531318926320681 -0.8471718825205654
vn 0 -0.7023040802224437 -0.711877081315944
vn 0 -0.5711658010112954 -0.8208347140290335
vn 0 -0.8896042683758559 -0.4567321377869723
vn 0 -0.7328895774145258 -0.680347607710322
vn 0 -0.9804876040277097 -0.19658092061031998
vn 0 -0.6488183093654025 -0.7609433628281548
vn 0 -0.9959663945596352 0.08972703554604491
vn 0 -0.4637159589815427 -0.8859839216294098
vn 0 -0.8954564118487055 0.4451492047381883
vn 0 -0.8435401602912037 0.5370661020543844
vn 0 -0.9302947376597119 0.366812896559878
vn 0 -0.9830819988792867 0.18316599979119055
vn 0 -0.9960847920005838 0.08840298153995631
usemtl material_0_0
f 1/1/1 2/2/2 3/3/2
f 2/2/2 1/1/1 4/4/1
f 5/5/3 3/3/2 2/2/2
f 1/1/1 6/6/4 4/4/1
f 3/3/2 5/5/3 7/7/3
f 6/6/4 1/1/1 8/8/4
f 9/9/5 7/7/3 5/5/3
f 8/8/4 10/10/6 6/6/4
f 7/7/3 9/9/5 11/11/5
f 10/10/6 8/8/4 12/12/6
f 9/9/5 13/13/7 11/11/5
f 12/12/6 14/14/8 10/10/6
f 13/13/7 9/9/5 15/15/7
f 14/14/8 12/12/6 16/16/8
f 17/17/9 13/13/7 15/15/7
f 16/16/8 18/18/10 14/14/8
f 13/13/7 17/17/9 19/19/9
f 18/18/10 16/16/8 20/20/10
f 21/21/11 19/19/11 17/17/11
f 20/20/10 22/22/12 18/18/10
f 19/19/11 21/21/11 23/23/11
f 22/22/12 20/20/10 24/24/12
f 24/24/12 25/25/13 22/22/12
f 25/25/13 24/24/12 26/26/13
f 26/26/13 27/27/14 25/25/13
f 27/27/14 26/26/13 28/28/14
f 28/28/14 29/29/15 27/27/14
f 29/29/15 28/28/14 30/30/15
f 31/23/16 29/29/16 30/30/16
f 29/29/16 31/23/16 32/21/16
usemtl material_1_0
f 3//17 2//17 1//18
f 4//18 1//18 2//17
f 2//17 3//17 5//19
f 4//18 6//20 1//18
f 7//19 5//19 3//17
f 8//20 1//18 6//20
f 5//19 7//19 9//21
f 6//20 10//22 8//20
f 11//21 9//21 7//19
f 12//22 8//20 10//22
f 11//21 13//23 9//21
f 10//22 14//24 12//22
f 15//23 9//21 13//23
f 16//24 12//22 14//24
f 15//23 13//23 17//25
f 14//24 18//26 16//24
f 19//25 17//25 13//23
f 20//26 16//24 18//26
f 17//16 19//16 21//16
f 18//26 22//27 20//26
f 23//16 21//16 19//16
f 24//27 20//26 22//27
f 22//27 25//28 24//27
f 26//28 24//27 25//28
f 25//28 27//29 26//28
f 28//29 26//28 27//29
f 27//29 29//30 28//29
f 30//30 28//29 29//30
f 30//11 29//11 31//11
f 32//11 31//11 29//11
