# SSTK version 0.8.0
# 32
mtllib original-32.mtl
o DF_12_CR1/DF_12_CR/mesh25/mesh25-geometry#mesh25-geometry
v 0.405569 0.662072 0.515222
v 0.402851 0.475278 0.517583
v 0.405569 0.475278 0.515222
v 0.402851 0.662072 0.517583
v 0.408729 0.662072 0.513494
v 0.400698 0.662072 0.520470
v 0.408729 0.475278 0.513494
v 0.400698 0.475278 0.520470
v 0.410407 0.662072 0.512296
v 0.399580 0.475278 0.521055
v 0.410407 0.475278 0.512296
v 0.399580 0.662072 0.521055
v 0.411628 0.475278 0.510633
v 0.339609 0.475278 0.521055
v 0.411628 0.662072 0.510633
v 0.339609 0.662072 0.521055
v 0.412267 0.475278 0.508673
v 0.412267 0.662072 0.508673
v 0.412339 0.475278 0.507785
v 0.412339 0.662072 0.507785
v 0.411984 0.475278 0.506453
v 0.411984 0.662072 0.506453
v 0.409073 0.475278 0.502722
v 0.409073 0.662072 0.502722
v 0.406925 0.475278 0.498506
v 0.406925 0.662072 0.498506
v 0.405618 0.475278 0.493958
v 0.405618 0.662072 0.493958
v 0.405199 0.475278 0.489245
v 0.405199 0.662072 0.489245
v 0.339609 0.662072 0.489245
v 0.339609 0.475278 0.489245
vt 0.557369 0.072259
vt 0.463012 0.073594
vt 0.463012 0.072259
vt 0.557369 0.073594
vt 0.557369 0.070707
vt 0.557369 0.074652
vt 0.463012 0.070707
vt 0.463012 0.074652
vt 0.557369 0.069883
vt 0.463012 0.075201
vt 0.463012 0.069883
vt 0.557369 0.075201
vt 0.463012 0.069283
vt 0.463012 0.104659
vt 0.557369 0.069283
vt 0.557369 0.104659
vt 0.463012 0.068969
vt 0.557369 0.068969
vt 0.463012 0.068934
vt 0.557369 0.068934
vt 0.463012 0.069108
vt 0.557369 0.069108
vt 0.463012 0.070538
vt 0.557369 0.070538
vt 0.463012 0.071593
vt 0.557369 0.071593
vt 0.463012 0.072235
vt 0.557369 0.072235
vt 0.463012 0.072441
vt 0.557369 0.072441
vn 0.5711658010112957 0 0.8208347140290334
vn 0.7328895774145258 0 0.6803476077103218
vn 0.5313189263206812 0 0.8471718825205653
vn 0.6488183093654026 0 0.7609433628281546
vn 0.7023040802224441 0 0.711877081315944
vn 0.46371595898154294 0 0.8859839216294096
vn 0.8896042683758563 0 0.4567321377869722
vn 0 0 1
vn 0.98048760402771 0 0.19658092061031981
vn 0.9959663945596352 0 -0.08972703554604514
vn 0.8954564118487054 0 -0.44514920473818853
vn 0.8435401602912036 0 -0.5370661020543847
vn 0.9302947376597118 0 -0.3668128965598782
vn 0.9830819988792867 0 -0.18316599979119078
vn 0.9960847920005838 0 -0.08840298153995653
vn 0 0 -1
vn -0.5711658010112957 0 -0.8208347140290334
vn -0.7328895774145258 0 -0.6803476077103218
vn -0.5313189263206812 0 -0.8471718825205653
vn -0.6488183093654026 0 -0.7609433628281546
vn -0.7023040802224441 0 -0.711877081315944
vn -0.46371595898154294 0 -0.8859839216294096
vn -0.8896042683758563 0 -0.4567321377869722
vn -0.98048760402771 0 -0.19658092061031981
vn -0.9959663945596352 0 0.08972703554604514
vn -0.8954564118487054 0 0.44514920473818853
vn -0.8435401602912036 0 0.5370661020543847
vn -0.9302947376597118 0 0.3668128965598782
vn -0.9830819988792867 0 0.18316599979119078
vn -0.9960847920005838 0 0.08840298153995653
usemtl material_0_0
f 1/1/1 2/2/2 3/3/1
f 2/2/2 1/1/1 4/4/2
f 3/3/1 5/5/3 1/1/1
f 6/6/4 2/2/2 4/4/2
f 5/5/3 3/3/1 7/7/3
f 2/2/2 6/6/4 8/8/4
f 7/7/3 9/9/5 5/5/3
f 6/6/4 10/10/6 8/8/4
f 9/9/5 7/7/3 11/11/5
f 10/10/6 6/6/4 12/12/6
f 13/13/7 9/9/5 11/11/5
f 12/12/8 14/14/8 10/10/8
f 9/9/5 13/13/7 15/15/7
f 14/14/8 12/12/8 16/16/8
f 17/17/9 15/15/7 13/13/7
f 15/15/7 17/17/9 18/18/9
f 19/19/10 18/18/9 17/17/9
f 18/18/9 19/19/10 20/20/10
f 21/21/11 20/20/10 19/19/10
f 20/20/10 21/21/11 22/22/11
f 23/23/12 22/22/11 21/21/11
f 22/22/11 23/23/12 24/24/12
f 25/25/13 24/24/12 23/23/12
f 24/24/12 25/25/13 26/26/13
f 27/27/14 26/26/13 25/25/13
f 26/26/13 27/27/14 28/28/14
f 29/29/15 28/28/14 27/27/14
f 28/28/14 29/29/15 30/30/15
f 29/29/16 31/16/16 30/30/16
f 31/16/16 29/29/16 32/14/16
usemtl material_1_0
f 3//17 2//18 1//17
f 4//18 1//17 2//18
f 1//17 5//19 3//17
f 4//18 2//18 6//20
f 7//19 3//17 5//19
f 8//20 6//20 2//18
f 5//19 9//21 7//19
f 8//20 10//22 6//20
f 11//21 7//19 9//21
f 12//22 6//20 10//22
f 11//21 9//21 13//23
f 10//16 14//16 12//16
f 15//23 13//23 9//21
f 16//16 12//16 14//16
f 13//23 15//23 17//24
f 18//24 17//24 15//23
f 17//24 18//24 19//25
f 20//25 19//25 18//24
f 19//25 20//25 21//26
f 22//26 21//26 20//25
f 21//26 22//26 23//27
f 24//27 23//27 22//26
f 23//27 24//27 25//28
f 26//28 25//28 24//27
f 25//28 26//28 27//29
f 28//29 27//29 26//28
f 27//29 28//29 29//30
f 30//30 29//30 28//29
f 30//8 31//8 29//8
f 32//8 29//8 31//8
