# SSTK version 0.8.0
# 25
mtllib original-25.mtl
o DF_12_TL1/DF_12_TL/mesh18/mesh18-geometry#mesh18-geometry
v -0.331381 0.689193 0.493958
v -0.396971 0.688774 0.489245
v -0.397389 0.689193 0.493958
v -0.331381 0.688774 0.489245
v -0.396971 0.662072 0.489245
v -0.331381 0.690500 0.498506
v -0.331381 0.662072 0.489245
v -0.397389 0.662072 0.493958
v -0.398696 0.690500 0.498506
v -0.398696 0.662072 0.498506
v -0.331381 0.692648 0.502722
v -0.400845 0.692648 0.502722
v -0.400845 0.662072 0.502722
v -0.331381 0.695559 0.506453
v -0.403756 0.695559 0.506453
v -0.403756 0.662072 0.506453
v -0.331381 0.695914 0.507785
v -0.404110 0.662072 0.507785
v -0.404110 0.695914 0.507785
v -0.404039 0.695842 0.508673
v -0.331381 0.695842 0.508673
v -0.404039 0.662072 0.508673
v -0.403399 0.695203 0.510633
v -0.403399 0.662072 0.510633
v -0.331381 0.695203 0.510633
v -0.402179 0.693982 0.512296
v -0.402179 0.662072 0.512296
v -0.331381 0.693982 0.512296
v -0.400500 0.692304 0.513494
v -0.331381 0.692304 0.513494
v -0.400500 0.662072 0.513494
v -0.397341 0.689145 0.515222
v -0.331381 0.689145 0.515222
v -0.397341 0.662072 0.515222
v -0.394622 0.686426 0.517583
v -0.331381 0.686426 0.517583
v -0.394622 0.662072 0.517583
v -0.392469 0.684273 0.520470
v -0.392469 0.662072 0.520470
v -0.331381 0.684273 0.520470
v -0.391352 0.683155 0.521055
v -0.331381 0.683155 0.521055
v -0.391352 0.662072 0.521055
v -0.331381 0.662072 0.521055
vt 0.576211 0.650396
vt 0.576006 0.682614
vt 0.576211 0.68282
vt 0.576006 0.650396
vt 0.557369 0.682614
vt 0.570691 0.68282
vt 0.570486 0.682614
vt 0.576854 0.650396
vt 0.557369 0.650396
vt 0.570486 0.650396
vt 0.557369 0.68282
vt 0.576854 0.683462
vt 0.557369 0.683462
vt 0.571333 0.683462
vt 0.577909 0.650396
vt 0.572389 0.684517
vt 0.577909 0.684517
vt 0.557369 0.684517
vt 0.579339 0.650396
vt 0.573818 0.685947
vt 0.579339 0.685947
vt 0.557369 0.685947
vt 0.579513 0.650396
vt 0.557369 0.686121
vt 0.579513 0.686121
vt 0.573993 0.686121
vt 0.579478 0.686086
vt 0.573957 0.686086
vt 0.579478 0.650396
vt 0.557369 0.686086
vt 0.579164 0.685772
vt 0.557369 0.685772
vt 0.579164 0.650396
vt 0.573643 0.685772
vt 0.578564 0.685173
vt 0.557369 0.685173
vt 0.578564 0.650396
vt 0.573044 0.685173
vt 0.57774 0.684348
vt 0.572219 0.684348
vt 0.57774 0.650396
vt 0.557369 0.684348
vt 0.576188 0.682796
vt 0.570667 0.682796
vt 0.576188 0.650396
vt 0.557369 0.682796
vt 0.574852 0.681461
vt 0.569332 0.681461
vt 0.574852 0.650396
vt 0.557369 0.681461
vt 0.573795 0.680403
vt 0.557369 0.680403
vt 0.573795 0.650396
vt 0.568274 0.680403
vt 0.573246 0.679854
vt 0.567726 0.679854
vt 0.573246 0.650396
vt 0.557369 0.679854
vt 0.567726 0.650396
vn 0 0.9830819988792867 -0.18316599979119055
vn 0 0.9960847920005838 -0.08840298153995631
vn -0.9960847920005838 0 -0.08840298153995653
vn -0.9830819988792867 0 -0.18316599979119078
vn 0 0.9302947376597119 -0.366812896559878
vn 0 0 -1
vn -0.9302947376597118 0 -0.3668128965598782
vn 0 0.8435401602912037 -0.5370661020543844
vn -0.8435401602912036 0 -0.5370661020543847
vn 0 0.8954564118487055 -0.4451492047381883
vn -0.8954564118487054 0 -0.44514920473818853
vn 0 0.9959663945596352 -0.08972703554604491
vn -0.9959663945596352 0 -0.08972703554604514
vn 0 0.9804876040277097 0.19658092061031998
vn -0.98048760402771 0 0.19658092061031981
vn 0 0.8896042683758559 0.4567321377869723
vn -0.8896042683758563 0 0.4567321377869722
vn 0 0.7023040802224437 0.711877081315944
vn -0.7023040802224441 0 0.711877081315944
vn 0 0.531318926320681 0.8471718825205654
vn -0.5313189263206812 0 0.8471718825205653
vn 0 0.5711658010112954 0.8208347140290335
vn -0.5711658010112957 0 0.8208347140290334
vn 0 0.7328895774145258 0.680347607710322
vn -0.7328895774145258 0 0.6803476077103218
vn 0 0.6488183093654025 0.7609433628281548
vn -0.6488183093654026 0 0.7609433628281546
vn 0 0.4637159589815427 0.8859839216294098
vn -0.46371595898154294 0 0.8859839216294096
vn 0 0 1
vn 0 -0.9830819988792867 0.18316599979119055
vn 0 -0.9960847920005838 0.08840298153995631
vn 0.9960847920005838 0 0.08840298153995653
vn 0.9830819988792867 0 0.18316599979119078
vn 0 -0.9302947376597119 0.366812896559878
vn 0.9302947376597118 0 0.3668128965598782
vn 0 -0.8435401602912037 0.5370661020543844
vn 0.8435401602912036 0 0.5370661020543847
vn 0 -0.8954564118487055 0.4451492047381883
vn 0.8954564118487054 0 0.44514920473818853
vn 0 -0.9959663945596352 0.08972703554604491
vn 0.9959663945596352 0 0.08972703554604514
vn 0 -0.9804876040277097 -0.19658092061031998
vn 0.98048760402771 0 -0.19658092061031981
vn 0 -0.8896042683758559 -0.4567321377869723
vn 0.8896042683758563 0 -0.4567321377869722
vn 0 -0.7023040802224437 -0.711877081315944
vn 0.7023040802224441 0 -0.711877081315944
vn 0 -0.531318926320681 -0.8471718825205654
vn 0.5313189263206812 0 -0.8471718825205653
vn 0 -0.5711658010112954 -0.8208347140290335
vn 0.5711658010112957 0 -0.8208347140290334
vn 0 -0.7328895774145258 -0.680347607710322
vn 0.7328895774145258 0 -0.6803476077103218
vn 0 -0.6488183093654025 -0.7609433628281548
vn 0.6488183093654026 0 -0.7609433628281546
vn 0 -0.4637159589815427 -0.8859839216294098
vn 0.46371595898154294 0 -0.8859839216294096
usemtl material_0_0
f 1/1/1 2/2/2 3/3/1
f 2/2/2 1/1/1 4/4/2
f 5/5/3 3/6/4 2/7/3
f 3/3/1 6/8/5 1/1/1
f 7/9/6 2/7/6 4/10/6
f 3/6/4 5/5/3 8/11/4
f 2/7/6 7/9/6 5/5/6
f 6/8/5 3/3/1 9/12/5
f 10/13/7 3/6/4 8/11/4
f 3/6/4 10/13/7 9/14/7
f 9/12/5 11/15/8 6/8/5
f 10/13/7 12/16/9 9/14/7
f 11/15/8 9/12/5 12/17/8
f 12/16/9 10/13/7 13/18/9
f 12/17/8 14/19/10 11/15/8
f 13/18/9 15/20/11 12/16/9
f 14/19/10 12/17/8 15/21/10
f 15/20/11 13/18/9 16/22/11
f 15/21/10 17/23/12 14/19/10
f 18/24/13 15/20/11 16/22/11
f 17/23/12 15/21/10 19/25/12
f 15/20/11 18/24/13 19/26/13
f 20/27/14 17/23/12 19/25/12
f 18/24/13 20/28/15 19/26/13
f 17/23/12 20/27/14 21/29/14
f 20/28/15 18/24/13 22/30/15
f 23/31/16 21/29/14 20/27/14
f 24/32/17 20/28/15 22/30/15
f 21/29/14 23/31/16 25/33/16
f 20/28/15 24/32/17 23/34/17
f 26/35/18 25/33/16 23/31/16
f 27/36/19 23/34/17 24/32/17
f 25/33/16 26/35/18 28/37/18
f 23/34/17 27/36/19 26/38/19
f 29/39/20 28/37/18 26/35/18
f 27/36/19 29/40/21 26/38/19
f 28/37/18 29/39/20 30/41/20
f 29/40/21 27/36/19 31/42/21
f 32/43/22 30/41/20 29/39/20
f 31/42/21 32/44/23 29/40/21
f 30/41/20 32/43/22 33/45/22
f 32/44/23 31/42/21 34/46/23
f 35/47/24 33/45/22 32/43/22
f 34/46/23 35/48/25 32/44/23
f 33/45/22 35/47/24 36/49/24
f 35/48/25 34/46/23 37/50/25
f 38/51/26 36/49/24 35/47/24
f 39/52/27 35/48/25 37/50/25
f 36/49/24 38/51/26 40/53/26
f 35/48/25 39/52/27 38/54/27
f 41/55/28 40/53/26 38/51/26
f 39/52/27 41/56/29 38/54/27
f 40/53/26 41/55/28 42/57/28
f 41/56/29 39/52/27 43/58/29
f 43/58/30 42/59/30 41/56/30
f 42/59/30 43/58/30 44/9/30
usemtl material_1_0
f 3//31 2//32 1//31
f 4//32 1//31 2//32
f 2//33 3//34 5//33
f 1//31 6//35 3//31
f 4//30 2//30 7//30
f 8//34 5//33 3//34
f 5//30 7//30 2//30
f 9//35 3//31 6//35
f 8//34 3//34 10//36
f 9//36 10//36 3//34
f 6//35 11//37 9//35
f 9//36 12//38 10//36
f 12//37 9//35 11//37
f 13//38 10//36 12//38
f 11//37 14//39 12//37
f 12//38 15//40 13//38
f 15//39 12//37 14//39
f 16//40 13//38 15//40
f 14//39 17//41 15//39
f 16//40 15//40 18//42
f 19//41 15//39 17//41
f 19//42 18//42 15//40
f 19//41 17//41 20//43
f 19//42 20//44 18//42
f 21//43 20//43 17//41
f 22//44 18//42 20//44
f 20//43 21//43 23//45
f 22//44 20//44 24//46
f 25//45 23//45 21//43
f 23//46 24//46 20//44
f 23//45 25//45 26//47
f 24//46 23//46 27//48
f 28//47 26//47 25//45
f 26//48 27//48 23//46
f 26//47 28//47 29//49
f 26//48 29//50 27//48
f 30//49 29//49 28//47
f 31//50 27//48 29//50
f 29//49 30//49 32//51
f 29//50 32//52 31//50
f 33//51 32//51 30//49
f 34//52 31//50 32//52
f 32//51 33//51 35//53
f 32//52 35//54 34//52
f 36//53 35//53 33//51
f 37//54 34//52 35//54
f 35//53 36//53 38//55
f 37//54 35//54 39//56
f 40//55 38//55 36//53
f 38//56 39//56 35//54
f 38//55 40//55 41//57
f 38//56 41//58 39//56
f 42//57 41//57 40//55
f 43//58 39//56 41//58
f 41//6 42//6 43//6
f 44//6 43//6 42//6
