# SSTK version 0.8.0
# 42
mtllib original-42.mtl
o RT_11_BC1/RT_11_BC/mesh33/mesh33-geometry#mesh33-geometry
v 0.238250 -0.383873 0.508706
v -0.230022 -0.387343 0.509675
v 0.238250 -0.387343 0.509675
v -0.230022 -0.383873 0.508706
v -0.230022 -0.389999 0.512056
v 0.238250 -0.380285 0.508379
v 0.238250 -0.389999 0.512056
v -0.230022 -0.380285 0.508379
v -0.230022 -0.393145 0.513739
v 0.238250 -0.376697 0.508706
v 0.238250 -0.393145 0.513739
v -0.230022 -0.376697 0.508706
v -0.230022 -0.396600 0.514628
v 0.238250 -0.373228 0.509675
v 0.238250 -0.396600 0.514628
v -0.230022 -0.373228 0.509675
v -0.230022 -0.397956 0.514799
v 0.238250 -0.370571 0.512056
v 0.238250 -0.397956 0.514799
v -0.230022 -0.370571 0.512056
v -0.230022 -0.399185 0.515395
v 0.238250 -0.367426 0.513739
v 0.238250 -0.399185 0.515395
v -0.230022 -0.367426 0.513739
v -0.230022 -0.400159 0.516353
v 0.238250 -0.363971 0.514628
v 0.238250 -0.400159 0.516353
v -0.230022 -0.363971 0.514628
v -0.230022 -0.400967 0.517086
v 0.238250 -0.362615 0.514799
v 0.238250 -0.400967 0.517086
v -0.230022 -0.362615 0.514799
v -0.230022 -0.401805 0.517347
v 0.238250 -0.361386 0.515395
v 0.238250 -0.401805 0.517347
v -0.230022 -0.361386 0.515395
v -0.230022 -0.402934 0.518021
v 0.238250 -0.360412 0.516353
v 0.238250 -0.402934 0.518021
v -0.230022 -0.360412 0.516353
v 0.238250 -0.403684 0.519100
v 0.238250 -0.359603 0.517086
v -0.230022 -0.403684 0.519100
v -0.230022 -0.359603 0.517086
v 0.238250 -0.403922 0.520393
v 0.238250 -0.358765 0.517347
v -0.230022 -0.403922 0.520393
v -0.230022 -0.358765 0.517347
v -0.230022 -0.405061 0.521055
v 0.238250 -0.357636 0.518021
v 0.238250 -0.405061 0.521055
v -0.230022 -0.357636 0.518021
v -0.230022 -0.478890 0.521055
v -0.230022 -0.356886 0.519100
v 0.238250 -0.478890 0.521055
v 0.238250 -0.356886 0.519100
v -0.230022 -0.480007 0.520470
v -0.230022 -0.356649 0.520393
v 0.238250 -0.480007 0.520470
v 0.238250 -0.356649 0.520393
v 0.238250 -0.482160 0.517583
v 0.238250 -0.355509 0.521055
v -0.230022 -0.482160 0.517583
v -0.230022 -0.355509 0.521055
v -0.230022 -0.484879 0.515222
v 0.238250 -0.291742 0.521055
v 0.238250 -0.484879 0.515222
v -0.230022 -0.291742 0.521055
v -0.230022 -0.488038 0.513494
v 0.238250 -0.488038 0.513494
v -0.230022 -0.489717 0.512296
v 0.238250 -0.489717 0.512296
v 0.238250 -0.490937 0.510633
v -0.230022 -0.490937 0.510633
v 0.238250 -0.491577 0.508673
v -0.230022 -0.491577 0.508673
v 0.238250 -0.491648 0.507785
v -0.230022 -0.491648 0.507785
v 0.238250 -0.491294 0.506453
v -0.230022 -0.491294 0.506453
v 0.238250 -0.488383 0.502722
v -0.230022 -0.488383 0.502722
v 0.238250 -0.486234 0.498506
v -0.230022 -0.486234 0.498506
v 0.238250 -0.484927 0.493958
v -0.230022 -0.484927 0.493958
v 0.238250 -0.484509 0.489245
v -0.230022 -0.484509 0.489245
v -0.230022 -0.291742 0.489245
v 0.238250 -0.291742 0.489245
vt 0.255352 0.052939
vt 0.085513 0.051235
vt 0.255352 0.051235
vt 0.085513 0.052939
vt 0.085513 0.04993
vt 0.255352 0.054702
vt 0.255352 0.04993
vt 0.085513 0.054702
vt 0.085513 0.048385
vt 0.255352 0.056464
vt 0.255352 0.048385
vt 0.085513 0.056464
vt 0.085513 0.046688
vt 0.255352 0.058169
vt 0.255352 0.046688
vt 0.085513 0.058169
vt 0.085513 0.046022
vt 0.255352 0.059473
vt 0.255352 0.046022
vt 0.085513 0.059473
vt 0.085513 0.045418
vt 0.255352 0.061018
vt 0.255352 0.045418
vt 0.085513 0.061018
vt 0.085513 0.04494
vt 0.255352 0.062716
vt 0.255352 0.04494
vt 0.085513 0.062716
vt 0.085513 0.044543
vt 0.255352 0.063381
vt 0.255352 0.044543
vt 0.085513 0.063381
vt 0.085513 0.044131
vt 0.255352 0.063985
vt 0.255352 0.044131
vt 0.085513 0.063985
vt 0.085513 0.043577
vt 0.255352 0.064464
vt 0.255352 0.043577
vt 0.085513 0.064464
vt 0.255352 0.043208
vt 0.255352 0.064861
vt 0.085513 0.043208
vt 0.085513 0.064861
vt 0.255352 0.043092
vt 0.255352 0.065272
vt 0.085513 0.043092
vt 0.085513 0.065272
vt 0.085513 0.042532
vt 0.255352 0.065827
vt 0.255352 0.042532
vt 0.085513 0.065827
vt 0.085513 0.006267
vt 0.085513 0.066195
vt 0.255352 0.006267
vt 0.255352 0.066195
vt 0.085513 0.005718
vt 0.085513 0.066312
vt 0.255352 0.005718
vt 0.255352 0.066312
vt 0.255352 0.00466
vt 0.255352 0.066872
vt 0.085513 0.00466
vt 0.085513 0.066872
vt 0.085513 0.003325
vt 0.255352 0.098194
vt 0.255352 0.003325
vt 0.085513 0.098194
vt 0.085513 0.001773
vt 0.255352 0.001773
vt 0.085513 0.000949
vt 0.255352 0.000949
vt 0.255352 0.000349
vt 0.085513 0.000349
vt 0.255352 0.000035
vt 0.085513 0.000035
vt 0.255352 0
vt 0.085513 0
vt 0.255352 0.000174
vt 0.085513 0.000174
vt 0.255352 0.001604
vt 0.085513 0.001604
vt 0.255352 0.002659
vt 0.085513 0.002659
vt 0.255352 0.003301
vt 0.085513 0.003301
vt 0.255352 0.003507
vt 0.085513 0.003507
vn 0 0.18057292631064134 0.9835615986218716
vn 0 0.4808589733880628 0.876797951475811
vn 0 0.5737708942262059 0.8190158490156708
vn 0 0 1
vn 0 0.3629938229861051 0.9317915456119636
vn 0 -0.18057292631064176 0.9835615986218715
vn 0 0.18744405353768429 0.9822752805570146
vn 0 -0.48085897338806316 0.8767979514758105
vn 0 0.2844608944842286 0.9586876443916613
vn 0 -0.5737708942262063 0.8190158490156706
vn 0 0.576493041088678 0.8171020582377256
vn 0 -0.36299382298610555 0.9317915456119634
vn 0 0.686752928272094 0.7268909240798815
vn 0 -0.18744405353768467 0.9822752805570144
vn 0 0.49632415789438844 0.8681372761783854
vn 0 -0.28446089448422907 0.9586876443916611
vn 0 0.4077768327191712 0.9130816254297974
vn 0 -0.5764930410886785 0.8171020582377254
vn 0 0.6821501325267761 0.7312121420584463
vn 0 -0.6867529282720942 0.7268909240798813
vn 0 0.9231746151350452 0.38438083975435217
vn 0 -0.4963241578943888 0.8681372761783852
vn 0 0.8178150999427358 0.5754810703278196
vn 0 -0.40777683271917164 0.9130816254297972
vn 0 0.502223062684222 0.8647381079309968
vn 0 -0.6821501325267764 0.7312121420584461
vn 0 -0.9231746151350454 0.3843808397543517
vn 0 -0.6488183093654029 0.7609433628281544
vn 0 -0.46371595898154316 0.8859839216294095
vn 0 -0.8178150999427362 0.5754810703278194
vn 0 -0.732889577414526 0.6803476077103218
vn 0 -0.5022230626842223 0.8647381079309964
vn 0 -0.5711658010112958 0.8208347140290332
vn 0 -0.5313189263206815 0.8471718825205652
vn 0 -0.7023040802224442 0.7118770813159438
vn 0 -0.8896042683758562 0.45673213778697186
vn 0 -0.98048760402771 0.1965809206103196
vn 0 -0.995966394559635 -0.08972703554604533
vn 0 -0.8954564118487053 -0.44514920473818875
vn 0 -0.8435401602912035 -0.5370661020543849
vn 0 -0.9302947376597117 -0.3668128965598784
vn 0 -0.9830819988792865 -0.18316599979119097
vn 0 -0.9960847920005838 -0.08840298153995675
vn 0 0 -1
vn 0 -0.4808589733880628 -0.876797951475811
vn 0 -0.18057292631064134 -0.9835615986218716
vn 0 -0.5737708942262059 -0.8190158490156708
vn 0 -0.3629938229861051 -0.9317915456119636
vn 0 0.18057292631064176 -0.9835615986218715
vn 0 -0.18744405353768429 -0.9822752805570146
vn 0 0.48085897338806316 -0.8767979514758105
vn 0 -0.2844608944842286 -0.9586876443916613
vn 0 0.5737708942262063 -0.8190158490156706
vn 0 -0.576493041088678 -0.8171020582377256
vn 0 0.36299382298610555 -0.9317915456119634
vn 0 -0.686752928272094 -0.7268909240798815
vn 0 0.18744405353768467 -0.9822752805570144
vn 0 -0.49632415789438844 -0.8681372761783854
vn 0 0.28446089448422907 -0.9586876443916611
vn 0 -0.4077768327191712 -0.9130816254297974
vn 0 0.5764930410886785 -0.8171020582377254
vn 0 -0.6821501325267761 -0.7312121420584463
vn 0 0.6867529282720942 -0.7268909240798813
vn 0 -0.9231746151350452 -0.38438083975435217
vn 0 0.4963241578943888 -0.8681372761783852
vn 0 -0.8178150999427358 -0.5754810703278196
vn 0 0.40777683271917164 -0.9130816254297972
vn 0 -0.502223062684222 -0.8647381079309968
vn 0 0.6821501325267764 -0.7312121420584461
vn 0 0.9231746151350454 -0.3843808397543517
vn 0 0.46371595898154316 -0.8859839216294095
vn 0 0.6488183093654029 -0.7609433628281544
vn 0 0.8178150999427362 -0.5754810703278194
vn 0 0.732889577414526 -0.6803476077103218
vn 0 0.5022230626842223 -0.8647381079309964
vn 0 0.5711658010112958 -0.8208347140290332
vn 0 0.5313189263206815 -0.8471718825205652
vn 0 0.7023040802224442 -0.7118770813159438
vn 0 0.8896042683758562 -0.45673213778697186
vn 0 0.98048760402771 -0.1965809206103196
vn 0 0.995966394559635 0.08972703554604533
vn 0 0.8954564118487053 0.44514920473818875
vn 0 0.8435401602912035 0.5370661020543849
vn 0 0.9302947376597117 0.3668128965598784
vn 0 0.9830819988792865 0.18316599979119097
vn 0 0.9960847920005838 0.08840298153995675
usemtl material_0_0
f 1/1/1 2/2/2 3/3/2
f 2/2/2 1/1/1 4/4/1
f 5/5/3 3/3/2 2/2/2
f 6/6/4 4/4/1 1/1/1
f 3/3/2 5/5/3 7/7/3
f 4/4/1 6/6/4 8/8/4
f 9/9/5 7/7/3 5/5/3
f 10/10/6 8/8/4 6/6/4
f 7/7/3 9/9/5 11/11/5
f 8/8/4 10/10/6 12/12/6
f 13/13/7 11/11/5 9/9/5
f 14/14/8 12/12/6 10/10/6
f 11/11/5 13/13/7 15/15/7
f 12/12/6 14/14/8 16/16/8
f 17/17/9 15/15/7 13/13/7
f 18/18/10 16/16/8 14/14/8
f 15/15/7 17/17/9 19/19/9
f 16/16/8 18/18/10 20/20/10
f 21/21/11 19/19/9 17/17/9
f 22/22/12 20/20/10 18/18/10
f 19/19/9 21/21/11 23/23/11
f 20/20/10 22/22/12 24/24/12
f 25/25/13 23/23/11 21/21/11
f 26/26/14 24/24/12 22/22/12
f 23/23/11 25/25/13 27/27/13
f 24/24/12 26/26/14 28/28/14
f 29/29/15 27/27/13 25/25/13
f 30/30/16 28/28/14 26/26/14
f 27/27/13 29/29/15 31/31/15
f 28/28/14 30/30/16 32/32/16
f 33/33/17 31/31/15 29/29/15
f 34/34/18 32/32/16 30/30/16
f 31/31/15 33/33/17 35/35/17
f 32/32/16 34/34/18 36/36/18
f 37/37/19 35/35/17 33/33/17
f 38/38/20 36/36/18 34/34/18
f 35/35/17 37/37/19 39/39/19
f 36/36/18 38/38/20 40/40/20
f 37/37/19 41/41/21 39/39/19
f 42/42/22 40/40/20 38/38/20
f 41/41/21 37/37/19 43/43/21
f 40/40/20 42/42/22 44/44/22
f 43/43/21 45/45/23 41/41/21
f 46/46/24 44/44/22 42/42/22
f 45/45/23 43/43/21 47/47/23
f 44/44/22 46/46/24 48/48/24
f 49/49/25 45/45/23 47/47/23
f 50/50/26 48/48/24 46/46/24
f 45/45/23 49/49/25 51/51/25
f 48/48/24 50/50/26 52/52/26
f 53/53/4 51/51/4 49/49/4
f 50/50/26 54/54/27 52/52/26
f 51/51/4 53/53/4 55/55/4
f 54/54/27 50/50/26 56/56/27
f 57/57/28 55/55/29 53/53/29
f 56/56/27 58/58/30 54/54/27
f 55/55/29 57/57/28 59/59/28
f 58/58/30 56/56/27 60/60/30
f 57/57/28 61/61/31 59/59/28
f 62/62/32 58/58/30 60/60/30
f 61/61/31 57/57/28 63/63/31
f 58/58/30 62/62/32 64/64/32
f 65/65/33 61/61/31 63/63/31
f 66/66/4 64/64/4 62/62/4
f 61/61/31 65/65/33 67/67/33
f 64/64/4 66/66/4 68/68/4
f 69/69/34 67/67/33 65/65/33
f 67/67/33 69/69/34 70/70/34
f 71/71/35 70/70/34 69/69/34
f 70/70/34 71/71/35 72/72/35
f 71/71/35 73/73/36 72/72/35
f 73/73/36 71/71/35 74/74/36
f 74/74/36 75/75/37 73/73/36
f 75/75/37 74/74/36 76/76/37
f 76/76/37 77/77/38 75/75/37
f 77/77/38 76/76/37 78/78/38
f 78/78/38 79/79/39 77/77/38
f 79/79/39 78/78/38 80/80/39
f 80/80/39 81/81/40 79/79/39
f 81/81/40 80/80/39 82/82/40
f 82/82/40 83/83/41 81/81/40
f 83/83/41 82/82/40 84/84/41
f 84/84/41 85/85/42 83/83/41
f 85/85/42 84/84/41 86/86/42
f 86/86/42 87/87/43 85/85/42
f 87/87/43 86/86/42 88/88/43
f 89/68/44 87/87/44 88/88/44
f 87/87/44 89/68/44 90/66/44
usemtl material_1_0
f 3//45 2//45 1//46
f 4//46 1//46 2//45
f 2//45 3//45 5//47
f 1//46 4//46 6//44
f 7//47 5//47 3//45
f 8//44 6//44 4//46
f 5//47 7//47 9//48
f 6//44 8//44 10//49
f 11//48 9//48 7//47
f 12//49 10//49 8//44
f 9//48 11//48 13//50
f 10//49 12//49 14//51
f 15//50 13//50 11//48
f 16//51 14//51 12//49
f 13//50 15//50 17//52
f 14//51 16//51 18//53
f 19//52 17//52 15//50
f 20//53 18//53 16//51
f 17//52 19//52 21//54
f 18//53 20//53 22//55
f 23//54 21//54 19//52
f 24//55 22//55 20//53
f 21//54 23//54 25//56
f 22//55 24//55 26//57
f 27//56 25//56 23//54
f 28//57 26//57 24//55
f 25//56 27//56 29//58
f 26//57 28//57 30//59
f 31//58 29//58 27//56
f 32//59 30//59 28//57
f 29//58 31//58 33//60
f 30//59 32//59 34//61
f 35//60 33//60 31//58
f 36//61 34//61 32//59
f 33//60 35//60 37//62
f 34//61 36//61 38//63
f 39//62 37//62 35//60
f 40//63 38//63 36//61
f 39//62 41//64 37//62
f 38//63 40//63 42//65
f 43//64 37//62 41//64
f 44//65 42//65 40//63
f 41//64 45//66 43//64
f 42//65 44//65 46//67
f 47//66 43//64 45//66
f 48//67 46//67 44//65
f 47//66 45//66 49//68
f 46//67 48//67 50//69
f 51//68 49//68 45//66
f 52//69 50//69 48//67
f 49//44 51//44 53//44
f 52//69 54//70 50//69
f 55//44 53//44 51//44
f 56//70 50//69 54//70
f 53//71 55//71 57//72
f 54//70 58//73 56//70
f 59//72 57//72 55//71
f 60//73 56//70 58//73
f 59//72 61//74 57//72
f 60//73 58//73 62//75
f 63//74 57//72 61//74
f 64//75 62//75 58//73
f 63//74 61//74 65//76
f 62//44 64//44 66//44
f 67//76 65//76 61//74
f 68//44 66//44 64//44
f 65//76 67//76 69//77
f 70//77 69//77 67//76
f 69//77 70//77 71//78
f 72//78 71//78 70//77
f 72//78 73//79 71//78
f 74//79 71//78 73//79
f 73//79 75//80 74//79
f 76//80 74//79 75//80
f 75//80 77//81 76//80
f 78//81 76//80 77//81
f 77//81 79//82 78//81
f 80//82 78//81 79//82
f 79//82 81//83 80//82
f 82//83 80//82 81//83
f 81//83 83//84 82//83
f 84//84 82//83 83//84
f 83//84 85//85 84//84
f 86//85 84//84 85//85
f 85//85 87//86 86//85
f 88//86 86//85 87//86
f 88//4 87//4 89//4
f 90//4 89//4 87//4
