# SSTK version 0.8.0
# 26
mtllib original-26.mtl
o DF_12_TR1/DF_12_TR/mesh19/mesh19-geometry#mesh19-geometry
v 0.399580 0.683155 0.521055
v 0.339609 0.662072 0.521055
v 0.399580 0.662072 0.521055
v 0.339609 0.683155 0.521055
v 0.400698 0.684273 0.520470
v 0.339609 0.684273 0.520470
v 0.400698 0.662072 0.520470
v 0.402851 0.662072 0.517583
v 0.339609 0.686426 0.517583
v 0.402851 0.686426 0.517583
v 0.405569 0.689145 0.515222
v 0.339609 0.689145 0.515222
v 0.405569 0.662072 0.515222
v 0.408729 0.692304 0.513494
v 0.339609 0.692304 0.513494
v 0.408729 0.662072 0.513494
v 0.410407 0.693982 0.512296
v 0.339609 0.693982 0.512296
v 0.410407 0.662072 0.512296
v 0.411628 0.662072 0.510633
v 0.339609 0.695203 0.510633
v 0.411628 0.695203 0.510633
v 0.412267 0.662072 0.508673
v 0.339609 0.695842 0.508673
v 0.412267 0.695842 0.508673
v 0.412339 0.662072 0.507785
v 0.339609 0.695914 0.507785
v 0.412339 0.695914 0.507785
v 0.411984 0.662072 0.506453
v 0.339609 0.695559 0.506453
v 0.411984 0.695559 0.506453
v 0.409073 0.662072 0.502722
v 0.339609 0.692648 0.502722
v 0.409073 0.692648 0.502722
v 0.406925 0.662072 0.498506
v 0.339609 0.690500 0.498506
v 0.406925 0.690500 0.498506
v 0.405618 0.662072 0.493958
v 0.339609 0.689193 0.493958
v 0.405618 0.689193 0.493958
v 0.405199 0.662072 0.489245
v 0.339609 0.688774 0.489245
v 0.405199 0.688774 0.489245
v 0.339609 0.662072 0.489245
vt 0.567725 0.075201
vt 0.557369 0.104659
vt 0.557369 0.075201
vt 0.567726 0.104659
vt 0.568274 0.074652
vt 0.568274 0.104659
vt 0.557369 0.074652
vt 0.557369 0.073594
vt 0.569332 0.104659
vt 0.569332 0.073594
vt 0.570667 0.072259
vt 0.570667 0.104659
vt 0.557369 0.072259
vt 0.572219 0.070707
vt 0.572219 0.104659
vt 0.557369 0.070707
vt 0.573044 0.069883
vt 0.573044 0.104659
vt 0.557369 0.069883
vt 0.557369 0.069283
vt 0.573643 0.104659
vt 0.573643 0.069283
vt 0.557369 0.068969
vt 0.573957 0.104659
vt 0.573957 0.068969
vt 0.557369 0.068934
vt 0.573993 0.104659
vt 0.573993 0.068934
vt 0.557369 0.069108
vt 0.573818 0.104659
vt 0.573818 0.069108
vt 0.557369 0.070538
vt 0.572388 0.104659
vt 0.572388 0.070538
vt 0.557369 0.071593
vt 0.571333 0.104659
vt 0.571333 0.071593
vt 0.557369 0.072235
vt 0.570691 0.104659
vt 0.570691 0.072235
vt 0.557369 0.072441
vt 0.570486 0.104659
vt 0.570486 0.072441
vn 0 0 1
vn 0.46371595898154294 0 0.8859839216294096
vn 0.6488183093654026 0 0.7609433628281546
vn 0 0.4637159589815427 0.8859839216294098
vn 0 0.6488183093654025 0.7609433628281548
vn 0.7328895774145258 0 0.6803476077103218
vn 0 0.7328895774145258 0.680347607710322
vn 0.5711658010112957 0 0.8208347140290334
vn 0 0.5711658010112954 0.8208347140290335
vn 0.5313189263206812 0 0.8471718825205653
vn 0 0.531318926320681 0.8471718825205654
vn 0.7023040802224441 0 0.711877081315944
vn 0 0.7023040802224437 0.711877081315944
vn 0.8896042683758563 0 0.4567321377869722
vn 0 0.8896042683758559 0.4567321377869723
vn 0.98048760402771 0 0.19658092061031981
vn 0 0.9804876040277097 0.19658092061031998
vn 0.9959663945596352 0 -0.08972703554604514
vn 0 0.9959663945596352 -0.08972703554604491
vn 0.8954564118487054 0 -0.44514920473818853
vn 0 0.8954564118487055 -0.4451492047381883
vn 0.8435401602912036 0 -0.5370661020543847
vn 0 0.8435401602912037 -0.5370661020543844
vn 0.9302947376597118 0 -0.3668128965598782
vn 0 0.9302947376597119 -0.366812896559878
vn 0.9830819988792867 0 -0.18316599979119078
vn 0 0.9830819988792867 -0.18316599979119055
vn 0.9960847920005838 0 -0.08840298153995653
vn 0 0.9960847920005838 -0.08840298153995631
vn 0 0 -1
vn -0.46371595898154294 0 -0.8859839216294096
vn -0.6488183093654026 0 -0.7609433628281546
vn 0 -0.4637159589815427 -0.8859839216294098
vn 0 -0.6488183093654025 -0.7609433628281548
vn -0.7328895774145258 0 -0.6803476077103218
vn 0 -0.7328895774145258 -0.680347607710322
vn -0.5711658010112957 0 -0.8208347140290334
vn 0 -0.5711658010112954 -0.8208347140290335
vn -0.5313189263206812 0 -0.8471718825205653
vn 0 -0.531318926320681 -0.8471718825205654
vn -0.7023040802224441 0 -0.711877081315944
vn 0 -0.7023040802224437 -0.711877081315944
vn -0.8896042683758563 0 -0.4567321377869722
vn 0 -0.8896042683758559 -0.4567321377869723
vn -0.98048760402771 0 -0.19658092061031981
vn 0 -0.9804876040277097 -0.19658092061031998
vn -0.9959663945596352 0 0.08972703554604514
vn 0 -0.9959663945596352 0.08972703554604491
vn -0.8954564118487054 0 0.44514920473818853
vn 0 -0.8954564118487055 0.4451492047381883
vn -0.8435401602912036 0 0.5370661020543847
vn 0 -0.8435401602912037 0.5370661020543844
vn -0.9302947376597118 0 0.3668128965598782
vn 0 -0.9302947376597119 0.366812896559878
vn -0.9830819988792867 0 0.18316599979119078
vn 0 -0.9830819988792867 0.18316599979119055
vn -0.9960847920005838 0 0.08840298153995653
vn 0 -0.9960847920005838 0.08840298153995631
usemtl material_0_0
f 1/1/1 2/2/1 3/3/1
f 2/2/1 1/1/1 4/4/1
f 3/3/2 5/5/3 1/1/2
f 1/1/4 6/6/5 4/4/4
f 5/5/3 3/3/2 7/7/3
f 6/6/5 1/1/4 5/5/5
f 8/8/6 5/5/3 7/7/3
f 5/5/5 9/9/7 6/6/5
f 5/5/3 8/8/6 10/10/6
f 9/9/7 5/5/5 10/10/7
f 8/8/6 11/11/8 10/10/6
f 10/10/7 12/12/9 9/9/7
f 11/11/8 8/8/6 13/13/8
f 12/12/9 10/10/7 11/11/9
f 13/13/8 14/14/10 11/11/8
f 11/11/9 15/15/11 12/12/9
f 14/14/10 13/13/8 16/16/10
f 15/15/11 11/11/9 14/14/11
f 16/16/10 17/17/12 14/14/10
f 14/14/11 18/18/13 15/15/11
f 17/17/12 16/16/10 19/19/12
f 18/18/13 14/14/11 17/17/13
f 20/20/14 17/17/12 19/19/12
f 17/17/13 21/21/15 18/18/13
f 17/17/12 20/20/14 22/22/14
f 21/21/15 17/17/13 22/22/15
f 23/23/16 22/22/14 20/20/14
f 22/22/15 24/24/17 21/21/15
f 22/22/14 23/23/16 25/25/16
f 24/24/17 22/22/15 25/25/17
f 26/26/18 25/25/16 23/23/16
f 25/25/17 27/27/19 24/24/17
f 25/25/16 26/26/18 28/28/18
f 27/27/19 25/25/17 28/28/19
f 29/29/20 28/28/18 26/26/18
f 28/28/19 30/30/21 27/27/19
f 28/28/18 29/29/20 31/31/20
f 30/30/21 28/28/19 31/31/21
f 32/32/22 31/31/20 29/29/20
f 31/31/21 33/33/23 30/30/21
f 31/31/20 32/32/22 34/34/22
f 33/33/23 31/31/21 34/34/23
f 35/35/24 34/34/22 32/32/22
f 34/34/23 36/36/25 33/33/23
f 34/34/22 35/35/24 37/37/24
f 36/36/25 34/34/23 37/37/25
f 38/38/26 37/37/24 35/35/24
f 37/37/25 39/39/27 36/36/25
f 37/37/24 38/38/26 40/40/26
f 39/39/27 37/37/25 40/40/27
f 41/41/28 40/40/26 38/38/26
f 40/40/27 42/42/29 39/39/27
f 40/40/26 41/41/28 43/43/28
f 42/42/29 40/40/27 43/43/29
f 41/41/30 42/42/30 43/43/30
f 42/42/30 41/41/30 44/2/30
usemtl material_1_0
f 3//30 2//30 1//30
f 4//30 1//30 2//30
f 1//31 5//32 3//31
f 4//33 6//34 1//33
f 7//32 3//31 5//32
f 5//34 1//33 6//34
f 7//32 5//32 8//35
f 6//34 9//36 5//34
f 10//35 8//35 5//32
f 10//36 5//34 9//36
f 10//35 11//37 8//35
f 9//36 12//38 10//36
f 13//37 8//35 11//37
f 11//38 10//36 12//38
f 11//37 14//39 13//37
f 12//38 15//40 11//38
f 16//39 13//37 14//39
f 14//40 11//38 15//40
f 14//39 17//41 16//39
f 15//40 18//42 14//40
f 19//41 16//39 17//41
f 17//42 14//40 18//42
f 19//41 17//41 20//43
f 18//42 21//44 17//42
f 22//43 20//43 17//41
f 22//44 17//42 21//44
f 20//43 22//43 23//45
f 21//44 24//46 22//44
f 25//45 23//45 22//43
f 25//46 22//44 24//46
f 23//45 25//45 26//47
f 24//46 27//48 25//46
f 28//47 26//47 25//45
f 28//48 25//46 27//48
f 26//47 28//47 29//49
f 27//48 30//50 28//48
f 31//49 29//49 28//47
f 31//50 28//48 30//50
f 29//49 31//49 32//51
f 30//50 33//52 31//50
f 34//51 32//51 31//49
f 34//52 31//50 33//52
f 32//51 34//51 35//53
f 33//52 36//54 34//52
f 37//53 35//53 34//51
f 37//54 34//52 36//54
f 35//53 37//53 38//55
f 36//54 39//56 37//54
f 40//55 38//55 37//53
f 40//56 37//54 39//56
f 38//55 40//55 41//57
f 39//56 42//58 40//56
f 43//57 41//57 40//55
f 43//58 40//56 42//58
f 43//1 42//1 41//1
f 44//1 41//1 42//1
