# SSTK version 0.8.0
# 44
mtllib original-44.mtl
o RT_11_CR1/RT_11_CR/mesh35/mesh35-geometry#mesh35-geometry
v 0.325752 0.220324 0.521055
v 0.324612 -0.291742 0.520393
v 0.325752 -0.291742 0.521055
v 0.324612 0.220324 0.520393
v 0.399580 0.220324 0.521055
v 0.324375 0.220324 0.519100
v 0.399580 -0.291742 0.521055
v 0.324375 -0.291742 0.519100
v 0.400698 -0.291742 0.520470
v 0.323624 0.220324 0.518021
v 0.400698 0.220324 0.520470
v 0.323624 -0.291742 0.518021
v 0.402851 -0.291742 0.517583
v 0.322496 -0.291742 0.517347
v 0.402851 0.220324 0.517583
v 0.322496 0.220324 0.517347
v 0.405569 0.220324 0.515222
v 0.321657 -0.291742 0.517086
v 0.405569 -0.291742 0.515222
v 0.321657 0.220324 0.517086
v 0.408729 0.220324 0.513494
v 0.320849 -0.291742 0.516353
v 0.408729 -0.291742 0.513494
v 0.320849 0.220324 0.516353
v 0.410407 0.220324 0.512296
v 0.319875 -0.291742 0.515395
v 0.410407 -0.291742 0.512296
v 0.319875 0.220324 0.515395
v 0.411628 0.220324 0.510633
v 0.318646 -0.291742 0.514799
v 0.411628 -0.291742 0.510633
v 0.318646 0.220324 0.514799
v 0.412267 -0.291742 0.508673
v 0.317290 -0.291742 0.514628
v 0.412267 0.220324 0.508673
v 0.317290 0.220324 0.514628
v 0.412339 -0.291742 0.507785
v 0.313835 -0.291742 0.513739
v 0.412339 0.220324 0.507785
v 0.313835 0.220324 0.513739
v 0.411984 -0.291742 0.506453
v 0.310690 -0.291742 0.512056
v 0.411984 0.220324 0.506453
v 0.310690 0.220324 0.512056
v 0.409073 -0.291742 0.502722
v 0.308033 -0.291742 0.509675
v 0.409073 0.220324 0.502722
v 0.308033 0.220324 0.509675
v 0.406925 -0.291742 0.498506
v 0.304563 -0.291742 0.508706
v 0.406925 0.220324 0.498506
v 0.304563 0.220324 0.508706
v 0.405618 -0.291742 0.493958
v 0.300976 -0.291742 0.508379
v 0.405618 0.220324 0.493958
v 0.300976 0.220324 0.508379
v 0.405199 -0.291742 0.489245
v 0.297388 -0.291742 0.508706
v 0.405199 0.220324 0.489245
v 0.297388 0.220324 0.508706
v 0.238250 0.220324 0.489245
v 0.293918 -0.291742 0.509675
v 0.238250 -0.291742 0.489245
v 0.293918 0.220324 0.509675
v 0.291262 -0.291742 0.512056
v 0.291262 0.220324 0.512056
v 0.288116 -0.291742 0.513739
v 0.288116 0.220324 0.513739
v 0.284661 -0.291742 0.514628
v 0.284661 0.220324 0.514628
v 0.283305 -0.291742 0.514799
v 0.283305 0.220324 0.514799
v 0.282076 -0.291742 0.515395
v 0.282076 0.220324 0.515395
v 0.281102 -0.291742 0.516353
v 0.281102 0.220324 0.516353
v 0.280294 -0.291742 0.517086
v 0.280294 0.220324 0.517086
v 0.279456 -0.291742 0.517347
v 0.279456 0.220324 0.517347
v 0.278327 -0.291742 0.518021
v 0.278327 0.220324 0.518021
v 0.277577 0.220324 0.519100
v 0.277577 -0.291742 0.519100
v 0.277339 -0.291742 0.520393
v 0.277339 0.220324 0.520393
v 0.276200 -0.291742 0.521055
v 0.276200 0.220324 0.521055
v 0.238250 -0.291742 0.521055
v 0.238250 0.220324 0.521055
vt 0.298333 0.383577
vt 0.297774 0.098194
vt 0.298333 0.098194
vt 0.297774 0.383577
vt 0.334598 0.383577
vt 0.297657 0.383577
vt 0.334598 0.098194
vt 0.297657 0.098194
vt 0.335147 0.098194
vt 0.297289 0.383577
vt 0.335147 0.383577
vt 0.297289 0.098194
vt 0.336205 0.098194
vt 0.296734 0.098194
vt 0.336205 0.383577
vt 0.296734 0.383577
vt 0.33754 0.383577
vt 0.296322 0.098194
vt 0.33754 0.098194
vt 0.296322 0.383577
vt 0.339092 0.383577
vt 0.295925 0.098194
vt 0.339092 0.098194
vt 0.295925 0.383577
vt 0.339916 0.383577
vt 0.295447 0.098194
vt 0.339916 0.098194
vt 0.295447 0.383577
vt 0.340516 0.383577
vt 0.294843 0.098194
vt 0.340516 0.098194
vt 0.294843 0.383577
vt 0.34083 0.098194
vt 0.294177 0.098194
vt 0.34083 0.383577
vt 0.294177 0.383577
vt 0.340865 0.098194
vt 0.29248 0.098194
vt 0.340865 0.383577
vt 0.29248 0.383577
vt 0.340691 0.098194
vt 0.290935 0.098194
vt 0.340691 0.383577
vt 0.290935 0.383577
vt 0.339261 0.098194
vt 0.28963 0.098194
vt 0.339261 0.383577
vt 0.28963 0.383577
vt 0.338206 0.098194
vt 0.287926 0.098194
vt 0.338206 0.383577
vt 0.287926 0.383577
vt 0.337564 0.098194
vt 0.286163 0.098194
vt 0.337564 0.383577
vt 0.286163 0.383577
vt 0.337358 0.098194
vt 0.284401 0.098194
vt 0.337358 0.383577
vt 0.284401 0.383577
vt 0.255352 0.383577
vt 0.282697 0.098194
vt 0.255352 0.098194
vt 0.282697 0.383577
vt 0.281392 0.098194
vt 0.281392 0.383577
vt 0.279847 0.098194
vt 0.279847 0.383577
vt 0.27815 0.098194
vt 0.27815 0.383577
vt 0.277484 0.098194
vt 0.277484 0.383577
vt 0.27688 0.098194
vt 0.27688 0.383577
vt 0.276401 0.098194
vt 0.276401 0.383577
vt 0.276004 0.098194
vt 0.276004 0.383577
vt 0.275593 0.098194
vt 0.275593 0.383577
vt 0.275038 0.098194
vt 0.275038 0.383577
vt 0.27467 0.383577
vt 0.27467 0.098194
vt 0.274553 0.098194
vt 0.274553 0.383577
vt 0.273993 0.098194
vt 0.273993 0.383577
vn -0.5022230626842221 0 0.8647381079309965
vn -0.8178150999427359 0 0.5754810703278194
vn 0 0 1
vn -0.9231746151350453 0 0.38438083975435194
vn 0.6488183093654026 0 0.7609433628281546
vn 0.46371595898154294 0 0.8859839216294096
vn -0.6821501325267763 0 0.7312121420584462
vn 0.7328895774145258 0 0.6803476077103218
vn -0.4077768327191714 0 0.9130816254297973
vn 0.5711658010112957 0 0.8208347140290334
vn -0.4963241578943886 0 0.8681372761783853
vn 0.5313189263206812 0 0.8471718825205653
vn -0.6867529282720941 0 0.7268909240798814
vn 0.7023040802224441 0 0.711877081315944
vn -0.5764930410886783 0 0.8171020582377255
vn 0.8896042683758563 0 0.4567321377869722
vn -0.28446089448422884 0 0.9586876443916612
vn 0.98048760402771 0 0.19658092061031981
vn -0.1874440535376845 0 0.9822752805570146
vn 0.9959663945596352 0 -0.08972703554604514
vn -0.36299382298610533 0 0.9317915456119635
vn 0.8954564118487054 0 -0.44514920473818853
vn -0.5737708942262061 0 0.8190158490156707
vn 0.8435401602912036 0 -0.5370661020543847
vn -0.48085897338806294 0 0.8767979514758106
vn 0.9302947376597118 0 -0.3668128965598782
vn -0.18057292631064156 0 0.9835615986218716
vn 0.9830819988792867 0 -0.18316599979119078
vn 0.9960847920005838 0 -0.08840298153995653
vn 0.18057292631064156 0 0.9835615986218716
vn 0 0 -1
vn 0.48085897338806294 0 0.8767979514758106
vn 0.5737708942262061 0 0.8190158490156707
vn 0.36299382298610533 0 0.9317915456119635
vn 0.1874440535376845 0 0.9822752805570146
vn 0.28446089448422884 0 0.9586876443916612
vn 0.5764930410886783 0 0.8171020582377255
vn 0.6867529282720941 0 0.7268909240798814
vn 0.4963241578943886 0 0.8681372761783853
vn 0.4077768327191714 0 0.9130816254297973
vn 0.6821501325267763 0 0.7312121420584462
vn 0.9231746151350453 0 0.38438083975435194
vn 0.8178150999427359 0 0.5754810703278194
vn 0.5022230626842221 0 0.8647381079309965
vn 0.5022230626842221 0 -0.8647381079309965
vn 0.8178150999427359 0 -0.5754810703278194
vn 0.9231746151350453 0 -0.38438083975435194
vn -0.46371595898154294 0 -0.8859839216294096
vn -0.6488183093654026 0 -0.7609433628281546
vn 0.6821501325267763 0 -0.7312121420584462
vn -0.7328895774145258 0 -0.6803476077103218
vn 0.4077768327191714 0 -0.9130816254297973
vn -0.5711658010112957 0 -0.8208347140290334
vn 0.4963241578943886 0 -0.8681372761783853
vn -0.5313189263206812 0 -0.8471718825205653
vn 0.6867529282720941 0 -0.7268909240798814
vn -0.7023040802224441 0 -0.711877081315944
vn 0.5764930410886783 0 -0.8171020582377255
vn -0.8896042683758563 0 -0.4567321377869722
vn 0.28446089448422884 0 -0.9586876443916612
vn -0.98048760402771 0 -0.19658092061031981
vn 0.1874440535376845 0 -0.9822752805570146
vn -0.9959663945596352 0 0.08972703554604514
vn 0.36299382298610533 0 -0.9317915456119635
vn -0.8954564118487054 0 0.44514920473818853
vn 0.5737708942262061 0 -0.8190158490156707
vn -0.8435401602912036 0 0.5370661020543847
vn 0.48085897338806294 0 -0.8767979514758106
vn -0.9302947376597118 0 0.3668128965598782
vn 0.18057292631064156 0 -0.9835615986218716
vn -0.9830819988792867 0 0.18316599979119078
vn -0.9960847920005838 0 0.08840298153995653
vn -0.18057292631064156 0 -0.9835615986218716
vn -0.48085897338806294 0 -0.8767979514758106
vn -0.5737708942262061 0 -0.8190158490156707
vn -0.36299382298610533 0 -0.9317915456119635
vn -0.1874440535376845 0 -0.9822752805570146
vn -0.28446089448422884 0 -0.9586876443916612
vn -0.5764930410886783 0 -0.8171020582377255
vn -0.6867529282720941 0 -0.7268909240798814
vn -0.4963241578943886 0 -0.8681372761783853
vn -0.4077768327191714 0 -0.9130816254297973
vn -0.6821501325267763 0 -0.7312121420584462
vn -0.9231746151350453 0 -0.38438083975435194
vn -0.8178150999427359 0 -0.5754810703278194
vn -0.5022230626842221 0 -0.8647381079309965
usemtl material_0_0
f 1/1/1 2/2/2 3/3/1
f 2/2/2 1/1/1 4/4/2
f 3/3/3 5/5/3 1/1/3
f 6/6/4 2/2/2 4/4/2
f 5/5/3 3/3/3 7/7/3
f 2/2/2 6/6/4 8/8/4
f 9/9/5 5/5/6 7/7/6
f 10/10/7 8/8/4 6/6/4
f 5/5/6 9/9/5 11/11/5
f 8/8/4 10/10/7 12/12/7
f 13/13/8 11/11/5 9/9/5
f 10/10/7 14/14/9 12/12/7
f 11/11/5 13/13/8 15/15/8
f 14/14/9 10/10/7 16/16/9
f 13/13/8 17/17/10 15/15/8
f 16/16/9 18/18/11 14/14/9
f 17/17/10 13/13/8 19/19/10
f 18/18/11 16/16/9 20/20/11
f 19/19/10 21/21/12 17/17/10
f 20/20/11 22/22/13 18/18/11
f 21/21/12 19/19/10 23/23/12
f 22/22/13 20/20/11 24/24/13
f 23/23/12 25/25/14 21/21/12
f 24/24/13 26/26/15 22/22/13
f 25/25/14 23/23/12 27/27/14
f 26/26/15 24/24/13 28/28/15
f 27/27/14 29/29/16 25/25/14
f 28/28/15 30/30/17 26/26/15
f 29/29/16 27/27/14 31/31/16
f 30/30/17 28/28/15 32/32/17
f 33/33/18 29/29/16 31/31/16
f 32/32/17 34/34/19 30/30/17
f 29/29/16 33/33/18 35/35/18
f 34/34/19 32/32/17 36/36/19
f 37/37/20 35/35/18 33/33/18
f 36/36/19 38/38/21 34/34/19
f 35/35/18 37/37/20 39/39/20
f 38/38/21 36/36/19 40/40/21
f 41/41/22 39/39/20 37/37/20
f 40/40/21 42/42/23 38/38/21
f 39/39/20 41/41/22 43/43/22
f 42/42/23 40/40/21 44/44/23
f 45/45/24 43/43/22 41/41/22
f 44/44/23 46/46/25 42/42/23
f 43/43/22 45/45/24 47/47/24
f 46/46/25 44/44/23 48/48/25
f 49/49/26 47/47/24 45/45/24
f 48/48/25 50/50/27 46/46/25
f 47/47/24 49/49/26 51/51/26
f 50/50/27 48/48/25 52/52/27
f 53/53/28 51/51/26 49/49/26
f 52/52/27 54/54/3 50/50/27
f 51/51/26 53/53/28 55/55/28
f 54/54/3 52/52/27 56/56/3
f 57/57/29 55/55/28 53/53/28
f 56/56/3 58/58/30 54/54/3
f 55/55/28 57/57/29 59/59/29
f 58/58/30 56/56/3 60/60/30
f 57/57/31 61/61/31 59/59/31
f 60/60/30 62/62/32 58/58/30
f 61/61/31 57/57/31 63/63/31
f 62/62/32 60/60/30 64/64/32
f 64/64/32 65/65/33 62/62/32
f 65/65/33 64/64/32 66/66/33
f 66/66/33 67/67/34 65/65/33
f 67/67/34 66/66/33 68/68/34
f 68/68/34 69/69/35 67/67/34
f 69/69/35 68/68/34 70/70/35
f 70/70/35 71/71/36 69/69/35
f 71/71/36 70/70/35 72/72/36
f 72/72/36 73/73/37 71/71/36
f 73/73/37 72/72/36 74/74/37
f 74/74/37 75/75/38 73/73/37
f 75/75/38 74/74/37 76/76/38
f 76/76/38 77/77/39 75/75/38
f 77/77/39 76/76/38 78/78/39
f 78/78/39 79/79/40 77/77/39
f 79/79/40 78/78/39 80/80/40
f 80/80/40 81/81/41 79/79/40
f 81/81/41 80/80/40 82/82/41
f 83/83/42 81/81/41 82/82/41
f 81/81/41 83/83/42 84/84/42
f 83/83/42 85/85/43 84/84/42
f 85/85/43 83/83/42 86/86/43
f 86/86/43 87/87/44 85/85/43
f 87/87/44 86/86/43 88/88/44
f 88/88/3 89/63/3 87/87/3
f 89/63/3 88/88/3 90/61/3
usemtl material_1_0
f 3//45 2//46 1//45
f 4//46 1//45 2//46
f 1//31 5//31 3//31
f 4//46 2//46 6//47
f 7//31 3//31 5//31
f 8//47 6//47 2//46
f 7//48 5//48 9//49
f 6//47 8//47 10//50
f 11//49 9//49 5//48
f 12//50 10//50 8//47
f 9//49 11//49 13//51
f 12//50 14//52 10//50
f 15//51 13//51 11//49
f 16//52 10//50 14//52
f 15//51 17//53 13//51
f 14//52 18//54 16//52
f 19//53 13//51 17//53
f 20//54 16//52 18//54
f 17//53 21//55 19//53
f 18//54 22//56 20//54
f 23//55 19//53 21//55
f 24//56 20//54 22//56
f 21//55 25//57 23//55
f 22//56 26//58 24//56
f 27//57 23//55 25//57
f 28//58 24//56 26//58
f 25//57 29//59 27//57
f 26//58 30//60 28//58
f 31//59 27//57 29//59
f 32//60 28//58 30//60
f 31//59 29//59 33//61
f 30//60 34//62 32//60
f 35//61 33//61 29//59
f 36//62 32//60 34//62
f 33//61 35//61 37//63
f 34//62 38//64 36//62
f 39//63 37//63 35//61
f 40//64 36//62 38//64
f 37//63 39//63 41//65
f 38//64 42//66 40//64
f 43//65 41//65 39//63
f 44//66 40//64 42//66
f 41//65 43//65 45//67
f 42//66 46//68 44//66
f 47//67 45//67 43//65
f 48//68 44//66 46//68
f 45//67 47//67 49//69
f 46//68 50//70 48//68
f 51//69 49//69 47//67
f 52//70 48//68 50//70
f 49//69 51//69 53//71
f 50//70 54//31 52//70
f 55//71 53//71 51//69
f 56//31 52//70 54//31
f 53//71 55//71 57//72
f 54//31 58//73 56//31
f 59//72 57//72 55//71
f 60//73 56//31 58//73
f 59//3 61//3 57//3
f 58//73 62//74 60//73
f 63//3 57//3 61//3
f 64//74 60//73 62//74
f 62//74 65//75 64//74
f 66//75 64//74 65//75
f 65//75 67//76 66//75
f 68//76 66//75 67//76
f 67//76 69//77 68//76
f 70//77 68//76 69//77
f 69//77 71//78 70//77
f 72//78 70//77 71//78
f 71//78 73//79 72//78
f 74//79 72//78 73//79
f 73//79 75//80 74//79
f 76//80 74//79 75//80
f 75//80 77//81 76//80
f 78//81 76//80 77//81
f 77//81 79//82 78//81
f 80//82 78//81 79//82
f 79//82 81//83 80//82
f 82//83 80//82 81//83
f 82//83 81//83 83//84
f 84//84 83//84 81//83
f 84//84 85//85 83//84
f 86//85 83//84 85//85
f 85//85 87//86 86//85
f 88//86 86//85 87//86
f 87//31 89//31 88//31
f 90//31 88//31 89//31
